<?xml version="1.0" encoding="UTF-8" standalone="no"?>
<!-- Created with Inkscape (http://www.inkscape.org/) -->

<svg
   xmlns:dc="http://purl.org/dc/elements/1.1/"
   xmlns:cc="http://creativecommons.org/ns#"
   xmlns:rdf="http://www.w3.org/1999/02/22-rdf-syntax-ns#"
   xmlns:svg="http://www.w3.org/2000/svg"
   xmlns="http://www.w3.org/2000/svg"
   xmlns:sodipodi="http://sodipodi.sourceforge.net/DTD/sodipodi-0.dtd"
   xmlns:inkscape="http://www.inkscape.org/namespaces/inkscape"
   width="117.47761mm"
   height="117.47761mm"
   viewBox="0 0 416.25924 416.25923"
   id="svg5098"
   version="1.1"
   inkscape:version="0.92.2 (5c3e80d, 2017-08-06)"
   sodipodi:docname="Heart.svg">
  <defs
     id="defs5100" />
  <sodipodi:namedview
     id="base"
     pagecolor="#ffffff"
     bordercolor="#666666"
     borderopacity="1.0"
     inkscape:pageopacity="0.0"
     inkscape:pageshadow="2"
     inkscape:zoom="0.49497475"
     inkscape:cx="578.20376"
     inkscape:cy="-132.85482"
     inkscape:document-units="px"
     inkscape:current-layer="layer1"
     showgrid="false"
     fit-margin-top="0"
     fit-margin-left="0"
     fit-margin-right="0"
     fit-margin-bottom="0"
     inkscape:window-width="1600"
     inkscape:window-height="837"
     inkscape:window-x="-8"
     inkscape:window-y="-8"
     inkscape:window-maximized="1" />
  <metadata
     id="metadata5103">
    <rdf:RDF>
      <cc:Work
         rdf:about="">
        <dc:format>image/svg+xml</dc:format>
        <dc:type
           rdf:resource="http://purl.org/dc/dcmitype/StillImage" />
        <dc:title />
      </cc:Work>
    </rdf:RDF>
  </metadata>
  <g
     inkscape:label="Layer 1"
     inkscape:groupmode="layer"
     id="layer1"
     transform="translate(834.12956,170.30311)">
    <circle
       r="208.12961"
       style="opacity:1;fill:#9f92b3;fill-opacity:1;stroke:none;stroke-width:7.67106342;stroke-linecap:round;stroke-miterlimit:4;stroke-dasharray:none;stroke-opacity:1"
       id="circle4998"
       cx="-625.99994"
       cy="37.826504" />
    <path
       id="path4443"
       d="m -619.0852,-110.9534 h 14.4002 c -1.9344,17.1941 -6.2329,34.0873 -6.7057,51.4532 8.7689,-9.5855 13.6262,-21.8364 21.4495,-32.0669 3.224,-6.1469 15.7756,-2.2781 12.9815,4.4276 -4.7282,9.6286 -11.1331,18.3116 -16.5063,27.5104 3.9548,8.2102 7.3076,16.6354 10.1016,25.2753 -11.0472,0.5588 -22.9971,-2.3641 -33.3136,2.6652 -12.2508,7.2215 -13.2394,22.9111 -16.1625,35.3337 -11.735,0.387 -23.3839,1.5906 -34.9899,3.1811 0.043,-7.8233 -0.3008,-15.6897 0.6018,-23.513 3.9976,-13.3254 19.4723,-16.2484 28.4132,-25.0173 2.966,-13.3256 -6.6626,-28.0264 -21.4067,-25.2754 -4.7282,-10.4883 -9.1558,-21.1057 -13.5403,-31.7661 5.5021,-2.9229 10.9613,-5.803 16.4634,-8.7261 9.6286,16.0337 16.9791,33.2707 24.8884,50.2068 8.5541,-16.6783 8.0382,-35.9786 13.3254,-53.6885 z"
       style="opacity:1;fill:#8673a2;fill-opacity:1"
       inkscape:connector-curvature="0" />
    <path
       id="path4447"
       d="m -717.0485,-90.0196 c 0.9887,-11.0472 15.6466,-14.4001 24.3726,-10.7464 11.2622,12.8097 16.4634,29.5739 23.5989,44.8337 5.7171,-2.0203 11.4341,-4.0407 17.2801,-5.5021 7.1356,2.751 6.4048,11.735 8.2961,17.7528 -11.391,4.8144 -22.7822,11.6921 -28.5421,23.0831 -2.794,9.6288 -2.0203,19.8163 -2.4072,29.7459 -11.95,3.9117 -22.7391,10.4023 -32.7119,18.0537 -1.8482,-20.6759 4.2556,-40.621 6.4909,-60.953 -1.5045,-19.6872 -12.3798,-37.0962 -16.3774,-56.2677 z"
       style="opacity:1;fill:#8673a2;fill-opacity:1"
       inkscape:connector-curvature="0" />
    <path
       id="path4465"
       d="m -627.1234,4.161 c 2.4502,-11.0042 2.837,-24.7164 13.5834,-31.1643 10.0585,-3.8686 21.0627,-0.8597 31.4652,-0.7737 1.9342,7.0925 3.7826,14.1851 5.545,21.3207 -10.2305,2.6651 -22.7822,5.1582 -22.0943,18.4407 -9.2849,-3.2669 -18.8276,-5.7601 -28.4993,-7.8234 z"
       style="opacity:1;fill:#8673a2;fill-opacity:1"
       inkscape:connector-curvature="0" />
    <path
       id="path4469"
       d="m -702.3476,32.7032 c 13.1535,-16.3773 35.3769,-20.0311 54.8923,-23.169 -4.6425,17.366 -11.3912,35.8927 -26.737,46.6389 -10.7032,7.2645 -19.6012,16.7214 -25.0604,28.5852 l 5.2013,-0.042 c 0.6448,14.701 16.8502,17.8388 24.8455,27.6395 5.2872,7.5223 14.9158,7.3934 23.126,7.9953 -7.7373,-7.6084 -24.0288,-4.7715 -23.384,-19.8593 4.9004,0.6879 14.701,2.1064 19.6014,2.8371 -7.9953,-11.606 -22.3523,-2.0632 -33.0988,-5.9749 -7.0494,-6.2329 -4.1694,-16.1194 -5.0721,-24.3298 6.1038,-5.3301 12.2937,-10.5742 18.5266,-15.7755 -3.0949,15.9906 12.2078,21.8795 24.9313,18.5267 -3.9116,-4.7714 -10.4883,-3.1809 -15.7755,-4.2556 l 0.258,-4.7284 c 2.2781,-1.5045 6.8776,-4.5134 9.1558,-5.975 -3.6968,0.5589 -11.0902,1.7195 -14.787,2.3213 4.5565,-18.6987 20.1171,-33.2277 22.0086,-53.2157 14.6579,-0.9028 29.0149,2.3641 42.8991,6.7486 6.5338,12.6806 11.907,26.2211 13.4545,40.5352 -1.6335,14.0991 -12.9816,24.2436 -17.323,37.3971 -4.0408,2.708 -7.4365,6.018 -10.1877,9.9725 11.649,-2.1061 18.011,-11.9498 19.2146,-23.169 8.597,7.5655 19.9451,14.658 21.7935,26.9087 1.0316,14.4861 -3.224,28.6283 -7.2216,42.3835 1.1176,0.086 3.3099,0.301 4.3845,0.387 1.2466,-4.9864 3.7827,-14.959 5.0723,-19.9022 5.459,9.1128 6.9206,22.782 17.022,28.4132 -3.7397,-11.2622 -10.1014,-21.3207 -14.4859,-32.282 -2.2352,-9.0698 1.0316,-19.0854 -3.138,-27.8113 -3.3097,-5.8891 -8.9409,-10.0157 -13.2823,-15.1309 -8.5541,-7.6083 1.8913,-18.6986 3.1809,-27.2526 11.391,14.314 16.9791,33.0126 33.1416,43.458 -3.052,-12.4227 -16.1625,-18.4407 -19.6443,-30.6914 -2.708,-7.7804 -8.4681,-13.6264 -14.8729,-18.5266 -2.794,-10.8753 -6.4048,-21.5356 -10.4025,-32.0241 56.3537,28.9292 80.4684,101.1872 60.7381,159.8192 -3.6537,8.812 -9.8006,18.6126 -20.2888,19.6012 -18.8706,-0.1718 -35.3769,-10.5314 -53.3878,-14.6579 -25.4473,-5.5881 -52.4849,-4.1697 -76.8145,-14.4002 -23.9428,-10.6173 -36.4085,-36.9242 -38.6009,-61.8986 -2.1921,-26.1351 3.1809,-54.3764 20.1171,-75.0953 m 1.4616,73.032 c 4.7284,10.7892 3.5248,22.8681 7.1785,34.0013 2.0204,-7.5224 0.9027,-15.3888 1.0316,-23.0401 11.1762,6.6197 16.9792,18.6986 26.9088,26.5219 -4.7284,-16.8502 -21.0627,-25.4472 -32.11,-37.655 0.5588,-5.0724 1.7195,-15.3029 2.2783,-20.3751 -2.88,6.2758 -7.6515,13.3254 -5.2872,20.547 z"
       style="opacity:1;fill:#ffffff;fill-opacity:1;stroke:none;stroke-width:2;stroke-miterlimit:4;stroke-dasharray:none"
       inkscape:connector-curvature="0" />
  </g>
</svg>
