<?xml version="1.0" encoding="UTF-8" standalone="no"?>
<!-- Created with Inkscape (http://www.inkscape.org/) -->

<svg
   xmlns:dc="http://purl.org/dc/elements/1.1/"
   xmlns:cc="http://creativecommons.org/ns#"
   xmlns:rdf="http://www.w3.org/1999/02/22-rdf-syntax-ns#"
   xmlns:svg="http://www.w3.org/2000/svg"
   xmlns="http://www.w3.org/2000/svg"
   xmlns:sodipodi="http://sodipodi.sourceforge.net/DTD/sodipodi-0.dtd"
   xmlns:inkscape="http://www.inkscape.org/namespaces/inkscape"
   width="117.47761mm"
   height="117.47761mm"
   viewBox="0 0 416.25924 416.25923"
   id="svg5425"
   version="1.1"
   inkscape:version="0.92.2 (5c3e80d, 2017-08-06)"
   sodipodi:docname="Surgery.svg">
  <defs
     id="defs5427" />
  <sodipodi:namedview
     id="base"
     pagecolor="#ffffff"
     bordercolor="#666666"
     borderopacity="1.0"
     inkscape:pageopacity="0.0"
     inkscape:pageshadow="2"
     inkscape:zoom="0.35"
     inkscape:cx="1041.2191"
     inkscape:cy="-312.35224"
     inkscape:document-units="px"
     inkscape:current-layer="layer1"
     showgrid="false"
     fit-margin-top="0"
     fit-margin-left="0"
     fit-margin-right="0"
     fit-margin-bottom="0"
     inkscape:window-width="1600"
     inkscape:window-height="837"
     inkscape:window-x="-8"
     inkscape:window-y="-8"
     inkscape:window-maximized="1" />
  <metadata
     id="metadata5430">
    <rdf:RDF>
      <cc:Work
         rdf:about="">
        <dc:format>image/svg+xml</dc:format>
        <dc:type
           rdf:resource="http://purl.org/dc/dcmitype/StillImage" />
        <dc:title />
      </cc:Work>
    </rdf:RDF>
  </metadata>
  <g
     inkscape:label="Layer 1"
     inkscape:groupmode="layer"
     id="layer1"
     transform="translate(1069.3081,169.76741)">
    <circle
       style="opacity:1;fill:#9f92b3;fill-opacity:1;stroke:none;stroke-width:7.67106247;stroke-linecap:round;stroke-miterlimit:4;stroke-dasharray:none;stroke-opacity:1"
       id="circle4461"
       cx="-861.17847"
       cy="38.362202"
       r="208.12961" />
    <path
       id="path4144-0"
       d="m -746.9602,-84.3415 c 4.6365,-1.9268 9.6382,-2.7665 14.6317,-3.0545 -1.8132,5.7967 -4.6933,11.2568 -8.5145,15.9866 -7.7479,9.5247 -17.3172,17.3172 -26.3388,25.5762 -6.0523,5.3951 -12.1898,10.7051 -18.1326,16.226 -1.2372,-4.8719 -5.1355,-8.762 -10.0195,-9.979 9.3015,-10.5104 18.5098,-21.1303 28.6023,-30.8983 5.9022,-5.4803 12.2101,-10.8308 19.7714,-13.857 z"
       inkscape:connector-curvature="0"
       style="opacity:1;fill:#ffffff;fill-opacity:1;stroke:none;stroke-width:3;stroke-miterlimit:4;stroke-dasharray:none;stroke-opacity:1" />
    <path
       id="path4146-1"
       d="m -796.8672,-38.0285 c 4.6527,1.4319 8.4577,5.0747 9.8937,9.7477 -1.1236,1.0831 -2.2757,2.1459 -3.5251,3.087 -6.3484,4.8475 -12.6359,9.7802 -19.0249,14.571 1.1642,3.5737 -1.5658,7.0258 -3.9105,9.4435 -30.6954,29.8841 -61.3909,59.7683 -92.0985,89.6403 -12.0924,11.9545 -24.4526,23.625 -36.4963,35.6363 -12.9118,12.2546 -25.4869,24.8622 -38.3136,37.2102 -1.4359,1.2575 -3.0261,3.0099 -5.1233,2.7949 -1.7159,-1.1886 -2.9937,-2.9044 -4.5514,-4.2837 -0.1622,-2.2067 1.4401,-3.8982 2.8598,-5.3667 52.8034,-54.288 105.6635,-108.5274 158.4953,-162.7951 2.5637,-2.5475 4.7745,-5.5939 8.0886,-7.2368 1.6064,-0.8762 3.5048,-1.4603 5.3018,-0.8072 6.1862,-7.1678 11.918,-14.7413 18.4044,-21.6414 z"
       inkscape:connector-curvature="0"
       style="opacity:1;fill:#ffffff;fill-opacity:1;stroke:none;stroke-width:3;stroke-miterlimit:4;stroke-dasharray:none;stroke-opacity:1" />
    <path
       id="path4164"
       d="m -989.2305,-99.5144 c -0.4699,-1.728 -1.2542,-3.6074 -0.4543,-5.3626 2.6832,1.7047 4.4927,4.384 6.4731,6.8071 17.9594,21.9046 35.9188,43.8171 54.55,65.1587 11.9794,14.084 25.3179,26.9177 38.1633,40.198 9.1253,9.2573 18.2351,18.5302 27.2517,27.8885 16.6663,16.7362 33.0336,33.7559 49.6184,50.5659 5.9334,5.9257 11.7775,11.9406 17.6566,17.9206 1.8483,-5.4364 4.4034,-10.9504 9.1758,-14.4335 5.4829,-4.1705 12.9036,-4.4617 19.3845,-2.9357 10.5077,2.5862 20.4562,8.372 26.9138,17.1828 4.7064,6.2596 8.5235,13.8356 8.1429,21.8658 -0.3805,7.8672 -6.345,14.4996 -13.3113,17.5672 -2.7842,0.8039 -5.6111,1.7513 -8.5428,1.5766 -6.2985,-0.2718 -12.2202,-2.9162 -17.5207,-6.1664 -4.6519,-2.9123 -9.0398,-6.2518 -13.1676,-9.867 -7.8672,-7.9215 -15.7499,-15.8276 -23.6559,-23.7103 -16.8761,-17.2488 -34.0744,-34.1986 -51.1057,-51.2921 -5.483,-0.2562 -11.0086,0.167 -16.4838,-0.1825 -7.5721,-7.0828 -14.7132,-14.6587 -22.2775,-21.7648 -12.1425,-11.9251 -24.3665,-23.7608 -36.3964,-35.7985 -8.1778,-8.8612 -14.7986,-19.0156 -21.2057,-29.1893 -9.3467,-15.1714 -17.7963,-30.8902 -25.3878,-47.009 -2.8502,-6.2363 -5.7159,-12.4881 -7.8206,-19.0195 m 66.0285,93.2258 c -0.8271,1.7357 -0.7339,3.9258 0.4388,5.4868 1.6969,2.5357 5.7237,2.959 7.8788,0.7806 2.2949,-1.961 2.2173,-5.9063 -0.07,-7.844 -2.4153,-2.2677 -6.8576,-1.46 -8.2477,1.5766 M -786.5669,97.775 c -3.5181,4.9781 -3.0677,11.6804 -0.8271,17.0896 3.7472,8.9816 11.494,16.014 20.3902,19.7689 5.5917,2.4464 11.8629,2.924 17.8429,1.9455 2.9978,-1.5144 6.0887,-3.2696 7.9526,-6.1742 2.5241,-3.8753 2.8192,-8.8147 1.7008,-13.2103 -1.8444,-7.1721 -6.5624,-13.3657 -12.3483,-17.8624 -5.747,-4.5199 -12.8375,-7.572 -20.1999,-7.8516 -5.4247,-0.1748 -11.2844,1.6852 -14.5112,6.2945 z"
       inkscape:connector-curvature="0"
       style="opacity:1;fill:#ffffff;stroke:none;stroke-width:6.37342358;stroke-miterlimit:4;stroke-dasharray:none;stroke-opacity:1" />
    <path
       id="path4168"
       d="m -874.4534,54.9792 c 4.6093,0.027 9.2185,-0.031 13.8278,0.012 1.0601,-0.066 1.6464,0.9708 2.3687,1.5688 19.6058,19.7534 39.4408,39.2777 59.0777,59 4.9316,4.6287 9.6845,9.4438 14.418,14.2782 5.8635,7.0362 11.6222,14.5811 14.2627,23.489 1.7163,5.7237 1.4134,12.2396 -1.7552,17.4196 -3.0016,4.8889 -7.6342,9.1797 -13.3851,10.3951 -5.5295,1.2504 -11.2843,-0.2019 -16.3246,-2.524 -5.347,-2.5201 -10.1582,-6.112 -14.3093,-10.3019 -5.6732,-6.2945 -9.6107,-14.1462 -11.4823,-22.4017 -1.2892,-5.9256 -1.0485,-12.5424 2.3454,-17.7613 3.4249,-5.351 9.3427,-8.372 15.2606,-10.1427 -21.4503,-20.9922 -42.823,-42.0697 -64.3044,-63.0308 m 54.9422,75.8256 c -3.1958,4.8889 -3.3744,11.1174 -2.0969,16.6586 2.1513,8.9933 7.8051,17.0702 15.3461,22.3823 4.9316,3.4326 11.0281,5.7703 17.1129,4.9043 4.7335,-0.5941 8.9816,-3.8637 10.8261,-8.2555 2.2367,-5.1412 1.8523,-11.0397 0.3068,-16.3129 -2.2561,-7.3818 -6.8032,-14.0258 -12.7793,-18.8914 -4.8112,-3.8171 -10.7369,-6.6673 -16.9887,-6.6052 -4.5821,0.039 -9.203,2.2134 -11.727,6.1198 z"
       inkscape:connector-curvature="0"
       style="opacity:1;fill:#ffffff;stroke:none;stroke-width:6.37342358;stroke-miterlimit:4;stroke-dasharray:none;stroke-opacity:1" />
  </g>
</svg>
