<?xml version="1.0" encoding="UTF-8" standalone="no"?>
<!-- Created with Inkscape (http://www.inkscape.org/) -->

<svg
   xmlns:dc="http://purl.org/dc/elements/1.1/"
   xmlns:cc="http://creativecommons.org/ns#"
   xmlns:rdf="http://www.w3.org/1999/02/22-rdf-syntax-ns#"
   xmlns:svg="http://www.w3.org/2000/svg"
   xmlns="http://www.w3.org/2000/svg"
   xmlns:sodipodi="http://sodipodi.sourceforge.net/DTD/sodipodi-0.dtd"
   xmlns:inkscape="http://www.inkscape.org/namespaces/inkscape"
   width="117.47762mm"
   height="117.47762mm"
   viewBox="0 0 416.2593 416.25929"
   id="svg5745"
   version="1.1"
   inkscape:version="0.92.2 (5c3e80d, 2017-08-06)"
   sodipodi:docname="Optometer.svg">
  <defs
     id="defs5747" />
  <sodipodi:namedview
     id="base"
     pagecolor="#ffffff"
     bordercolor="#666666"
     borderopacity="1.0"
     inkscape:pageopacity="0.0"
     inkscape:pageshadow="2"
     inkscape:zoom="0.7"
     inkscape:cx="543.41748"
     inkscape:cy="-11.064993"
     inkscape:document-units="px"
     inkscape:current-layer="layer1"
     showgrid="false"
     fit-margin-top="0"
     fit-margin-left="0"
     fit-margin-right="0"
     fit-margin-bottom="0"
     inkscape:window-width="1600"
     inkscape:window-height="837"
     inkscape:window-x="-8"
     inkscape:window-y="-8"
     inkscape:window-maximized="1" />
  <metadata
     id="metadata5750">
    <rdf:RDF>
      <cc:Work
         rdf:about="">
        <dc:format>image/svg+xml</dc:format>
        <dc:type
           rdf:resource="http://purl.org/dc/dcmitype/StillImage" />
        <dc:title />
      </cc:Work>
    </rdf:RDF>
  </metadata>
  <g
     inkscape:label="Layer 1"
     inkscape:groupmode="layer"
     id="layer1"
     transform="translate(1021.8081,236.55315)">
    <circle
       inkscape:export-ydpi="101.84"
       inkscape:export-xdpi="101.84"
       inkscape:export-filename="C:\Users\Nacer\Desktop\optoM.png"
       r="208.12964"
       cy="-28.423512"
       cx="-813.67853"
       id="circle4718"
       style="opacity:1;fill:#9f92b3;fill-opacity:1;stroke:none;stroke-width:7.67106342;stroke-linecap:round;stroke-miterlimit:4;stroke-dasharray:none;stroke-opacity:1" />
    <path
       id="path4740"
       d="m -868.8515,-113.93302 c 2.668,-0.1869 5.7799,-0.99992 8.0508,0.87843 2.0793,1.47652 2.4437,4.24265 2.425,6.60695 -0.033,2.81753 0.3084,6.02756 -1.598,8.37316 -1.7288,1.86434 -4.4716,1.9391 -6.8359,1.66809 -6.2612,-0.86441 -12.5737,-1.29428 -18.8302,-2.17272 -4.9856,-0.55603 -9.9525,-1.29896 -14.9615,-1.64006 -7.8545,14.76518 -15.8118,29.47429 -23.671,44.23946 2.2428,-0.85974 4.2988,-2.11198 6.4528,-3.15862 4.0043,-1.54661 7.9947,-3.23339 12.2841,-3.8268 5.7004,-1.58866 11.6672,-1.66809 17.5359,-1.28495 13.2607,1.21953 26.1241,6.78451 35.9224,15.83052 9.4011,8.5694 16.1669,20.11988 18.578,32.64225 1.6307,-0.25232 3.0791,-1.07935 4.5323,-1.80827 5.4014,-2.24281 11.2748,-3.48103 17.1341,-3.10255 6.1397,0.31773 12.0739,2.35962 17.4753,5.21921 0.9625,-2.35963 1.112,-4.95755 2.1166,-7.30783 3.9343,-11.72337 11.5131,-22.21318 21.4703,-29.55372 12.5457,-9.48055 28.8996,-13.71385 44.4731,-11.5972 5.9761,0.85974 11.7701,2.70072 17.2883,5.12109 1.8784,0.9859 3.7147,2.08394 5.7285,2.78482 -7.761,-14.8119 -15.7464,-29.50699 -23.6429,-44.24413 -10.3917,0.90647 -20.6993,2.53718 -31.0863,3.47636 -3.0606,0.32707 -6.6724,1.30363 -9.233,-0.99058 -2.3549,-2.44373 -1.6774,-6.06026 -1.7755,-9.13478 -0.089,-2.16338 0.3925,-4.56506 2.1307,-6.01821 2.4063,-1.8363 5.593,-1.29429 8.3871,-1.0046 8.4293,0.75695 16.8819,1.28495 25.2924,2.26151 2.1026,0.33175 4.266,0.19624 6.3266,0.78965 2.0092,0.45791 3.7053,1.71949 5.2286,3.04649 2.0559,2.15403 3.21,4.94353 4.7286,7.46669 15.737,28.03515 31.4414,56.09365 47.1738,84.1288 1.4671,2.98574 2.1306,6.28921 2.3222,9.59269 v 5.53694 c -0.6401,4.22396 -1.5887,8.78434 -4.7239,11.91961 -1.0046,1.09337 -2.4718,1.56529 -3.5698,2.51849 -0.8317,1.33634 -1.1168,2.925 -1.6448,4.3875 -6.135,16.95659 -20.3067,30.7966 -37.4129,36.49708 -9.8029,3.46702 -20.4936,3.96698 -30.7031,2.27552 -13.6858,-2.52316 -26.3951,-9.91977 -35.371,-20.54976 -4.7333,-5.56497 -8.49,-11.98035 -10.9197,-18.877 -1.7849,-4.56972 -2.5792,-9.45251 -3.3268,-14.27923 -0.1262,-1.41577 -1.528,-2.08394 -2.5279,-2.84089 -4.7426,-3.19134 -10.2094,-5.86402 -16.0501,-5.77057 -6.5555,-0.10747 -12.7326,2.90631 -17.8724,6.75647 -1.2382,0.78966 -1.0233,2.41102 -1.3083,3.66326 -1.5887,14.03159 -8.6956,27.20811 -19.0172,36.75874 -9.6067,8.80771 -22.0403,14.61099 -35.0626,15.79314 -8.3124,0.71022 -16.8445,0.10746 -24.7831,-2.57924 -17.7369,-5.54161 -32.5161,-19.7601 -38.6231,-37.32879 -0.4672,-1.38307 -0.827,-2.82221 -1.5606,-4.09313 -1.5279,-1.13075 -3.3035,-2.00919 -4.4015,-3.62588 -2.6633,-3.71933 -3.5418,-8.41989 -3.6212,-12.91486 v -3.71465 c 0.3504,-4.16322 1.4251,-8.3498 3.7614,-11.86354 16.1155,-28.76406 32.2497,-57.52812 48.3933,-86.27816 2.2475,-4.00902 6.7939,-6.30323 11.3356,-6.1724 9.1768,-1.03263 18.3863,-1.71482 27.5865,-2.4998 m -28.7033,65.33123 c -10.7701,1.2756 -21.0637,6.41537 -28.4183,14.40072 -8.0694,8.52735 -12.5877,20.23203 -12.6018,31.95072 0.243,9.29365 3.1493,18.55926 8.5554,26.14744 6.8546,9.81697 17.6622,16.751 29.4323,18.91905 7.9806,1.28494 16.3631,0.87843 23.97,-2.01386 12.1532,-4.32208 22.2926,-14.03626 27.1147,-26.01194 2.8455,-6.66769 3.8127,-14.04561 3.3268,-21.25064 -0.5981,-4.08378 -1.042,-8.27504 -2.7101,-12.09249 -3.0698,-8.47129 -8.7469,-15.952 -15.9847,-21.29269 -9.2516,-6.95739 -21.1992,-10.06929 -32.6843,-8.75631 m 157.9173,-0.0187 c -3.6072,0.36913 -7.1396,1.24289 -10.5412,2.48578 -14.4661,5.08838 -25.7877,17.90044 -29.3621,32.78243 -1.542,7.01346 -1.5326,14.35866 0,21.37212 1.1728,4.52768 2.9343,8.90116 5.3173,12.92888 5.8313,9.68147 15.2231,17.25096 26.0774,20.51238 6.9947,2.32224 14.5782,2.4998 21.816,1.37839 14.8726,-2.63063 28.0912,-13.0597 34.0767,-26.92775 4.0791,-9.08806 5.1211,-19.57788 2.682,-29.25468 -2.0138,-8.54137 -6.5415,-16.48466 -12.9055,-22.53091 -9.6394,-9.55064 -23.6944,-14.27923 -37.1606,-12.74664 z"
       inkscape:connector-curvature="0"
       style="opacity:1;fill:#ffffff;fill-opacity:1;stroke-width:0.4672524" />
    <ellipse
       style="opacity:1;fill:#8673a2;fill-opacity:1;stroke:none;stroke-width:1;stroke-linecap:round;stroke-miterlimit:4;stroke-dasharray:none;stroke-opacity:1"
       id="path4753"
       cx="-892.28619"
       cy="-2.5448503"
       rx="47.45171"
       ry="47.451706"
       inkscape:export-filename="C:\Users\Nacer\Desktop\optoM.png"
       inkscape:export-xdpi="101.84"
       inkscape:export-ydpi="101.84" />
    <ellipse
       ry="47.451706"
       rx="47.45171"
       cy="-3.2521257"
       cx="-733.8941"
       id="ellipse4755"
       style="opacity:1;fill:#8673a2;fill-opacity:1;stroke:none;stroke-width:1;stroke-linecap:round;stroke-miterlimit:4;stroke-dasharray:none;stroke-opacity:1"
       inkscape:export-filename="C:\Users\Nacer\Desktop\optoM.png"
       inkscape:export-xdpi="101.84"
       inkscape:export-ydpi="101.84" />
    <path
       style="fill:none;fill-rule:evenodd;stroke:#ffffff;stroke-width:3;stroke-linecap:butt;stroke-linejoin:miter;stroke-miterlimit:4;stroke-dasharray:none;stroke-opacity:1"
       d="m -710.8376,-24.34909 -39.598,35.7088"
       id="path4757"
       inkscape:connector-curvature="0"
       inkscape:export-filename="C:\Users\Nacer\Desktop\optoM.png"
       inkscape:export-xdpi="101.84"
       inkscape:export-ydpi="101.84" />
    <path
       inkscape:connector-curvature="0"
       id="path4759"
       d="m -707.3439,-15.85609 -26.9715,24.9005"
       style="fill:none;fill-rule:evenodd;stroke:#ffffff;stroke-width:2.06753778;stroke-linecap:butt;stroke-linejoin:miter;stroke-miterlimit:4;stroke-dasharray:none;stroke-opacity:1"
       inkscape:export-filename="C:\Users\Nacer\Desktop\optoM.png"
       inkscape:export-xdpi="101.84"
       inkscape:export-ydpi="101.84" />
    <path
       inkscape:connector-curvature="0"
       id="path4761"
       d="m -874.1793,-25.05619 -39.598,35.7088"
       style="fill:none;fill-rule:evenodd;stroke:#ffffff;stroke-width:3;stroke-linecap:butt;stroke-linejoin:miter;stroke-miterlimit:4;stroke-dasharray:none;stroke-opacity:1"
       inkscape:export-filename="C:\Users\Nacer\Desktop\optoM.png"
       inkscape:export-xdpi="101.84"
       inkscape:export-ydpi="101.84" />
    <path
       style="fill:none;fill-rule:evenodd;stroke:#ffffff;stroke-width:2.06753778;stroke-linecap:butt;stroke-linejoin:miter;stroke-miterlimit:4;stroke-dasharray:none;stroke-opacity:1"
       d="m -870.6855,-16.56319 -26.9716,24.9004"
       id="path4763"
       inkscape:connector-curvature="0"
       inkscape:export-filename="C:\Users\Nacer\Desktop\optoM.png"
       inkscape:export-xdpi="101.84"
       inkscape:export-ydpi="101.84" />
  </g>
</svg>
