<?xml version="1.0" encoding="UTF-8" standalone="no"?>
<!-- Created with Inkscape (http://www.inkscape.org/) -->

<svg
   xmlns:dc="http://purl.org/dc/elements/1.1/"
   xmlns:cc="http://creativecommons.org/ns#"
   xmlns:rdf="http://www.w3.org/1999/02/22-rdf-syntax-ns#"
   xmlns:svg="http://www.w3.org/2000/svg"
   xmlns="http://www.w3.org/2000/svg"
   xmlns:sodipodi="http://sodipodi.sourceforge.net/DTD/sodipodi-0.dtd"
   xmlns:inkscape="http://www.inkscape.org/namespaces/inkscape"
   width="117.48024mm"
   height="117.48024mm"
   viewBox="0 0 416.26857 416.26856"
   id="svg9139"
   version="1.1"
   inkscape:version="0.92.2 (5c3e80d, 2017-08-06)"
   sodipodi:docname="Allergy.svg">
  <defs
     id="defs9141" />
  <sodipodi:namedview
     id="base"
     pagecolor="#ffffff"
     bordercolor="#666666"
     borderopacity="1.0"
     inkscape:pageopacity="0.0"
     inkscape:pageshadow="2"
     inkscape:zoom="0.7"
     inkscape:cx="-285.43262"
     inkscape:cy="161.18249"
     inkscape:document-units="px"
     inkscape:current-layer="layer1"
     showgrid="false"
     fit-margin-top="0"
     fit-margin-left="0"
     fit-margin-right="0"
     fit-margin-bottom="0"
     inkscape:window-width="1600"
     inkscape:window-height="837"
     inkscape:window-x="-8"
     inkscape:window-y="-8"
     inkscape:window-maximized="1" />
  <metadata
     id="metadata9144">
    <rdf:RDF>
      <cc:Work
         rdf:about="">
        <dc:format>image/svg+xml</dc:format>
        <dc:type
           rdf:resource="http://purl.org/dc/dcmitype/StillImage" />
        <dc:title />
      </cc:Work>
    </rdf:RDF>
  </metadata>
  <g
     inkscape:label="Layer 1"
     inkscape:groupmode="layer"
     id="layer1"
     transform="translate(-29.437105,-307.90649)">
    <circle
       style="fill:#9f92b3;fill-opacity:1;stroke-width:1.0000205"
       r="208.13428"
       cy="516.04077"
       cx="237.57138"
       id="circle4187" />
    <path
       style="fill:#ffffff;stroke-width:1.0000205"
       id="path4192"
       d="m 339.729,475.5101 c 1.8989,-1.6776 4.9224,-2.9865 6.3235,0.037 0.8481,3.761 1.1615,7.6325 1.7146,11.4485 l 6.2498,-5.1436 c 4.2771,3.2816 2.9314,7.5588 -0.3318,11.0616 4.019,1.0139 8.1303,1.8251 12.0019,3.3554 1.4381,2.2491 0.5347,5.3095 -2.1385,5.9548 -5.7889,0.3872 -11.1906,-2.3414 -16.4814,-4.314 -9.1995,7.5587 -16.7216,17.3481 -27.0266,23.414 -0.8112,-0.8112 -2.4336,-2.3967 -3.2264,-3.1895 l 0.4425,-2.0833 c 7.4112,-8.5726 16.5554,-15.4677 24.6304,-23.414 -1.4196,-5.5676 -3.3554,-11.3381 -2.1571,-17.1271 z"
       inkscape:connector-curvature="0" />
    <path
       style="fill:#ffffff;stroke-width:1.0000205"
       id="path4194"
       d="m 326.4036,401.2296 c 1.9726,-2.4889 4.3694,-1.1246 6.2682,0.5899 -0.1291,3.89 -0.9771,7.6879 -1.5671,11.5225 3.171,-0.3318 8.4069,-3.5029 9.5684,1.4011 0.018,3.2079 -3.7241,4.4431 -5.4202,6.6739 3.5766,2.0648 7.3375,3.89 10.6376,6.4156 0.4609,2.5257 -0.4609,4.2772 -2.747,5.2911 -6.1391,-0.8665 -10.8956,-5.2358 -15.634,-8.8492 -10.6191,4.9409 -20.5746,11.412 -31.6541,15.2832 -3.0604,-1.1246 -3.89,-5.162 -0.9218,-6.8029 9.3839,-5.457 19.3947,-9.7895 28.9628,-14.8959 0.295,-5.5677 -0.2028,-11.5407 2.5074,-16.6295 z"
       inkscape:connector-curvature="0" />
    <path
       style="fill:#ffffff;stroke-width:1.0000205"
       id="path4196"
       d="m 273.3688,364.5462 c 1.2168,-3.0972 3.2079,-3.9084 5.9732,-2.4151 2.0464,3.0972 3.5029,6.5264 5.1805,9.808 1.4749,-1.8989 3.0051,-3.7425 4.609,-5.5308 2.0649,0.6452 3.9821,1.6591 5.8811,2.6731 -1.1615,2.2492 -2.3045,4.4984 -3.4475,6.7476 5.033,0.5162 11.5589,-3.2264 15.339,1.4933 -0.3319,0.9587 -0.9956,2.8576 -1.3274,3.8163 -5.5309,2.452 -11.7811,1.7146 -17.6613,1.8252 -5.2174,9.5314 -9.6051,19.5052 -15.1363,28.8523 -1.862,3.171 -5.8442,2.4705 -6.8951,-1.0693 4.056,-10.8772 10.4716,-20.6851 15.4313,-31.1757 -3.3369,-4.5906 -6.8766,-9.3102 -7.9459,-15.0258 z"
       inkscape:connector-curvature="0" />
    <path
       style="fill:#ffffff;stroke-width:1.0000205"
       id="path4198"
       d="m 204.7145,404.0099 c -0.4977,-2.2491 0.8665,-5.2726 3.4844,-4.9039 3.8163,1.3642 6.9504,4.0928 10.361,6.2129 1.0693,-2.9314 0.9587,-6.8766 4.3325,-8.2777 4.1112,0.7927 3.7056,5.328 4.775,8.4805 3.7055,-2.1016 6.6738,-6.8766 11.3937,-6.3235 1.1431,1.1799 1.7884,2.5995 1.9174,4.2403 -3.171,5.1252 -8.9783,7.5772 -14.085,10.3057 -0.2213,10.951 0.4609,21.9015 -0.2766,32.8158 0.3503,2.5441 -2.7654,3.7056 -4.7934,3.0788 -2.7285,-1.1799 -2.0833,-4.3509 -2.3229,-6.7291 -0.1291,-9.7895 0.092,-19.561 -0.018,-29.3318 -5.2359,-2.5995 -11.0063,-4.8855 -14.7673,-9.5683 z"
       inkscape:connector-curvature="0" />
    <path
       style="fill:#ffffff;stroke-width:1.0000205"
       id="path4200"
       d="m 190.8652,403.2582 c 1.5855,-1.9173 4.5537,-0.2949 5.6783,1.3642 0.3872,5.9917 -2.6916,11.375 -5.1251,16.6112 6.4157,9.2549 13.9563,17.7171 19.8002,27.341 0.4056,3.3001 -1.1431,4.8119 -4.6459,4.4984 -7.9091,-8.462 -13.9746,-18.4539 -21.1646,-27.5243 -5.7705,0.9955 -11.7435,2.5257 -17.6067,1.1246 -2.2491,-1.6409 -2.0648,-4.5537 -0.1105,-6.342 4.0559,-0.6821 8.1855,-0.7374 12.2787,-1.0324 -1.4011,-3.1157 -4.2587,-6.6554 -1.014,-9.642 3.4475,-0.5162 5.5676,2.5441 8.0012,4.3509 1.2168,-3.595 2.0279,-7.4112 3.9084,-10.7481 z"
       inkscape:connector-curvature="0" />
    <path
       style="fill:#ffffff;stroke-width:1.0000205"
       id="path4202"
       d="m 161.9024,442.8928 c -0.3872,-4.3325 -5.5861,-11.2275 0.1843,-13.7161 7.3007,1.4565 6.0286,11.5965 7.3007,17.3299 10.6006,4.5168 21.791,7.6694 32.0231,12.9609 1.1799,2.7839 0.3687,4.7381 -2.4336,5.8811 -11.1169,-3.042 -21.5518,-8.1487 -32.3921,-12.0202 -4.5721,3.9453 -8.923,9.5683 -15.339,10.1214 -0.6821,-0.5531 -2.0833,-1.6592 -2.7839,-2.2124 0.5531,-5.3095 6.5816,-6.9504 10.1399,-9.9923 -2.2861,-1.9727 -5.6967,-3.2816 -6.342,-6.5816 1.8068,-4.3141 6.2314,-2.0834 9.642,-1.7699 z"
       inkscape:connector-curvature="0" />
    <path
       style="fill:#8673a2;fill-opacity:1;stroke-width:1.0000205"
       id="path4204"
       d="m 204.0198,472.1631 c 0.129,-11.6147 12.6659,-20.6851 23.7454,-17.2012 11.0616,2.6917 17.2194,16.4814 11.7252,26.4743 -2.5257,5.7151 -8.4621,8.3884 -13.8641,10.656 -10.8587,43.6014 -42.0525,78.0584 -56.8938,119.997 -7.2822,19.7261 -10.6191,40.762 -10.785,61.7604 -4.904,0 -9.8264,0 -14.7309,-0.018 -0.074,-31.3045 7.7431,-62.3322 21.7182,-90.2996 15.2832,-31.7099 37.573,-60.3777 46.3485,-94.9816 -3.7979,-4.6827 -7.9828,-9.9555 -7.2639,-16.3891 z"
       inkscape:connector-curvature="0" />
    <path
       style="fill:#ffffff;stroke-width:1.0000205"
       id="path4206"
       d="m 154.5905,479.2814 c -3.3737,-3.0972 -13.3106,-9.0521 -5.1067,-12.6466 5.8258,1.8989 9.5499,7.0794 13.4587,11.4484 10.8219,-2.2307 21.4595,-5.5124 32.3921,-7.2084 3.7056,-0.8665 5.162,5.8073 1.438,6.5447 -10.5454,3.4659 -21.6065,5.1067 -32.3363,7.909 -1.309,5.7336 -2.3783,11.8539 -6.047,16.6658 -2.4889,0.8112 -4.4246,0.1106 -5.789,-2.0648 0.9034,-4.1481 2.5995,-8.0381 4.056,-12.002 -3.3,-0.3503 -7.9828,1.2352 -9.2734,-3.0235 0.7559,-3.4475 4.6644,-4.0006 7.2085,-5.623 z"
       inkscape:connector-curvature="0" />
    <path
       style="fill:#ffffff;stroke-width:1.0000205"
       id="path4208"
       d="m 282.9927,478.0855 c 3.9269,-4.4984 7.7985,-9.6605 13.7161,-11.5965 7.8353,4.4984 -2.6916,9.8632 -5.8995,13.4393 1.7883,0.4056 5.3833,1.2351 7.19,1.6592 -0.4794,1.8989 0.3687,4.5352 -1.438,5.8626 -2.4336,0.3687 -4.8671,0.5346 -7.3191,0.5162 1.1062,4.5168 7.5404,13.0156 0.092,14.7115 -5.9732,-3.4476 -6.1023,-11.4121 -7.8169,-17.3664 -10.6929,-2.7469 -21.6805,-4.4246 -32.1711,-7.8168 -4.2035,-0.6084 -2.3414,-7.78 1.4933,-6.6001 10.8404,1.7514 21.4038,4.9409 32.1518,7.19 z"
       inkscape:connector-curvature="0" />
    <path
       style="fill:#ffffff;stroke-width:1.0000205"
       id="path4210"
       d="m 199.7944,487.5841 c 2.5441,-2.7469 8.0196,2.3783 4.7934,4.7381 -7.5404,8.204 -16.4632,15.044 -24.5199,22.7317 1.6039,5.8074 3.9453,11.8539 2.5995,17.9381 -1.6224,1.7145 -5.3834,2.157 -6.2314,-0.5715 -0.9587,-3.6504 -1.2906,-7.4112 -1.8805,-11.1354 -2.1755,1.143 -4.3878,2.157 -6.6739,3.0604 -1.5117,-1.143 -2.9866,-2.3414 -4.3878,-3.595 1.862,-1.9542 3.7241,-3.9269 5.5861,-5.8995 -4.314,-1.0878 -8.8309,-1.6409 -12.8311,-3.6872 0.4424,-10.2135 13.2559,-3.3921 18.9517,-1.7145 8.3514,-7.1162 15.9836,-15.0623 24.5939,-21.8651 z"
       inkscape:connector-curvature="0" />
    <path
       style="fill:#ffffff;stroke-width:1.0000205"
       id="path4212"
       d="m 240.1122,490.8642 c 1.2906,-1.7699 2.6732,-3.466 4.1297,-5.1067 8.9967,7.6879 17.5884,15.855 26.4742,23.6714 4.7934,-1.7145 9.6605,-3.7056 14.8414,-3.7425 3.0604,-0.5346 4.3693,2.876 4.019,5.3649 -3.6504,2.3598 -8.1856,2.5072 -12.2787,3.6319 1.7883,2.8023 5.5676,5.5309 3.005,9.1074 -3.3554,1.2353 -6.1391,-1.2351 -8.9784,-2.5626 -0.6452,4.0744 -0.9033,8.2409 -2.1201,12.1865 -1.9173,1.0509 -4.148,1.5118 -5.8073,-0.3134 -1.7515,-6.047 0.9402,-12.2047 2.4335,-18.0303 -8.4436,-8.204 -18.0667,-15.2285 -25.718,-24.2067 z"
       inkscape:connector-curvature="0" />
    <path
       style="fill:#ffffff;stroke-width:1.0000205"
       id="path4214"
       d="m 228.4839,498.085 c -0.4609,-2.8391 3.005,-4.0744 5.2543,-3.3369 2.0279,1.7145 1.862,4.5168 2.1385,6.9135 0.5531,9.5683 0.8481,19.1361 1.3827,28.7042 5.4017,2.4705 11.3013,4.8487 14.8595,9.8817 -1.6592,8.7571 -9.642,0.848 -13.6432,-1.6961 -0.9402,3.1894 -0.2581,7.9275 -4.4984,8.7386 -3.3185,-1.4195 -3.3921,-5.3095 -4.5168,-8.2409 -3.3001,2.452 -6.4157,5.2543 -10.1582,7.061 -2.6548,-0.037 -4.443,-2.6732 -3.4475,-5.1436 3.5029,-4.738 9.0705,-7.2454 14.0486,-10.066 -0.3318,-10.951 -1.5118,-21.8651 -1.4195,-32.8158 z"
       inkscape:connector-curvature="0" />
  </g>
</svg>
