<?xml version="1.0" encoding="UTF-8" standalone="no"?>
<!-- Created with Inkscape (http://www.inkscape.org/) -->

<svg
   xmlns:dc="http://purl.org/dc/elements/1.1/"
   xmlns:cc="http://creativecommons.org/ns#"
   xmlns:rdf="http://www.w3.org/1999/02/22-rdf-syntax-ns#"
   xmlns:svg="http://www.w3.org/2000/svg"
   xmlns="http://www.w3.org/2000/svg"
   xmlns:sodipodi="http://sodipodi.sourceforge.net/DTD/sodipodi-0.dtd"
   xmlns:inkscape="http://www.inkscape.org/namespaces/inkscape"
   width="117.47532mm"
   height="117.47532mm"
   viewBox="0 0 416.25113 416.25112"
   id="svg6041"
   version="1.1"
   inkscape:version="0.92.2 (5c3e80d, 2017-08-06)"
   sodipodi:docname="Infection.svg">
  <defs
     id="defs6043" />
  <sodipodi:namedview
     id="base"
     pagecolor="#ffffff"
     bordercolor="#666666"
     borderopacity="1.0"
     inkscape:pageopacity="0.0"
     inkscape:pageshadow="2"
     inkscape:zoom="0.35"
     inkscape:cx="1341.2149"
     inkscape:cy="-412.35655"
     inkscape:document-units="px"
     inkscape:current-layer="layer1"
     showgrid="false"
     fit-margin-top="0"
     fit-margin-left="0"
     fit-margin-right="0"
     fit-margin-bottom="0"
     inkscape:window-width="1600"
     inkscape:window-height="837"
     inkscape:window-x="-8"
     inkscape:window-y="-8"
     inkscape:window-maximized="1" />
  <metadata
     id="metadata6046">
    <rdf:RDF>
      <cc:Work
         rdf:about="">
        <dc:format>image/svg+xml</dc:format>
        <dc:type
           rdf:resource="http://purl.org/dc/dcmitype/StillImage" />
        <dc:title />
      </cc:Work>
    </rdf:RDF>
  </metadata>
  <g
     inkscape:label="Layer 1"
     inkscape:groupmode="layer"
     id="layer1"
     transform="translate(1353.7684,262.26335)">
    <circle
       style="fill:#9f92b3;fill-opacity:1;stroke-width:0.99997866"
       id="circle4440"
       cy="-54.137791"
       cx="-1145.6428"
       r="208.12556" />
    <g
       id="g3640"
       transform="translate(-6262.1404,-1882.6738)">
      <path
         sodipodi:nodetypes="ccccccccsccccccccc"
         d="m 5086.4388,1883.3172 c -5.0399,-4.2068 -4.4301,-13.4877 -6.2292,-20.248 -1.2112,-4.5517 -6.5556,-16.9331 -5.3296,-21.641 2.9247,-11.2287 17.6973,-17.4161 28.9601,-20.896 -2.5995,-7.8134 6.8792,-7.3663 10.4787,-7.6067 7.574,-0.5058 3.1636,-7.7158 6.9385,-11.4917 6.8937,-6.8936 8.1646,-2.9854 1.3999,-11.8452 -2.9621,-3.8793 3.2084,-7.6799 4.7749,-11.2212 1.4305,-3.2339 3.8866,-4.8395 7.4026,-4.8395 3.0319,0 8.7057,-0.1713 11.394,2.9694 8.8078,10.2897 13.272,31.5437 7.0978,44.2604 -2.3284,4.7955 -11.3206,10.523 -16.1623,13.2299 -5.8843,3.2907 -10.9406,7.6947 -19.0046,8.3068 -8.4717,0.6431 -3.9826,4.4301 -7.9036,8.0443 -7.2593,6.6915 -12.3303,6.302 -5.8675,13.9829 2.5889,4.236 4.4413,10.7097 4.9705,11.9762 3.0492,7.2977 -16.8758,12.0651 -22.9202,7.0194 z"
         id="path7456"
         inkscape:connector-curvature="0"
         style="opacity:1;fill:#9888b1;fill-opacity:1;stroke-width:0.99997866" />
      <path
         style="fill:#ffffff;stroke-width:1.46206868"
         inkscape:connector-curvature="0"
         id="path4445-6"
         d="m 5114.0703,1682.3295 h 4.781 c 9.5035,1.2428 17.691,9.2841 18.3197,18.963 0.8773,7.4566 -3.1288,14.4599 -8.7578,19.0654 -0.029,10.0152 -0.015,20.045 0,30.0601 12.3984,1.9738 24.1827,6.9156 34.4318,14.1236 7.1933,-7.2665 14.5183,-14.3867 21.5947,-21.7556 -0.6872,-7.6612 2.3832,-15.7611 8.9625,-20.0742 8.5239,-6.1553 21.507,-4.2546 27.9255,4.0646 6.7255,7.9536 5.9214,20.8783 -1.696,27.9694 -4.6786,4.7663 -11.5796,6.3307 -18.0565,5.6874 -7.2811,6.9741 -14.3137,14.1821 -21.434,21.317 7.325,10.1614 12.2668,21.931 14.3429,34.2855 10.1614,0.044 20.3228,0.015 30.4695,0.015 4.4447,-4.8394 10.4685,-8.6554 17.2817,-8.3045 10.2491,-0.073 19.1531,8.363 20.469,18.3782 v 4.7371 c -1.2574,9.5034 -9.2988,17.7202 -19.0069,18.3197 -7.4566,0.8919 -14.4599,-3.0996 -19.0508,-8.7139 -10.0152,-0.044 -20.0303,-0.029 -30.0455,-0.015 -1.9884,12.3838 -6.9302,24.168 -14.1382,34.4171 7.2519,7.1934 14.3721,14.5184 21.741,21.6094 7.6758,-0.6872 15.7903,2.3832 20.0888,8.9917 6.1407,8.5093 4.2546,21.4486 -4.0353,27.8817 -7.9244,6.7109 -20.7906,5.9652 -27.9109,-1.5937 -4.8249,-4.6786 -6.4477,-11.638 -5.7752,-18.1442 -6.9448,-7.2958 -14.1967,-14.3137 -21.3023,-21.434 -10.1614,7.2811 -21.9165,12.2668 -34.2709,14.3283 -0.088,10.176 -0.044,20.352 -0.029,30.528 7.1057,5.8921 10.5562,16.1266 6.7255,24.8259 -2.7633,7.0032 -9.5326,11.7111 -16.8576,12.8808 h -4.6201 c -9.5327,-1.2427 -17.7934,-9.2695 -18.4075,-19.0068 -0.8919,-7.4712 3.1142,-14.4745 8.7432,-19.08 0.029,-10.0152 0.029,-20.0304 0,-30.0455 -12.3106,-2.0177 -24.1388,-6.7694 -34.2563,-14.0944 -7.4127,6.9887 -14.4599,14.3721 -21.7117,21.5363 0.5263,7.7197 -2.3247,15.9658 -9.0648,20.2789 -8.7432,6.3161 -22.1065,4.1084 -28.3642,-4.6786 -6.4623,-8.2607 -5.1318,-21.2293 2.8803,-28.0133 4.6348,-4.3423 11.2141,-5.6143 17.384,-5.0441 7.2519,-6.9741 14.2844,-14.1675 21.4047,-21.2877 -7.2957,-10.1614 -12.2814,-21.9165 -14.3283,-34.2709 -10.1467,-0.1024 -20.2935,0 -30.4256,-0.059 -4.5032,4.8102 -10.5416,8.6847 -17.384,8.3192 -10.2199,0.044 -19.1239,-8.3777 -20.3959,-18.3782 v -4.7664 c 1.2428,-9.5327 9.3134,-17.7495 19.0361,-18.3343 7.4712,-0.8627 14.416,3.1873 19.0362,8.787 10.0151,0.015 20.0157,0.015 30.0162,-0.015 1.8861,-12.4715 7.1349,-24.1242 14.0359,-34.6072 -7.2372,-7.0472 -14.2844,-14.2552 -21.4632,-21.3608 -11.2433,1.3743 -22.779,-6.8571 -23.7878,-18.3928 -1.8422,-12.2668 9.328,-24.1973 21.6825,-23.13 12.179,0.2193 21.5947,12.4861 19.5478,24.3435 6.9741,7.2665 14.1821,14.299 21.3024,21.4193 10.0151,-7.3104 21.6824,-11.989 33.803,-14.3575 1.2427,-9.8982 0.1608,-20.352 0.5117,-30.4695 -5.2196,-4.7079 -9.0794,-11.4188 -8.2314,-18.6707 0.5848,-9.7081 8.787,-17.7641 18.2904,-19.0361 m 18.6853,92.432 c -5.2196,1.8276 -7.3981,9.211 -3.6113,13.3925 3.4943,3.8745 6.2723,8.7432 5.9214,14.1382 -0.029,9.5912 -8.8748,18.0858 -18.5098,17.4718 -13.2318,-0.5556 -26.3758,6.8863 -32.5749,18.6121 -7.7051,13.7581 -4.6933,32.7503 7.4419,42.9848 4.971,3.7429 12.8808,0.1462 13.5095,-5.9798 1.1258,-5.5267 -4.5616,-8.4947 -6.3015,-13.0563 -3.7721,-8.2899 0.015,-18.963 8.1583,-23.013 4.2108,-2.4855 9.2403,-1.9153 13.9336,-2.2516 9.8543,-0.8918 19.1092,-6.3307 24.9282,-14.299 9.8836,-12.9539 8.904,-32.6626 -2.1492,-44.6077 -2.4417,-3.2312 -6.8571,-5.0588 -10.7462,-3.392 z" />
    </g>
  </g>
</svg>
