<?xml version="1.0" encoding="UTF-8" standalone="no"?>
<!-- Created with Inkscape (http://www.inkscape.org/) -->

<svg
   xmlns:dc="http://purl.org/dc/elements/1.1/"
   xmlns:cc="http://creativecommons.org/ns#"
   xmlns:rdf="http://www.w3.org/1999/02/22-rdf-syntax-ns#"
   xmlns:svg="http://www.w3.org/2000/svg"
   xmlns="http://www.w3.org/2000/svg"
   xmlns:sodipodi="http://sodipodi.sourceforge.net/DTD/sodipodi-0.dtd"
   xmlns:inkscape="http://www.inkscape.org/namespaces/inkscape"
   width="117.47761mm"
   height="117.47761mm"
   viewBox="0 0 416.25924 416.25923"
   id="svg7982"
   version="1.1"
   inkscape:version="0.92.2 (5c3e80d, 2017-08-06)"
   sodipodi:docname="Infertility.svg">
  <defs
     id="defs7984" />
  <sodipodi:namedview
     id="base"
     pagecolor="#ffffff"
     bordercolor="#666666"
     borderopacity="1.0"
     inkscape:pageopacity="0.0"
     inkscape:pageshadow="2"
     inkscape:zoom="0.49497475"
     inkscape:cx="375.46036"
     inkscape:cy="318.0656"
     inkscape:document-units="px"
     inkscape:current-layer="layer1"
     showgrid="false"
     fit-margin-top="0"
     fit-margin-left="0"
     fit-margin-right="0"
     fit-margin-bottom="0"
     inkscape:window-width="1600"
     inkscape:window-height="837"
     inkscape:window-x="-8"
     inkscape:window-y="-8"
     inkscape:window-maximized="1" />
  <metadata
     id="metadata7987">
    <rdf:RDF>
      <cc:Work
         rdf:about="">
        <dc:format>image/svg+xml</dc:format>
        <dc:type
           rdf:resource="http://purl.org/dc/dcmitype/StillImage" />
        <dc:title />
      </cc:Work>
    </rdf:RDF>
  </metadata>
  <g
     inkscape:label="Layer 1"
     inkscape:groupmode="layer"
     id="layer1"
     transform="translate(-182.29893,-130.41117)">
    <circle
       r="208.12961"
       style="opacity:1;fill:#9f92b3;fill-opacity:1;stroke:none;stroke-width:7.67106342;stroke-linecap:round;stroke-miterlimit:4;stroke-dasharray:none;stroke-opacity:1"
       id="circle5697"
       cx="390.42853"
       cy="338.54077"
       inkscape:export-filename="C:\Users\nacer\Documents\Projects\VS\ShadaDocStandPanel\ShadaDocStandPanel\bin\Debug\Images-color\تولید مثل.png"
       inkscape:export-xdpi="99.992851"
       inkscape:export-ydpi="99.992851" />
    <path
       id="path5674"
       d="m 406.4445,232.87895 c 4.3,-1.8499 7.7111,-5.9233 12.7071,-6.0308 5.5159,-0.5374 9.889,3.2927 13.7929,6.6079 2.4661,2.4157 5.928,0.792 8.825,0.3394 4.266,-1.0296 9.046,-0.09 12.254,3.0154 3.389,2.8683 4.26,7.5753 7.27,10.7151 3.451,1.6237 7.5691,1.1994 10.9301,3.1512 4.017,1.9801 6.432,6.2854 6.924,10.6302 0.425,2.5968 0.187,5.3519 1.234,7.8073 1.448,2.0253 3.892,2.9701 5.833,4.4353 3.6369,2.3988 6.183,6.557 6.042,10.9924 0.124,4.1299 -2.144,7.8241 -2.473,11.8805 0.385,2.1102 1.986,3.7113 3.095,5.4764 2.359,3.2586 3.756,7.479 2.659,11.4732 -0.809,3.5641 -3.281,6.3645 -5.567,9.0857 -0.979,1.3069 -2.336,2.7099 -2.025,4.4864 0.407,3.417 1.72,6.7662 1.278,10.2625 -0.317,3.6603 -2.478,6.9812 -5.414,9.1197 -2.416,1.8443 -5.374,2.7947 -7.818,4.5938 -1.234,0.809 -1.443,2.3704 -1.737,3.6943 -0.606,3.1568 -1.041,6.4947 -2.914,9.2046 -1.929,2.9361 -5.165,4.8257 -8.576,5.4989 -2.948,0.6846 -6.065,0.3621 -8.956,1.3409 -1.771,1.0126 -2.614,3.0267 -3.757,4.6334 -1.957,3.2416 -4.904,6.1382 -8.712,6.9925 -3.423,0.8939 -6.964,0.1075 -10.228,-1.0183 -2.246,-0.6563 -4.9,-1.8104 -7.016,-0.1811 -3.7,2.444 -7.513,5.5443 -12.237,5.2218 -5.21,-0.04 -9.068,-3.8866 -12.876,-6.9077 -2.331,-2.0593 -5.454,-0.5091 -8.107,-0.1301 -4.186,1.024 -8.825,0.3225 -12.158,-2.5232 2.671,-2.2573 5.154,-4.7465 7.293,-7.5187 3.411,0.051 6.585,-1.5671 10.002,-1.4596 4.158,-0.068 8.073,1.8726 11.1,4.6221 1.663,1.2616 3.151,3.1342 5.329,3.4341 3.344,-1.1485 5.697,-4.1752 9.114,-5.2331 4.153,-1.6803 8.763,-0.8034 12.831,0.6845 1.579,0.413 3.304,1.2899 4.922,0.6393 2.059,-1.7821 2.982,-4.4863 4.7299,-6.54 2.8231,-3.6942 7.428,-5.6347 11.999,-5.8497 2.11,-0.3168 4.532,0.01 6.365,-1.2673 1.301,-2.031 1.08,-4.6277 1.731,-6.8907 0.922,-4.7918 4.367,-8.7972 8.701,-10.9131 1.991,-1.1937 4.571,-1.85 5.867,-3.9092 0.322,-2.4836 -0.826,-4.8484 -1.132,-7.2811 -0.843,-4.5486 0.7071,-9.2725 3.655,-12.7631 1.425,-1.9292 3.53,-3.5359 4.152,-5.9403 -0.447,-2.6533 -2.744,-4.4806 -3.966,-6.7888 -2.602,-4.1922 -2.698,-9.5384 -0.967,-14.0813 0.526,-2.0253 1.776,-4.1752 1.075,-6.2797 -1.641,-1.8783 -4.068,-2.7891 -6.003,-4.3166 -3.445,-2.3874 -5.612,-6.3363 -6.2,-10.4492 -0.317,-2.1611 -0.272,-4.3675 -0.6899,-6.5117 -0.181,-0.9221 -0.583,-1.9518 -1.562,-2.2629 -2.133,-0.7921 -4.441,-0.8373 -6.63,-1.4087 -3.9041,-0.8769 -7.327,-3.485 -9.414,-6.8738 -1.341,-2.1102 -2.201,-4.4976 -3.677,-6.5229 -0.476,-0.6902 -1.234,-1.2899 -2.122,-1.1428 -2.874,0.2093 -5.589,1.3973 -8.486,1.4369 -4.317,0.1981 -8.458,-1.7764 -11.586,-4.6503 -1.664,-1.2729 -3.185,-3.1965 -5.381,-3.3888 -3.298,1.2163 -5.668,4.1695 -9.074,5.2444 -4.26,1.6746 -8.922,0.7185 -13.063,-0.8203 -1.51,-0.3508 -3.242,-1.2333 -4.746,-0.4583 -1.986,1.8556 -2.931,4.5259 -4.679,6.5796 -2.4841,3.1738 -6.3361,5.0747 -10.302,5.5612 -2.246,0.3338 -4.56,0.2489 -6.767,0.8373 -0.775,0.181 -1.533,0.6562 -1.708,1.4879 -0.854,2.5402 -0.86,5.284 -1.76,7.8128 -1.04,3.2644 -3.32,6.0535 -6.172,7.9147 -2.076,1.4087 -4.463,2.263 -6.54,3.6604 -0.656,0.4865 -1.459,1.0975 -1.437,2.0027 0.05,2.7269 1.228,5.284 1.369,8.0109 0.413,4.0507 -1.074,8.1183 -3.603,11.2469 -1.42,1.8952 -3.299,3.4849 -4.255,5.6857 -0.413,1.7537 1.171,3.1455 2.003,4.5259 2.806,3.4736 4.588,7.9882 3.887,12.4972 -0.345,3.2982 -2.116,6.274 -2.371,9.5836 -0.06,1.2559 1.211,1.8613 1.9799,2.625 -2.9979,1.9745 -5.7479,4.2996 -8.22,6.902 -2.614,-2.4779 -4.35,-5.9515 -4.266,-9.6006 -0.1,-3.9262 1.9071,-7.4621 2.433,-11.2808 0.221,-1.1654 -0.464,-2.2064 -1.024,-3.1625 -1.386,-2.1951 -3.128,-4.1978 -4.073,-6.6474 -1.415,-3.3549 -1.273,-7.3037 0.396,-10.5454 1.442,-3.089 4.079,-5.3632 5.934,-8.1806 1.42,-1.9744 0.244,-4.458 -0.08,-6.5965 -1.097,-4.1809 -0.842,-8.95 1.896,-12.4633 2.529,-3.5868 6.868,-4.9445 10.404,-7.2414 1.85,-1.0353 1.991,-3.3379 2.37,-5.1935 0.521,-3.6491 1.601,-7.4791 4.407,-10.0532 2.965,-2.9079 7.236,-3.8357 11.253,-4.0055 2.048,-0.2772 4.616,-0.09 5.957,-1.9744 1.997,-2.5402 3.349,-5.6121 5.861,-7.728 3.321,-2.9984 8.215,-3.7565 12.452,-2.5628 2.744,0.594 5.363,2.031 8.22,1.8952 z"
       inkscape:connector-curvature="0"
       style="opacity:1;fill:#ffffff;fill-opacity:1" />
    <path
       id="path5676"
       d="m 300.4535,269.47105 c 6.8681,-2.3479 14.681,-2.031 21.227,1.1767 3.982,2.0254 7.614,5.3462 8.78,9.793 1.188,4.1185 -0.357,8.6275 -3.276,11.6485 -4.26,4.4807 -10.54,6.5909 -16.616,6.7606 -7.733,0.2829 -16.202,-2.6363 -20.479,-9.4365 -2.156,0.3507 -3.689,1.9461 -5.318,3.2417 -4.13,3.2134 -9.261,6.1835 -14.693,5.1878 -5.708,-1.2333 -9.357,-6.3759 -11.954,-11.2186 -1.188,-2.3422 -2.183,-5.6065 -5.272,-5.9007 -4.238,-0.062 -7.259,3.4171 -10.393,5.7762 -3.004,2.2913 -6.913,4.7466 -10.811,3.287 -2.688,-1.2729 -4.86,-3.4567 -6.71,-5.7479 3.14,1.42 5.81,5.1199 9.612,4.1185 5.952,-2.7494 8.712,-9.6911 14.862,-12.1916 3.343,-1.4879 7.445,-0.5714 10.064,1.9065 3.361,3.0776 5.267,7.6035 9.2961,9.974 1.804,1.024 4.033,2.1781 6.093,1.1598 2.9579,-1.4314 4.707,-4.3789 7.247,-6.3533 2.093,-1.6972 4.633,-2.6816 7.151,-3.5698 2.087,-4.673 6.438,-7.9713 11.1899,-9.6119 z"
       inkscape:connector-curvature="0"
       style="opacity:1;fill:#8673a2;fill-opacity:1" />
    <path
       id="path5678"
       d="m 424.4975,393.34535 c 3.9261,-1.7255 8.69,-0.9674 12.056,1.635 4.888,3.7056 7.519,9.7533 8.198,15.7332 0.995,8.1523 -1.545,17.4474 -8.594,22.2788 0.622,2.5685 2.863,4.1695 4.35,6.2175 3.016,3.8018 5.641,8.5766 4.8321,13.5947 -1.098,5.533 -5.856,9.2895 -10.455,12.0107 -2.003,1.2955 -4.7471,1.9744 -5.748,4.3732 -0.973,2.5118 0.605,5.0633 2.076,7.0208 2.886,3.7282 6.959,7.0152 7.757,11.9258 0.628,4.277 -2.982,7.4734 -5.76,10.1493 1.0749,-2.7325 3.502,-4.8427 3.9719,-7.8185 0.311,-2.1215 -1.233,-3.847 -2.546,-5.301 -3.44,-3.6886 -8.158,-6.3193 -10.393,-11.0206 -1.793,-3.4962 -0.735,-7.9147 1.93,-10.6642 3.1171,-3.3095 7.513,-5.5046 9.5551,-9.7476 0.7979,-1.6464 1.522,-3.6151 0.6729,-5.3915 -1.358,-2.8287 -4.237,-4.4241 -6.274,-6.6984 -1.9799,-2.1328 -3.236,-4.7975 -4.226,-7.5074 -4.6729,-1.8047 -8.033,-5.9515 -9.895,-10.4944 -2.693,-6.6927 -2.715,-14.4434 0.05,-21.1134 1.664,-3.8754 4.515,-7.4395 8.441,-9.182 z"
       inkscape:connector-curvature="0"
       style="opacity:1;fill:#8673a2;fill-opacity:1" />
    <path
       id="path5681"
       d="m 361.689,331.77585 c 5.5443,-2.0989 11.9484,-2.823 17.5379,-0.4695 4.492,1.816 7.9826,5.8271 9.2725,10.4888 1.6916,5.8441 0.5318,12.1521 -1.9575,17.5945 -3.7791,8.1862 -10.5623,14.9581 -18.7542,18.726 -5.3067,2.427 -11.394,3.5189 -17.1306,2.0762 -0.9731,1.3182 -1.6011,2.8627 -1.6916,4.5146 -0.5205,6.3986 -1.5388,13.0573 -5.1143,18.5337 -2.4666,3.847 -6.6361,6.489 -11.162,7.1283 -6.8511,1.0127 -13.7079,-0.9222 -20.0951,-3.2587 -2.4836,-0.9844 -5.6743,-0.6336 -7.4394,1.5275 -2.2517,2.7552 -2.7835,6.4551 -3.2021,9.8778 -0.4413,4.7409 -0.7468,9.6742 -2.9645,13.9851 -1.2899,2.5798 -3.6094,4.7353 -6.4834,5.3632 -3.4906,0.7185 -7.117,0.8034 -10.6472,0.3451 3.6207,-1.1201 7.5979,-1.0126 11.0149,-2.7834 1.8896,-0.9505 2.9589,-2.9475 3.287,-4.9729 1.4709,-7.7789 -1.2163,-15.9934 1.6859,-23.5574 1.6293,-4.6164 6.2288,-7.7845 11.0432,-8.1409 6.4381,-0.5545 12.8423,2.2742 19.2522,0.6845 2.806,-0.7015 6.1382,-1.7877 7.2244,-4.7805 1.6859,-4.8654 0.011,-10.1041 1.1655,-15.0543 0.5883,-3.0494 1.8895,-5.895 3.2699,-8.6558 -2.6024,-6.3703 -1.5331,-13.657 1.3012,-19.7557 4.1186,-8.7237 11.5864,-15.8859 20.5873,-19.4162 z"
       inkscape:connector-curvature="0"
       style="opacity:1;fill:#ffffff;fill-opacity:1;stroke-width:0.56573957" />
  </g>
</svg>
