<?xml version="1.0" encoding="UTF-8" standalone="no"?>
<!-- Created with Inkscape (http://www.inkscape.org/) -->

<svg
   xmlns:dc="http://purl.org/dc/elements/1.1/"
   xmlns:cc="http://creativecommons.org/ns#"
   xmlns:rdf="http://www.w3.org/1999/02/22-rdf-syntax-ns#"
   xmlns:svg="http://www.w3.org/2000/svg"
   xmlns="http://www.w3.org/2000/svg"
   xmlns:sodipodi="http://sodipodi.sourceforge.net/DTD/sodipodi-0.dtd"
   xmlns:inkscape="http://www.inkscape.org/namespaces/inkscape"
   width="117.47762mm"
   height="117.47763mm"
   viewBox="0 0 416.25927 416.25931"
   id="svg4388"
   version="1.1"
   inkscape:version="0.92.2 (5c3e80d, 2017-08-06)"
   sodipodi:docname="Dermatologist.svg">
  <defs
     id="defs4390" />
  <sodipodi:namedview
     id="base"
     pagecolor="#ffffff"
     bordercolor="#666666"
     borderopacity="1.0"
     inkscape:pageopacity="0.0"
     inkscape:pageshadow="2"
     inkscape:zoom="0.35"
     inkscape:cx="-217.35227"
     inkscape:cy="227.64783"
     inkscape:document-units="px"
     inkscape:current-layer="layer1"
     showgrid="false"
     fit-margin-top="0"
     fit-margin-left="0"
     fit-margin-right="0"
     fit-margin-bottom="0"
     inkscape:window-width="1600"
     inkscape:window-height="837"
     inkscape:window-x="-8"
     inkscape:window-y="-8"
     inkscape:window-maximized="1" />
  <metadata
     id="metadata4393">
    <rdf:RDF>
      <cc:Work
         rdf:about="">
        <dc:format>image/svg+xml</dc:format>
        <dc:type
           rdf:resource="http://purl.org/dc/dcmitype/StillImage" />
        <dc:title />
      </cc:Work>
    </rdf:RDF>
  </metadata>
  <g
     inkscape:label="Layer 1"
     inkscape:groupmode="layer"
     id="layer1"
     transform="translate(377.34388,-334.51826)">
    <ellipse
       style="opacity:1;fill:#9f92b3;fill-opacity:1;stroke:none;stroke-width:7.67106342;stroke-linecap:round;stroke-miterlimit:4;stroke-dasharray:none;stroke-opacity:1"
       id="circle4665"
       cx="-169.21425"
       cy="542.64789"
       inkscape:export-filename="C:\Users\Nacer\Desktop\Mono\Dermatologist.png"
       inkscape:export-xdpi="101.84"
       inkscape:export-ydpi="101.84"
       rx="208.12962"
       ry="208.12965" />
    <ellipse
       style="opacity:1;fill:#c5b4e0;fill-opacity:1;stroke:none;stroke-width:1;stroke-linecap:round;stroke-miterlimit:4;stroke-dasharray:none;stroke-opacity:1"
       id="path4643"
       cx="-169.47182"
       cy="557.54047"
       rx="114.46911"
       ry="141.66953"
       inkscape:export-filename="C:\Users\Nacer\Desktop\Mono\Dermatologist.png"
       inkscape:export-xdpi="101.84"
       inkscape:export-ydpi="101.84" />
    <path
       sodipodi:nodetypes="ccccccccccccccccccccccccccccccccccccccccccccccccccccccccc"
       style="opacity:1;fill:#ffffff;fill-opacity:1"
       inkscape:connector-curvature="0"
       d="m -193.6999,388.40718 c 26.3112,-5.0491 54.2373,-1.8448 78.5697,9.4534 16.8068,7.7554 31.4369,19.928 42.5627,34.6858 14.3811,18.894 23.4643,41.2158 30.1793,63.8312 8.9619,30.5176 14.7642,62.1141 15.1982,93.985 v 7.9342 c -0.351,15.479 -1.7872,30.9326 -4.5448,46.1691 -1.551,8.9874 -3.8809,17.9748 -8.3491,25.9984 -3.466,6.2682 -8.4257,11.8853 -14.8088,15.2748 -5.0107,2.732 -10.7109,3.7533 -16.3089,4.449 -11.4768,1.3788 -23.0941,1.0532 -34.5901,0.096 -1.6723,0.013 -2.5596,-1.5958 -3.3766,-2.7958 -1.1873,-2.0554 -2.3937,-4.0916 -3.7916,-6.0066 0.1021,-0.2617 -3.4499,1.6256 -3.3541,1.3639 14.1513,-12.479 28.5929,-30.9751 35.7037,-48.3883 3.3384,-7.9661 5.6491,-16.3088 7.7683,-24.6643 3.6511,1.0276 8.6555,0.7021 10.596,-3.032 4.5001,-16.7174 5.1001,-34.5008 1.6085,-51.4735 -1.4936,-0.1978 -2.9937,-0.3574 -4.4873,-0.4978 0.1851,-4.1554 0.2234,-8.3109 0.2489,-12.4663 0.2873,-4.1618 -1.9022,-7.9023 -3.3767,-11.6555 -0.5489,9.3895 -1.1298,18.8429 -3.3447,28.0091 -1.3979,5.7895 -3.5299,11.547 -7.2895,16.245 -2.4065,3.0958 -5.4257,5.6235 -8.3938,8.1512 3.3894,-5.1001 4.9086,-11.1832 5.4831,-17.2152 2.4319,-25.9729 -9.0513,-52.8203 -29.5921,-68.9249 -8.413,-6.5938 -17.3047,-13.3216 -22.4878,-22.909 -2.4064,-4.6852 -3.8171,-9.8683 -6.8873,-14.2088 -4.3214,4.2448 -10.2003,6.2044 -15.76,8.2533 -13.9917,4.8257 -28.3665,8.5151 -42.2051,13.8131 -9.9641,3.8809 -19.9089,8.2981 -28.3027,15.0322 -15.5429,12.179 -25.9283,30.4922 -28.9602,49.9543 -1.4682,9.2172 -1.5192,18.8238 1.0085,27.8687 0.7915,2.9809 2.183,5.7448 3.8235,8.3427 -3.5426,-3.0639 -7.1938,-6.1341 -9.7853,-10.0853 -2.8852,-4.1873 -4.5831,-9.0449 -5.8342,-13.928 -2.2213,-9.3065 -2.9107,-18.8748 -3.415,-28.3984 -1.0021,2.349 -2.1447,4.6788 -2.6745,7.1874 -0.4404,5.6618 0.013,11.3428 0,17.011 -1.6596,0.051 -3.3128,0.2042 -4.9533,0.4468 -3.415,16.7429 -2.8915,34.2645 1.4426,50.7904 0.2936,1.8639 2.0745,2.8852 3.6256,3.6129 2.4447,1.0787 5.1512,0.4532 7.6342,-0.096 3.6767,15.5621 9.2236,30.7858 17.7132,44.3946 6.7724,11.0875 17.5005,20.8156 27.605,28.9923 -2.5979,2.0554 -7.0131,4.7425 -9.4834,6.9446 -11.6109,1.1873 -23.3494,1.6213 -34.9922,0.5617 -7.0342,-0.7468 -14.362,-1.7106 -20.5154,-5.4767 -7.3597,-4.315 -12.5236,-11.5598 -15.9003,-19.2578 -2.1958,-4.9725 -3.7405,-10.2066 -4.8958,-15.511 -3.4405,-16.8833 -5.2278,-34.0858 -5.6491,-51.3075 v -12.3002 c 0.2872,-4.1491 0.3575,-8.3045 0.6702,-12.4535 1.7235,-25.9793 6.9512,-51.6203 14.145,-76.6038 5.0746,-17.2025 11.3747,-34.1688 20.3941,-49.7308 7.2703,-12.5939 16.3152,-24.275 27.4091,-33.7476 15.5492,-13.3279 34.8326,-21.9962 54.9203,-25.7175 z"
       id="path4633"
       inkscape:export-filename="C:\Users\Nacer\Desktop\Mono\Dermatologist.png"
       inkscape:export-xdpi="101.84"
       inkscape:export-ydpi="101.84" />
    <ellipse
       style="opacity:1;fill:#5d4485;fill-opacity:1;stroke:none;stroke-width:5;stroke-linecap:round;stroke-miterlimit:4;stroke-dasharray:none;stroke-opacity:1"
       id="circle4639"
       cx="-219.50014"
       cy="598.80414"
       inkscape:export-filename="C:\Users\Nacer\Desktop\Mono\Dermatologist.png"
       inkscape:export-xdpi="101.84"
       inkscape:export-ydpi="101.84"
       rx="5.0566535"
       ry="5.056654" />
    <ellipse
       cy="585.93256"
       cx="-214.90321"
       id="circle4641"
       style="opacity:1;fill:#5d4485;fill-opacity:1;stroke:none;stroke-width:5;stroke-linecap:round;stroke-miterlimit:4;stroke-dasharray:none;stroke-opacity:1"
       inkscape:export-filename="C:\Users\Nacer\Desktop\Mono\Dermatologist.png"
       inkscape:export-xdpi="101.84"
       inkscape:export-ydpi="101.84"
       rx="6.8954363"
       ry="6.8954368" />
    <ellipse
       cy="585.47308"
       cx="-229.15395"
       id="circle4643"
       style="opacity:1;fill:#5d4485;fill-opacity:1;stroke:none;stroke-width:5;stroke-linecap:round;stroke-miterlimit:4;stroke-dasharray:none;stroke-opacity:1"
       inkscape:export-filename="C:\Users\Nacer\Desktop\Mono\Dermatologist.png"
       inkscape:export-xdpi="101.84"
       inkscape:export-ydpi="101.84"
       rx="4.5969577"
       ry="4.5969582" />
    <ellipse
       style="opacity:1;fill:#5d4485;fill-opacity:1;stroke:none;stroke-width:5;stroke-linecap:round;stroke-miterlimit:4;stroke-dasharray:none;stroke-opacity:1"
       id="circle4645"
       cx="-137.21474"
       cy="597.42474"
       inkscape:export-filename="C:\Users\Nacer\Desktop\Mono\Dermatologist.png"
       inkscape:export-xdpi="101.84"
       inkscape:export-ydpi="101.84"
       rx="10.113307"
       ry="10.113308" />
    <ellipse
       cy="616.2724"
       cx="-142.27138"
       id="circle4647"
       style="opacity:1;fill:#5d4485;fill-opacity:1;stroke:none;stroke-width:5;stroke-linecap:round;stroke-miterlimit:4;stroke-dasharray:none;stroke-opacity:1"
       inkscape:export-filename="C:\Users\Nacer\Desktop\Mono\Dermatologist.png"
       inkscape:export-xdpi="101.84"
       inkscape:export-ydpi="101.84"
       rx="5.0566535"
       ry="5.056654" />
    <ellipse
       style="opacity:1;fill:#5d4485;fill-opacity:1;stroke:none;stroke-width:5;stroke-linecap:round;stroke-miterlimit:4;stroke-dasharray:none;stroke-opacity:1"
       id="circle4649"
       cx="-113.76992"
       cy="587.77142"
       inkscape:export-filename="C:\Users\Nacer\Desktop\Mono\Dermatologist.png"
       inkscape:export-xdpi="101.84"
       inkscape:export-ydpi="101.84"
       rx="6.8954363"
       ry="6.8954368" />
    <ellipse
       cy="609.37689"
       cx="-105.03579"
       id="circle4651"
       style="opacity:1;fill:#5d4485;fill-opacity:1;stroke:none;stroke-width:5;stroke-linecap:round;stroke-miterlimit:4;stroke-dasharray:none;stroke-opacity:1"
       inkscape:export-filename="C:\Users\Nacer\Desktop\Mono\Dermatologist.png"
       inkscape:export-xdpi="101.84"
       inkscape:export-ydpi="101.84"
       rx="10.113307"
       ry="10.113308" />
    <ellipse
       style="opacity:1;fill:#5d4485;fill-opacity:1;stroke:none;stroke-width:5;stroke-linecap:round;stroke-miterlimit:4;stroke-dasharray:none;stroke-opacity:1"
       id="circle4653"
       cx="-116.06875"
       cy="625.00677"
       inkscape:export-filename="C:\Users\Nacer\Desktop\Mono\Dermatologist.png"
       inkscape:export-xdpi="101.84"
       inkscape:export-ydpi="101.84"
       rx="4.5969577"
       ry="4.5969582" />
    <path
       inkscape:connector-curvature="0"
       style="opacity:1;fill:#5d4485;fill-opacity:1;fill-rule:nonzero;stroke:none;stroke-width:3;stroke-linecap:round;stroke-miterlimit:4;stroke-dasharray:none;stroke-opacity:1"
       d="m -86.0952,603.32198 c 0,-0.1098 1.5427,-2.6118 1.587,-2.5674 0.012,0.012 -0.4408,1.7621 -0.6057,2.3379 -0.053,0.1858 -0.075,0.2295 -0.076,0.1592 0,-0.1308 -0.068,-0.1592 -0.3636,-0.1592 -0.271,0 -0.3787,0.038 -0.4783,0.1724 -0.035,0.047 -0.063,0.071 -0.064,0.057 z"
       id="path4407"
       inkscape:export-filename="C:\Users\Nacer\Desktop\Mono\Dermatologist.png"
       inkscape:export-xdpi="101.84"
       inkscape:export-ydpi="101.84" />
  </g>
</svg>
