<?xml version="1.0" encoding="UTF-8" standalone="no"?>
<!-- Created with Inkscape (http://www.inkscape.org/) -->

<svg
   xmlns:dc="http://purl.org/dc/elements/1.1/"
   xmlns:cc="http://creativecommons.org/ns#"
   xmlns:rdf="http://www.w3.org/1999/02/22-rdf-syntax-ns#"
   xmlns:svg="http://www.w3.org/2000/svg"
   xmlns="http://www.w3.org/2000/svg"
   xmlns:sodipodi="http://sodipodi.sourceforge.net/DTD/sodipodi-0.dtd"
   xmlns:inkscape="http://www.inkscape.org/namespaces/inkscape"
   width="117.46316mm"
   height="117.46317mm"
   viewBox="0 0 416.20804 416.20809"
   id="svg6261"
   version="1.1"
   inkscape:version="0.92.2 (5c3e80d, 2017-08-06)"
   sodipodi:docname="Psy.svg">
  <defs
     id="defs6263" />
  <sodipodi:namedview
     id="base"
     pagecolor="#ffffff"
     bordercolor="#666666"
     borderopacity="1.0"
     inkscape:pageopacity="0.0"
     inkscape:pageshadow="2"
     inkscape:zoom="0.35"
     inkscape:cx="498.13102"
     inkscape:cy="160.24279"
     inkscape:document-units="px"
     inkscape:current-layer="layer1"
     showgrid="false"
     fit-margin-top="0"
     fit-margin-left="0"
     fit-margin-right="0"
     fit-margin-bottom="0"
     inkscape:window-width="1600"
     inkscape:window-height="837"
     inkscape:window-x="-8"
     inkscape:window-y="-8"
     inkscape:window-maximized="1" />
  <metadata
     id="metadata6266">
    <rdf:RDF>
      <cc:Work
         rdf:about="">
        <dc:format>image/svg+xml</dc:format>
        <dc:type
           rdf:resource="http://purl.org/dc/dcmitype/StillImage" />
        <dc:title />
      </cc:Work>
    </rdf:RDF>
  </metadata>
  <g
     inkscape:label="Layer 1"
     inkscape:groupmode="layer"
     id="layer1"
     transform="translate(1203.7469,222.24177)">
    <ellipse
       style="opacity:1;fill:#9f92b3;fill-opacity:1;stroke:none;stroke-width:7.75849771;stroke-linecap:round;stroke-miterlimit:4;stroke-dasharray:none;stroke-opacity:1"
       id="circle4554-9"
       cx="-995.64282"
       cy="-14.137739"
       rx="208.10402"
       ry="208.10403"
       inkscape:export-filename="C:\Users\Nacer\Desktop\Mono\Psy.png"
       inkscape:export-xdpi="101.85"
       inkscape:export-ydpi="101.85" />
    <path
       style="opacity:1;fill:#ffffff;fill-opacity:1"
       inkscape:connector-curvature="0"
       d="m -1122.5895,-121.4443 c 6.3484,-0.1879 12.6997,-0.5061 19.051,-0.3152 5.2812,0.2603 10.5827,1.0065 15.6094,2.7042 3.2798,1.1251 6.4728,2.6956 9.0671,5.0325 2.4034,2.1634 4.0578,5.0122 5.3795,7.9276 2.1489,4.8387 3.4447,10.0013 4.4483,15.1813 2.1604,11.5804 2.8141,23.3807 3.0194,35.1376 0.093,9.3534 0,18.7185 0.7029,28.0517 0.4743,6.0534 1.1655,12.1502 3.0484,17.9491 2.4352,7.7309 8.0664,14.2847 15.0887,18.2528 5.3419,3.0716 11.245,5.0325 17.2203,6.4468 5.7584,1.3333 11.6354,2.1807 17.5384,2.4989 0.01,-35.3922 0,-70.7843 0.01,-106.1764 -0.035,-3.8438 -0.032,-7.7396 -0.9342,-11.4966 -0.7664,-3.2017 -2.5191,-6.172 -5.0122,-8.3296 -2.2733,-1.7874 -5.1308,-2.5915 -7.9102,-3.2133 -5.3767,-1.0962 -10.8921,-1.3478 -16.3671,-1.2437 -0.01,-2.9327 -0.01,-5.8654 0,-8.7952 31.3257,0 62.6513,-0.01 93.9741,0 0,2.9298 0.01,5.8625 0,8.7952 -5.8596,-0.098 -11.7829,0.1619 -17.5095,1.504 -2.9067,0.7404 -5.9522,1.7787 -7.971,4.1156 -2.1894,2.3427 -3.569,5.3651 -4.0954,8.5147 -0.5958,3.248 -0.6189,6.5654 -0.6478,9.8567 0.01,35.4905 0,70.981 0.01,106.4686 6.1286,-0.3326 12.2312,-1.2263 18.2007,-2.658 6.2848,-1.5358 12.4944,-3.6962 17.9954,-7.1554 3.7368,-2.3224 6.9385,-5.4576 9.5039,-9.0237 2.522,-3.5285 4.1214,-7.6355 5.1337,-11.8292 1.235,-5.1366 1.7758,-10.4062 2.1431,-15.6672 0.564,-8.2717 0.5582,-16.5666 0.5958,-24.8528 0.1532,-12.425 0.7607,-24.905 3.0426,-37.1449 1.0325,-5.3216 2.3688,-10.6318 4.6276,-15.5804 1.3767,-2.9587 3.1323,-5.8336 5.6658,-7.942 3.2538,-2.7303 7.2769,-4.3586 11.3405,-5.4547 5.8769,-1.5387 11.9853,-2.0535 18.0474,-1.9292 4.6247,0.058 9.2523,0.2054 13.8769,0.3702 0,2.6754 0,5.3507 0,8.0289 -4.133,0.012 -8.266,-0.043 -12.3961,0 -2.7794,0.046 -5.3621,1.6688 -6.8169,3.9999 -2.5654,4.0665 -3.0658,9.0266 -3.248,13.7236 -0.075,14.5537 -0.049,29.1102 -0.1185,43.6668 -0.1996,10.2905 -1.8944,20.5666 -5.1164,30.3481 -3.057,9.1915 -7.6296,18.0186 -14.2557,25.1566 -2.5365,2.8314 -5.6456,5.0903 -8.9428,6.9558 -5.5878,3.1583 -11.6296,5.4113 -17.7322,7.3433 -11.0107,3.4128 -22.3395,5.689 -33.7262,7.4128 -2.5856,0.3644 -5.1684,0.7693 -7.7714,1.0007 -0.1186,8.9167 -0.014,17.8392 -0.049,26.7589 0.075,6.2905 -0.4309,12.717 1.3333,18.8456 1.3015,4.7809 3.9537,9.3795 8.0896,12.2428 2.7215,1.5705 5.8914,2.0824 8.9601,2.5539 4.9341,0.6825 9.9232,0.8705 14.9007,0.8503 0,2.0361 0,4.078 0,6.117 -33.3676,0 -66.7323,0 -100.0999,0 0,-2.039 -0.01,-4.0809 0,-6.117 5.987,0.01 12.0143,-0.2198 17.9087,-1.3565 2.5712,-0.5639 5.2985,-1.2234 7.2855,-3.0657 3.7483,-3.2104 6.0274,-7.8322 7.1033,-12.5841 1.3217,-5.5328 0.9226,-11.2507 0.9863,-16.8819 -0.032,-9.1221 0.061,-18.2441 -0.046,-27.3604 -5.5965,-0.5785 -11.1525,-1.5011 -16.6911,-2.4758 -7.4388,-1.3564 -14.8313,-3.0021 -22.0937,-5.1163 -5.8827,-1.7382 -11.7048,-3.7599 -17.2202,-6.4583 -4.2892,-2.1258 -8.4627,-4.6768 -11.7454,-8.2111 -7.3318,-7.7193 -12.1994,-17.469 -15.3114,-27.5773 -2.4497,-7.9941 -3.8814,-16.2919 -4.3557,-24.636 -0.1908,-3.1756 -0.133,-6.3571 -0.1561,-9.5356 -0.023,-11.9565 -0.049,-23.9129 -0.069,-35.8694 0,-3.8727 -0.2545,-7.7945 -1.368,-11.5226 -0.7491,-2.441 -1.9292,-4.8792 -3.9711,-6.496 -1.4924,-1.2002 -3.4215,-1.7526 -5.3217,-1.7295 -3.9392,0 -7.8813,0.02 -11.8234,0.02 -0.01,-2.6782 -0.01,-5.3535 0,-8.0288 z"
       id="path4191"
       inkscape:export-filename="C:\Users\Nacer\Desktop\Mono\Psy.png"
       inkscape:export-xdpi="101.85"
       inkscape:export-ydpi="101.85" />
  </g>
</svg>
