<?xml version="1.0" encoding="UTF-8" standalone="no"?>
<!-- Created with Inkscape (http://www.inkscape.org/) -->

<svg
   xmlns:dc="http://purl.org/dc/elements/1.1/"
   xmlns:cc="http://creativecommons.org/ns#"
   xmlns:rdf="http://www.w3.org/1999/02/22-rdf-syntax-ns#"
   xmlns:svg="http://www.w3.org/2000/svg"
   xmlns="http://www.w3.org/2000/svg"
   xmlns:sodipodi="http://sodipodi.sourceforge.net/DTD/sodipodi-0.dtd"
   xmlns:inkscape="http://www.inkscape.org/namespaces/inkscape"
   width="927.92706mm"
   height="580.6535mm"
   viewBox="0 0 927.92706 580.6535"
   version="1.1"
   id="svg1880"
   inkscape:version="0.92.3 (2405546, 2018-03-11)"
   sodipodi:docname="Logo.svg">
  <defs
     id="defs1874" />
  <sodipodi:namedview
     id="base"
     pagecolor="#ffffff"
     bordercolor="#666666"
     borderopacity="1.0"
     inkscape:pageopacity="0.0"
     inkscape:pageshadow="2"
     inkscape:zoom="0.175"
     inkscape:cx="1981.6504"
     inkscape:cy="937.95392"
     inkscape:document-units="mm"
     inkscape:current-layer="layer1"
     showgrid="false"
     fit-margin-top="0"
     fit-margin-left="0"
     fit-margin-right="0"
     fit-margin-bottom="0"
     inkscape:window-width="1440"
     inkscape:window-height="847"
     inkscape:window-x="-8"
     inkscape:window-y="-8"
     inkscape:window-maximized="1" />
  <metadata
     id="metadata1877">
    <rdf:RDF>
      <cc:Work
         rdf:about="">
        <dc:format>image/svg+xml</dc:format>
        <dc:type
           rdf:resource="http://purl.org/dc/dcmitype/StillImage" />
        <dc:title></dc:title>
      </cc:Work>
    </rdf:RDF>
  </metadata>
  <g
     inkscape:label="Layer 1"
     inkscape:groupmode="layer"
     id="layer1"
     transform="translate(388.36835,162.6601)">
    <g
       id="g1859"
       transform="matrix(0.2822222,0,0,0.2822222,-2446.527,-158.70575)">
      <path
         id="path1832"
         d="m 8261.8017,594.19558 v 286.1071 l 410.6467,439.80812 c 119.3292,127.8607 197.9335,205.8831 264.3127,205.1032 65.2425,-0.7097 137.4502,-82.7082 263.8857,-204.7483 0.1421,-0.1407 0.2842,-0.2828 0.3553,-0.4248 L 9611.5067,880.2327 V 594.19579 l -94.0264,100.74111 c -106.7481,75.46607 -184.0026,-122.89032 -210.3681,-204.25106 -6.4678,-20.0199 -9.8807,-32.9401 -9.8807,-32.9401 -52.0939,-148.73271 -193.8812,-255.43662 -360.5407,-255.43662 -210.9394,0 -381.9354,170.81166 -381.9354,381.52282 0,210.70916 170.996,381.52288 381.9354,381.52288 152.3038,0 283.7856,-89.09805 345.1186,-217.95315 0,0 75.1232,78.23497 36.4608,161.01529 l -381.5794,408.71244 z"
         style="opacity:0.98000004;fill:#5d4485;fill-opacity:1;fill-rule:evenodd;stroke:none;stroke-width:7.10432053"
         inkscape:connector-curvature="0" />
      <path
         id="path1830"
         d="m 8815.3,129.39677 c 0,-39.401838 -32.0519,-71.420228 -71.4958,-71.420228 -39.5149,0 -71.4986,32.01839 -71.4986,71.420228 0,39.47274 31.9837,71.42037 71.4986,71.42037 39.4439,0 71.4958,-31.94763 71.4958,-71.42037 z"
         style="opacity:0.98000004;fill:#ff2a22;fill-opacity:1;fill-rule:evenodd;stroke:none;stroke-width:7.10432053"
         inkscape:connector-curvature="0" />
      <path
         id="path1828"
         d="m 8865.2647,57.408765 c 0,39.47274 31.9815,71.420155 71.4964,71.420155 39.4439,0 71.4261,-31.947415 71.4261,-71.420155 0,-39.472811 -31.9822,-71.420229 -71.4261,-71.420229 -39.5149,0 -71.4964,31.947418 -71.4964,71.420229 z"
         style="opacity:0.98000004;fill:#ff2a22;fill-opacity:1;fill-rule:evenodd;stroke:none;stroke-width:7.10432053"
         inkscape:connector-curvature="0" />
      <path
         id="path1826"
         d="m 9129.2207,57.9764 c -39.4446,0 -71.4261,32.01839 -71.4261,71.42016 0,39.47281 31.9815,71.42044 71.4261,71.42044 39.5164,0 71.4979,-31.94763 71.4979,-71.42044 0,-39.40177 -31.9815,-71.42016 -71.4979,-71.42016 z"
         style="opacity:0.98000004;fill:#ff2a22;fill-opacity:1;fill-rule:evenodd;stroke:none;stroke-width:7.10432053"
         inkscape:connector-curvature="0" />
      <path
         id="path1824"
         d="m 8936.6908,392.0035 c 106.0362,0 192.0326,85.90409 192.0326,191.82808 0,97.68746 -73.0601,178.33642 -167.6556,190.33433 V 880.94207 H 8912.242 V 774.16591 c -94.5237,-11.99791 -167.6563,-92.64687 -167.6563,-190.33433 0,-105.92399 85.9964,-191.82808 192.1051,-191.82808 z"
         style="opacity:0.98000004;fill:#ffffff;fill-opacity:1;fill-rule:evenodd;stroke:none;stroke-width:7.10432053"
         inkscape:connector-curvature="0" />
      <path
         id="path4141"
         d="m 9062.2717,583.83158 c 0,-69.29071 -56.2157,-125.44865 -125.5809,-125.44865 -69.3652,0 -125.5831,56.15794 -125.5831,125.44865 0,69.28865 56.2179,125.4466 125.5831,125.4466 69.3652,0 125.5809,-56.15795 125.5809,-125.4466 z"
         style="opacity:0.98000004;fill:#ff2a22;fill-opacity:1;fill-rule:evenodd;stroke:none;stroke-width:7.10432053"
         inkscape:connector-curvature="0" />
      <g
         transform="matrix(7.1043203,0,0,7.1043203,9444.7932,-1037.2578)"
         id="text4143"
         style="font-style:normal;font-variant:normal;font-weight:700;font-size:48.13145447px;line-height:125%;font-family:'A Jannat LT';text-align:start;letter-spacing:0px;word-spacing:0px;text-anchor:start;fill:#5d4485;fill-opacity:0.98039216;stroke:none">
        <path
           id="path4159"
           style="font-style:normal;font-variant:normal;font-weight:700;font-size:48.13145447px;font-family:'A Jannat LT';fill:#5d4485;fill-opacity:0.98039216"
           d="m 119.11092,418.56961 q -0.72198,0 -1.01076,-0.38505 -0.28879,-0.38505 -0.28879,-0.86637 v -2.83975 q 0,-0.52945 0.33692,-1.01076 0.28879,-0.48132 0.96263,-0.48132 h 8.27861 q 1.10702,0 1.44394,-0.67384 0.33692,-0.67384 0.33692,-1.82899 v -6.59401 h 5.48699 v 4.66875 q 0,1.92526 0.91449,3.17667 0.9145,1.25142 3.32107,1.25142 h 1.20329 q 1.10702,0 1.44394,-0.62571 0.33692,-0.62571 0.33692,-1.87712 v -8.47114 h 5.48699 v 6.54588 q 0,1.92526 0.9145,3.17667 0.91449,1.25142 3.32107,1.25142 h 2.83975 v -13.57307 h 5.43886 v 19.15632 h -8.42301 q -2.02152,0 -3.27294,-0.96263 -1.25141,-1.01076 -1.92525,-2.21405 -0.81824,1.58834 -2.35845,2.40658 -1.5402,0.7701 -3.56172,0.7701 h -1.54021 q -2.16591,0 -3.41733,-0.9145 -1.25142,-0.96263 -1.92526,-2.16591 -0.81824,1.49207 -2.40657,2.31031 -1.54021,0.7701 -3.70613,0.7701 z"
           inkscape:connector-curvature="0" />
        <path
           id="path4161"
           style="font-style:normal;font-variant:normal;font-weight:700;font-size:48.13145447px;font-family:'A Jannat LT';fill:#5d4485;fill-opacity:0.98039216"
           d="m 110.55029,384.10749 h 5.48698 v 28.87887 h 3.27294 q 0.77011,0 1.0589,0.38505 0.28878,0.38506 0.28878,0.9145 v 2.93602 q 0,0.38505 -0.33692,0.86637 -0.33692,0.48131 -1.01076,0.48131 h -8.75992 z"
           inkscape:connector-curvature="0" />
        <path
           id="path4163"
           style="font-style:normal;font-variant:normal;font-weight:700;font-size:48.13145447px;font-family:'A Jannat LT';fill:#5d4485;fill-opacity:0.98039216"
           d="m 94.54431,413.27515 q 2.262179,0 3.321071,-1.39581 1.107023,-1.39581 1.107023,-3.3692 0,-1.25142 -0.385051,-2.26218 -0.385052,-1.01076 -1.010761,-1.73273 -0.577577,-0.72198 -1.395812,-1.10703 -0.770103,-0.38505 -1.63647,-0.38505 -0.914497,0 -1.732732,0.38505 -0.818235,0.38505 -1.443944,1.10703 -0.577577,0.72197 -0.962629,1.73273 -0.33692,1.01076 -0.33692,2.26218 0,1.92525 1.010761,3.3692 1.058892,1.39581 3.465464,1.39581 z m -14.728225,5.29446 q -0.721971,0 -1.01076,-0.38505 -0.288789,-0.38505 -0.288789,-0.86637 v -2.83975 q 0,-0.52945 0.33692,-1.01076 0.288789,-0.48132 0.962629,-0.48132 h 1.877127 q 2.98415,0 2.98415,-4.52435 0,-2.31031 0.721972,-4.2837 0.770103,-1.97339 2.117784,-3.36921 1.347681,-1.44394 3.128545,-2.21404 1.828995,-0.81824 3.99491,-0.81824 2.406573,0 4.187437,0.81824 1.829,0.81823 2.98415,2.26218 1.20329,1.44394 1.78086,3.46546 0.57758,2.02152 0.57758,4.42809 0,1.87713 -0.52944,3.65799 -0.48132,1.78087 -1.63647,3.17668 -1.15516,1.34768 -2.984154,2.16592 -1.780864,0.81823 -4.379963,0.81823 -1.058892,0 -2.117784,-0.0963 -1.058892,-0.1444 -2.117784,-0.48132 -1.01076,-0.38505 -1.973389,-1.01076 -0.914498,-0.67384 -1.684601,-1.6846 -0.721972,1.6846 -2.021521,2.50284 -1.251418,0.7701 -2.695362,0.7701 h -2.214047 z"
           inkscape:connector-curvature="0" />
        <path
           id="path4165"
           style="font-style:normal;font-variant:normal;font-weight:700;font-size:48.13145447px;font-family:'A Jannat LT';fill:#5d4485;fill-opacity:0.98039216"
           d="m 71.255489,384.10749 h 5.486986 v 28.87887 h 3.272939 q 0.770103,0 1.058892,0.38505 0.288788,0.38506 0.288788,0.9145 v 2.93602 q 0,0.38505 -0.33692,0.86637 -0.33692,0.48131 -1.01076,0.48131 h -8.759925 z"
           inkscape:connector-curvature="0" />
        <path
           id="path4167"
           style="font-style:normal;font-variant:normal;font-weight:700;font-size:48.13145447px;font-family:'A Jannat LT';fill:#5d4485;fill-opacity:0.98039216"
           d="m 51.941965,418.56961 q -0.67384,0 -0.962629,-0.38505 -0.288789,-0.38505 -0.288789,-0.86637 v -2.83975 q 0,-0.52945 0.336921,-1.01076 0.288788,-0.48132 0.914497,-0.48132 h 6.594009 v -13.57307 h 5.486986 v 19.15632 z m 6.545878,-26.66483 q 0,-1.15515 0.818235,-1.97338 0.866366,-0.81824 2.069652,-0.81824 1.251418,0 2.069653,0.81824 0.866366,0.81823 0.866366,1.97338 0,1.15516 -0.866366,1.97339 -0.818235,0.81824 -2.069653,0.81824 -1.203286,0 -2.069652,-0.81824 -0.818235,-0.81823 -0.818235,-1.97339 z"
           inkscape:connector-curvature="0" />
        <path
           id="path4169"
           style="font-style:normal;font-variant:normal;font-weight:700;font-size:48.13145447px;font-family:'A Jannat LT';fill:#5d4485;fill-opacity:0.98039216"
           d="m 43.39111,412.98636 v -4.2837 q 0,-2.74349 -1.058892,-4.18743 -1.01076,-1.49208 -3.032281,-1.49208 -0.866366,0 -1.684601,0.38505 -0.770103,0.33692 -1.395812,1.01076 -0.625709,0.62571 -1.010761,1.54021 -0.385051,0.9145 -0.385051,2.06965 0,1.34768 0.433183,2.31031 0.433183,0.9145 1.155155,1.54021 0.721971,0.57758 1.636469,0.86636 0.962629,0.24066 1.97339,0.24066 z m -3.224807,5.58325 q -2.936019,0 -5.005671,-0.81823 -2.021521,-0.86637 -3.321071,-2.21405 -1.299549,-1.39581 -1.877126,-3.12855 -0.577578,-1.73273 -0.577578,-3.51359 0,-2.26218 0.770103,-4.2837 0.770104,-2.06965 2.117784,-3.60986 1.347681,-1.54021 3.224808,-2.40657 1.877127,-0.9145 4.139305,-0.9145 2.069653,0 3.754253,0.72197 1.732733,0.67384 2.936019,1.97339 1.251418,1.25142 1.877127,3.03228 0.67384,1.73273 0.67384,3.85052 v 5.72764 h 3.417334 q 0.67384,0 0.962629,0.38505 0.33692,0.38506 0.33692,0.9145 v 2.93602 q 0,0.38505 -0.33692,0.86637 -0.288789,0.48131 -0.962629,0.48131 z"
           inkscape:connector-curvature="0" />
        <path
           id="path4171"
           style="font-style:normal;font-variant:normal;font-weight:700;font-size:48.13145447px;font-family:'A Jannat LT';fill:#5d4485;fill-opacity:0.98039216"
           d="m 1.6483555,418.56961 q -0.67384033,0 -0.96262906,-0.38505 -0.28878873,-0.38505 -0.28878873,-0.86637 v -2.83975 q 0,-0.52945 0.33692018,-1.01076 0.28878871,-0.48132 0.91449761,-0.48132 h 6.5940093 v -13.57307 h 5.4869862 v 19.15632 z m 11.9366005,12.32165 q 0,1.15516 -0.866366,1.92526 -0.818235,0.81824 -2.069652,0.81824 -1.2032868,0 -2.069653,-0.81824 -0.8663662,-0.7701 -0.8663662,-1.92526 0,-1.20328 0.8663662,-2.02152 0.8663662,-0.7701 2.069653,-0.7701 1.251417,0 2.069652,0.7701 0.866366,0.81824 0.866366,2.02152 z m 3.706122,-6.20895 q 0,1.15515 -0.818234,1.97338 -0.818235,0.81824 -2.069653,0.81824 -1.251418,0 -2.069653,-0.81824 -0.818234,-0.81823 -0.818234,-1.97338 0,-1.15516 0.818234,-1.97339 0.818235,-0.81824 2.069653,-0.81824 1.251418,0 2.069653,0.81824 0.818234,0.81823 0.818234,1.97339 z m -7.5085067,0 q 0,1.15515 -0.8182347,1.97338 -0.8182347,0.81824 -2.0696525,0.81824 -1.2514178,0 -2.0696526,-0.81824 -0.8182347,-0.81823 -0.8182347,-1.97338 0,-1.15516 0.8182347,-1.97339 0.8182348,-0.81824 2.0696526,-0.81824 1.2514178,0 2.0696525,0.81824 0.8182347,0.81823 0.8182347,1.97339 z"
           inkscape:connector-curvature="0" />
        <path
           id="path4173"
           style="font-style:normal;font-variant:normal;font-weight:700;font-size:48.13145447px;font-family:'A Jannat LT';fill:#5d4485;fill-opacity:0.98039216"
           d="m 0.45636151,418.56961 q -1.39581218,0 -2.55096711,-0.62571 -1.1551549,-0.62571 -1.8771267,-1.44394 v 1.29955 q 0,2.16591 -0.5775775,4.04304 -0.5775774,1.87713 -1.7327323,3.27294 -1.1551549,1.39581 -2.8397558,2.16591 -1.6846011,0.81824 -3.8986481,0.81824 -0.866366,0 -1.684601,-0.0963 -0.770103,-0.0481 -1.34768,-0.1444 -0.385052,-0.0481 -0.673841,-0.0963 -0.33692,-0.0481 -0.625709,-0.1444 l 0.577578,-5.48698 1.347681,0.28879 q 0.577577,0.0963 1.203286,0.14439 0.67384,0.0963 1.203286,0.0963 2.117784,0 2.839756,-1.34768 0.7219719,-1.34768 0.7219719,-3.94678 v -17.95303 h 5.4869858 v 9.14498 q 0,1.92526 0.8663662,3.17667 0.9144976,1.25142 3.41733325,1.25142 H 1.9965681 q 0.8182347,0 1.058892,0.38505 0.2406572,0.38506 0.2406572,0.9145 v 2.93602 q 0,0.38505 -0.2887887,0.86637 -0.2887887,0.48131 -1.0107605,0.48131 H 0.45636151 Z M -9.5068496,391.90478 q 0,-1.15515 0.8182348,-1.97338 0.8663661,-0.81824 2.0696525,-0.81824 1.2514178,0 2.0696525,0.81824 0.8663662,0.81823 0.8663662,1.97338 0,1.15516 -0.8663662,1.97339 -0.8182347,0.81824 -2.0696525,0.81824 -1.2032864,0 -2.0696525,-0.81824 -0.8182348,-0.81823 -0.8182348,-1.97339 z"
           inkscape:connector-curvature="0" />
        <path
           id="path4175"
           style="font-style:normal;font-variant:normal;font-weight:700;font-size:48.13145447px;font-family:'A Jannat LT';fill:#5d4485;fill-opacity:0.98039216"
           d="m -61.382035,418.56961 q -0.721972,0 -1.01076,-0.38505 -0.288789,-0.38505 -0.288789,-0.86637 v -2.83975 q 0,-0.52945 0.33692,-1.01076 0.288789,-0.48132 0.962629,-0.48132 h 8.27861 q 1.107024,0 1.443944,-0.67384 0.33692,-0.67384 0.33692,-1.82899 v -6.59401 h 5.486986 v 4.66875 q 0,1.92526 0.914498,3.17667 0.914497,1.25142 3.32107,1.25142 h 1.203286 q 1.107024,0 1.443944,-0.62571 0.33692,-0.62571 0.33692,-1.87712 v -8.47114 h 5.486986 v 6.54588 q 0,1.92526 0.914498,3.17667 0.914497,1.25142 3.32107,1.25142 h 2.839756 v -13.57307 h 5.438854 v 19.15632 h -8.423004 q -2.021521,0 -3.272939,-0.96263 -1.251418,-1.01076 -1.925258,-2.21405 -0.818235,1.58834 -2.358442,2.40658 -1.540206,0.7701 -3.561727,0.7701 h -1.540207 q -2.165915,0 -3.417333,-0.9145 -1.251418,-0.96263 -1.925258,-2.16591 -0.818235,1.49207 -2.406573,2.31031 -1.540207,0.7701 -3.706122,0.7701 z m 22.766178,-32.87378 q 0,-1.15516 0.818235,-1.92526 0.866366,-0.81824 2.117784,-0.81824 1.203286,0 2.069652,0.81824 0.866367,0.7701 0.866367,1.92526 0,1.20328 -0.866367,2.02152 -0.866366,0.7701 -2.069652,0.7701 -1.251418,0 -2.117784,-0.7701 -0.818235,-0.81824 -0.818235,-2.02152 z m -3.706122,6.20895 q 0,-1.15515 0.818235,-1.97338 0.818235,-0.81824 2.069652,-0.81824 1.251418,0 2.069653,0.81824 0.818235,0.81823 0.818235,1.97338 0,1.15516 -0.818235,1.97339 -0.818235,0.81824 -2.069653,0.81824 -1.251417,0 -2.069652,-0.81824 -0.818235,-0.81823 -0.818235,-1.97339 z m 7.508507,0 q 0,-1.15515 0.818235,-1.97338 0.818235,-0.81824 2.069652,-0.81824 1.251418,0 2.069653,0.81824 0.818235,0.81823 0.818235,1.97338 0,1.15516 -0.818235,1.97339 -0.818235,0.81824 -2.069653,0.81824 -1.251417,0 -2.069652,-0.81824 -0.818235,-0.81823 -0.818235,-1.97339 z"
           inkscape:connector-curvature="0" />
        <path
           id="path4177"
           style="font-style:normal;font-variant:normal;font-weight:700;font-size:48.13145447px;font-family:'A Jannat LT';fill:#5d4485;fill-opacity:0.98039216"
           d="m -87.327897,418.56961 q -0.721971,0 -1.01076,-0.38505 -0.288789,-0.38505 -0.288789,-0.86637 v -2.83975 q 0,-0.52945 0.33692,-1.01076 0.288789,-0.48132 0.962629,-0.48132 h 12.851099 q 1.155155,0 1.492075,-0.62571 0.385052,-0.62571 0.385052,-1.78086 0,-2.06965 -0.144395,-3.41733 -0.144394,-1.39582 -0.721972,-2.21405 -0.577577,-0.81824 -1.684601,-1.15516 -1.107023,-0.33692 -3.032281,-0.33692 h -6.064563 v -4.86127 l 9.337502,-14.82449 4.524356,3.03228 -7.364112,11.31089 h 0.625709 q 2.214047,0 4.043042,0.52945 1.828995,0.48131 3.128545,1.63647 1.34768,1.15515 2.069652,3.03228 0.721972,1.87713 0.721972,4.66875 0.04813,2.74349 1.107023,3.89865 1.058892,1.10702 3.224808,1.10702 h 1.780864 q 0.67384,0 0.962629,0.38505 0.288788,0.38506 0.288788,0.9145 v 2.93602 q 0,0.38505 -0.33692,0.86637 -0.288789,0.48131 -0.914497,0.48131 h -1.925259 q -2.117784,0 -3.369201,-0.96263 -1.203287,-0.96263 -1.877127,-2.16591 -0.818235,1.44394 -2.406573,2.31031 -1.588338,0.81823 -3.465465,0.81823 z"
           inkscape:connector-curvature="0" />
        <path
           id="path4179"
           style="font-style:normal;font-variant:normal;font-weight:700;font-size:48.13145447px;font-family:'A Jannat LT';fill:#5d4485;fill-opacity:0.98039216"
           d="m -95.888523,384.10749 h 5.486985 v 28.87887 h 3.272939 q 0.770104,0 1.058892,0.38505 0.288789,0.38506 0.288789,0.9145 v 2.93602 q 0,0.38505 -0.33692,0.86637 -0.33692,0.48131 -1.010761,0.48131 h -8.759924 z"
           inkscape:connector-curvature="0" />
        <path
           id="path4181"
           style="font-style:normal;font-variant:normal;font-weight:700;font-size:48.13145447px;font-family:'A Jannat LT';fill:#5d4485;fill-opacity:0.98039216"
           d="m -105.46442,403.69699 q 0.62571,1.10702 1.20328,2.5991 0.57758,1.44394 1.01076,2.98415 0.48132,1.54021 0.72198,3.08041 0.28878,1.54021 0.28878,2.83976 0,2.74349 -0.91449,5.1982 -0.86637,2.4547 -2.64723,4.2837 -1.73274,1.87712 -4.33183,2.93601 -2.5991,1.10703 -6.01644,1.10703 -3.75425,0 -6.35335,-1.05889 -2.5991,-1.0589 -4.18744,-2.83976 -1.58833,-1.73273 -2.3103,-3.99491 -0.72198,-2.21405 -0.72198,-4.62062 0,-2.31031 0.77011,-4.66875 0.7701,-2.40657 2.16591,-4.4281 l 4.66875,2.64723 q -1.10702,1.78087 -1.58833,3.32107 -0.43319,1.49208 -0.43319,3.12855 0,1.29955 0.48132,2.55097 0.48131,1.25141 1.49207,2.21404 1.01076,1.01076 2.55097,1.58834 1.58834,0.57758 3.70612,0.57758 1.97339,0 3.46547,-0.57758 1.5402,-0.57758 2.59909,-1.58834 1.0589,-0.96263 1.58834,-2.31031 0.52945,-1.34768 0.52945,-2.93602 0,-2.16591 -0.81824,-4.66875 -0.81823,-2.50283 -2.06965,-4.42809 z m -13.57307,-6.40148 q 0,-1.15516 0.81823,-1.97339 0.86637,-0.81824 2.06965,-0.81824 1.25142,0 2.06966,0.81824 0.86636,0.81823 0.86636,1.97339 0,1.15515 -0.86636,1.97339 -0.81824,0.81823 -2.06966,0.81823 -1.20328,0 -2.06965,-0.81823 -0.81823,-0.81824 -0.81823,-1.97339 z"
           inkscape:connector-curvature="0" />
        <path
           id="path4183"
           style="font-style:normal;font-variant:normal;font-weight:700;font-size:48.13145447px;font-family:'A Jannat LT';fill:#5d4485;fill-opacity:0.98039216"
           d="m -186.411,418.56961 q -0.72198,0 -1.01076,-0.38505 -0.28879,-0.38505 -0.28879,-0.86637 v -2.83975 q 0,-0.52945 0.33692,-1.01076 0.28879,-0.48132 0.96263,-0.48132 h 8.27861 q 1.10702,0 1.44394,-0.67384 0.33692,-0.67384 0.33692,-1.82899 v -6.59401 h 5.48699 v 4.66875 q 0,1.92526 0.91449,3.17667 0.9145,1.25142 3.32107,1.25142 h 1.20329 q 1.10702,0 1.44394,-0.62571 0.33692,-0.62571 0.33692,-1.87712 v -8.47114 h 5.48699 v 6.54588 q 0,1.92526 0.9145,3.17667 0.9145,1.25142 3.32107,1.25142 h 2.83975 v -13.57307 h 5.43886 v 19.15632 h -8.42301 q -2.02152,0 -3.27294,-0.96263 -1.25141,-1.01076 -1.92525,-2.21405 -0.81824,1.58834 -2.35844,2.40658 -1.54021,0.7701 -3.56173,0.7701 h -1.54021 q -2.16591,0 -3.41733,-0.9145 -1.25142,-0.96263 -1.92526,-2.16591 -0.81823,1.49207 -2.40657,2.31031 -1.54021,0.7701 -3.70612,0.7701 z m 22.76617,-32.87378 q 0,-1.15516 0.81824,-1.92526 0.86637,-0.81824 2.11778,-0.81824 1.20329,0 2.06966,0.81824 0.86636,0.7701 0.86636,1.92526 0,1.20328 -0.86636,2.02152 -0.86637,0.7701 -2.06966,0.7701 -1.25141,0 -2.11778,-0.7701 -0.81824,-0.81824 -0.81824,-2.02152 z m -3.70612,6.20895 q 0,-1.15515 0.81824,-1.97338 0.81823,-0.81824 2.06965,-0.81824 1.25142,0 2.06965,0.81824 0.81824,0.81823 0.81824,1.97338 0,1.15516 -0.81824,1.97339 -0.81823,0.81824 -2.06965,0.81824 -1.25142,0 -2.06965,-0.81824 -0.81824,-0.81823 -0.81824,-1.97339 z m 7.50851,0 q 0,-1.15515 0.81823,-1.97338 0.81824,-0.81824 2.06966,-0.81824 1.25141,0 2.06965,0.81824 0.81823,0.81823 0.81823,1.97338 0,1.15516 -0.81823,1.97339 -0.81824,0.81824 -2.06965,0.81824 -1.25142,0 -2.06966,-0.81824 -0.81823,-0.81823 -0.81823,-1.97339 z"
           inkscape:connector-curvature="0" />
        <path
           id="path4185"
           style="font-style:normal;font-variant:normal;font-weight:700;font-size:48.13145447px;font-family:'A Jannat LT';fill:#5d4485;fill-opacity:0.98039216"
           d="m -190.82029,412.98636 h 4.66875 q 0.7701,0 1.01076,0.38505 0.28879,0.38506 0.28879,0.9145 v 2.93602 q 0,0.38505 -0.33692,0.86637 -0.28879,0.48131 -0.96263,0.48131 h -29.11953 q -0.77011,0 -1.01076,-0.38505 -0.28879,-0.38505 -0.28879,-0.86637 v -2.83975 q 0,-0.52945 0.33692,-1.01076 0.28879,-0.48132 0.96263,-0.48132 h 6.11269 q -0.33692,-0.52944 -0.81823,-1.73273 -0.43319,-1.25142 -0.43319,-3.17668 0,-1.97339 0.77011,-3.85051 0.7701,-1.87713 2.16591,-3.32107 1.39581,-1.44395 3.3692,-2.31031 2.02153,-0.9145 4.4281,-0.9145 2.02152,0 3.65799,0.67384 1.63647,0.67384 2.79162,1.92526 1.15516,1.20328 1.78087,2.93602 0.62571,1.73273 0.62571,3.85051 z m -5.53512,0 v -6.16082 q 0,-0.67384 -0.24066,-1.34769 -0.19252,-0.67384 -0.67384,-1.20328 -0.48131,-0.57758 -1.20329,-0.9145 -0.72197,-0.33692 -1.78086,-0.33692 -0.9145,0 -1.78086,0.38505 -0.81824,0.33692 -1.49208,1.01076 -0.62571,0.62571 -1.01076,1.54021 -0.38505,0.9145 -0.38505,2.06965 0,1.73273 0.67384,2.74349 0.67384,0.96263 1.49208,1.49208 0.91449,0.57758 2.21404,0.72197 z m -6.7384,-21.08158 q 0,-1.15515 0.81823,-1.97338 0.86637,-0.81824 2.06965,-0.81824 1.25142,0 2.06965,0.81824 0.86637,0.81823 0.86637,1.97338 0,1.15516 -0.86637,1.97339 -0.81823,0.81824 -2.06965,0.81824 -1.20328,0 -2.06965,-0.81824 -0.81823,-0.81823 -0.81823,-1.97339 z"
           inkscape:connector-curvature="0" />
        <path
           id="path4187"
           style="font-style:normal;font-variant:normal;font-weight:700;font-size:48.13145447px;font-family:'A Jannat LT';fill:#5d4485;fill-opacity:0.98039216"
           d="m -223.8317,384.10749 h 5.48699 v 28.87887 h 3.27293 q 0.77011,0 1.0589,0.38505 0.28879,0.38506 0.28879,0.9145 v 2.93602 q 0,0.38505 -0.33692,0.86637 -0.33692,0.48131 -1.01077,0.48131 h -8.75992 z"
           inkscape:connector-curvature="0" />
        <path
           id="path4189"
           style="font-style:normal;font-variant:normal;font-weight:700;font-size:48.13145447px;font-family:'A Jannat LT';fill:#5d4485;fill-opacity:0.98039216"
           d="m -249.3504,418.56961 v -5.58325 h 13.13988 v -4.86128 q 0,-1.63646 -0.38505,-2.64723 -0.38505,-1.01076 -1.15515,-1.58833 -0.72198,-0.57758 -1.829,-0.77011 -1.05889,-0.19252 -2.40657,-0.19252 h -4.66875 v -5.34259 h 5.77577 q 1.97339,0 3.80239,0.38505 1.87712,0.38505 3.27294,1.49207 1.44394,1.10703 2.26217,3.08042 0.86637,1.97339 0.86637,5.15006 v 10.87771 z"
           inkscape:connector-curvature="0" />
        <path
           id="path4191-8"
           style="font-style:normal;font-variant:normal;font-weight:700;font-size:48.13145447px;font-family:'A Jannat LT';fill:#5d4485;fill-opacity:0.98039216"
           d="m -260.16644,384.10749 h 5.43885 v 34.46212 h -5.43885 z"
           inkscape:connector-curvature="0" />
        <path
           id="path4193"
           style="font-style:normal;font-variant:normal;font-weight:700;font-size:48.13145447px;font-family:'A Jannat LT';fill:#5d4485;fill-opacity:0.98039216"
           d="m -272.60617,412.98636 v -4.57249 q 0,-1.73273 -0.48131,-2.69536 -0.43318,-1.01076 -1.20329,-1.49207 -0.7701,-0.52945 -1.82899,-0.62571 -1.01076,-0.1444 -2.16592,-0.1444 h -5.87203 v -4.86127 l 9.3375,-14.82449 4.52435,3.03228 -7.31598,11.31089 h 0.48132 q 1.92526,0 3.70612,0.43319 1.82899,0.43318 3.22481,1.5402 1.39581,1.10703 2.21404,3.03228 0.81824,1.92526 0.81824,4.86128 v 10.58892 h -28.92701 q -1.87712,0 -3.17667,-0.57758 -1.29955,-0.57757 -2.11779,-1.5402 -0.81823,-0.96263 -1.20328,-2.26218 -0.33692,-1.29955 -0.33692,-2.69536 v -8.13422 h 5.48698 v 7.17159 q 0,0.81823 0.1444,1.34768 0.14439,0.48131 0.33692,0.72197 0.24066,0.24066 0.52944,0.33692 0.33692,0.0481 0.62571,0.0481 h 23.19936 z"
           inkscape:connector-curvature="0" />
      </g>
    </g>
  </g>
</svg>
