<?xml version="1.0" encoding="UTF-8" standalone="no"?>
<!-- Created with Inkscape (http://www.inkscape.org/) -->

<svg
   xmlns:dc="http://purl.org/dc/elements/1.1/"
   xmlns:cc="http://creativecommons.org/ns#"
   xmlns:rdf="http://www.w3.org/1999/02/22-rdf-syntax-ns#"
   xmlns:svg="http://www.w3.org/2000/svg"
   xmlns="http://www.w3.org/2000/svg"
   xmlns:sodipodi="http://sodipodi.sourceforge.net/DTD/sodipodi-0.dtd"
   xmlns:inkscape="http://www.inkscape.org/namespaces/inkscape"
   width="117.47761mm"
   height="117.47761mm"
   viewBox="0 0 416.25924 416.25923"
   id="svg4857"
   version="1.1"
   inkscape:version="0.92.2 (5c3e80d, 2017-08-06)"
   sodipodi:docname="Psychology.svg">
  <defs
     id="defs4859" />
  <sodipodi:namedview
     id="base"
     pagecolor="#ffffff"
     bordercolor="#666666"
     borderopacity="1.0"
     inkscape:pageopacity="0.0"
     inkscape:pageshadow="2"
     inkscape:zoom="0.35"
     inkscape:cx="981.21924"
     inkscape:cy="-98.066514"
     inkscape:document-units="px"
     inkscape:current-layer="layer1"
     showgrid="false"
     fit-margin-top="0"
     fit-margin-left="0"
     fit-margin-right="0"
     fit-margin-bottom="0"
     inkscape:window-width="1600"
     inkscape:window-height="837"
     inkscape:window-x="-8"
     inkscape:window-y="-8"
     inkscape:window-maximized="1" />
  <metadata
     id="metadata4862">
    <rdf:RDF>
      <cc:Work
         rdf:about="">
        <dc:format>image/svg+xml</dc:format>
        <dc:type
           rdf:resource="http://purl.org/dc/dcmitype/StillImage" />
        <dc:title />
      </cc:Work>
    </rdf:RDF>
  </metadata>
  <g
     inkscape:label="Layer 1"
     inkscape:groupmode="layer"
     id="layer1"
     transform="translate(1064.1296,-30.768315)">
    <circle
       style="opacity:1;fill:#9f92b3;fill-opacity:1;stroke:none;stroke-width:7.67106247;stroke-linecap:round;stroke-miterlimit:4;stroke-dasharray:none;stroke-opacity:1"
       id="circle4379"
       cx="-856"
       cy="238.89792"
       r="208.12961" />
    <path
       style="opacity:1;fill:#ffffff;fill-opacity:1;stroke:none;stroke-width:2.19240785;stroke-miterlimit:4;stroke-dasharray:none;stroke-opacity:1"
       d="m -791.54,128.4819 c -19.9639,-18.206 -47.7216,-24.5861 -74.0656,-25.3852 -26.1105,-0.049 -53.4257,4.9173 -74.9262,20.6032 -20.554,14.6165 -33.892,38.2191 -37.3955,63.0388 -3.4297,22.0537 0.4426,45.2998 11.703,64.6615 5.7778,10.2769 13.2765,19.4352 21.1933,28.1264 4.659,4.905 7.4249,11.2727 9.1582,17.7389 6.3433,25.8523 3.7617,54.2369 -9.822,77.434 43.5543,-0.2705 87.1208,-0.2459 130.6751,-0.012 2.6676,-9.441 2.4955,-19.3615 4.2411,-28.9501 0.713,-3.6633 3.9338,-6.712 7.7815,-6.5029 11.494,-0.1354 22.7175,4.7819 34.2607,2.7904 6.5891,-0.6638 13.3011,-4.868 14.9361,-11.6045 1.8809,-8.1381 -1.7825,-15.9688 -4.6099,-23.3815 1.8685,-4.4133 9.6746,-5.3106 8.3962,-11.0514 -2.3604,-2.766 -6.0113,-3.8969 -9.5395,-4.1797 3.7248,-1.1187 8.2487,-0.9957 11.1744,-3.8354 1.6473,-4.7697 -1.9669,-9.355 -2.3848,-14.0633 3.5773,-5.2614 11.1744,-4.4747 15.8703,-8.2609 1.5613,-1.5735 2.6799,-4.1551 1.5981,-6.294 -3.4912,-8.6174 -9.1952,-16.0793 -13.928,-24.0207 -3.1594,-5.3966 -7.0071,-10.3261 -10.4491,-15.5262 -2.8397,-3.8722 4.0813,-5.7531 3.7002,-9.7607 -2.7782,-30.3268 -15.2188,-60.4448 -37.5676,-81.5643 z"
       id="path4382"
       inkscape:connector-curvature="0" />
    <path
       id="path4152"
       d="m -835.6322,141.4463 c -12.7159,-9.263 -28.6657,-14.0753 -44.3962,-13.001 -15.4675,1.0304 -30.5951,7.2678 -42.2149,17.5502 -14.3164,12.0473 -23.5574,29.9922 -24.8509,48.6715 -2.4993,27.7449 12.1131,56.1695 36.0322,70.3982 2.2253,1.8745 6.0182,-0.7674 5.1412,-3.4531 -0.1206,-1.6004 -1.8635,-2.2143 -2.9268,-3.1022 -16.3993,-10.392 -27.8546,-28.0957 -30.8801,-47.2464 -2.3897,-14.1958 0.088,-29.159 6.9719,-41.8092 7.6295,-13.9876 20.4113,-25.0483 35.3964,-30.4745 16.3992,-6.1058 35.4731,-5.0206 50.809,3.5407 13.2751,7.2569 23.7109,19.5234 28.7206,33.807 5.7222,15.8182 4.1107,34.1906 -4.6041,48.6166 -6.4457,10.9511 -16.6952,19.5015 -28.4574,24.2261 -12.6502,4.9768 -27.2626,5.3057 -39.9019,0.099 -16.739,-6.5115 -29.4878,-22.1543 -32.6997,-39.8141 -1.5676,-9.548 -0.8331,-19.6988 3.2338,-28.5671 5.4262,-12.8146 16.6513,-22.9436 29.8277,-27.3174 11.0826,-3.7161 23.5793,-3.1571 34.1467,1.9074 18.2738,8.3311 29.6633,29.8496 25.0593,49.6032 -2.8282,12.9681 -12.3323,24.1823 -24.566,29.2686 -11.2141,4.911 -24.8509,4.1875 -35.2539,-2.3897 -12.7598,-7.7173 -20.4442,-23.5026 -17.3748,-38.3013 2.872,-17.1885 20.8717,-30.3539 38.1588,-27.153 15.7306,2.3459 28.0738,18.5916 24.9935,34.4318 -2.1157,14.0862 -16.9144,24.9934 -31.0007,21.8583 -12.1897,-2.1157 -21.4636,-15.303 -18.4052,-27.449 2.2253,-10.8853 14.6672,-18.8876 25.3552,-14.7987 9.7233,3.0913 15.1824,16.2676 8.4517,24.6097 -4.6808,6.939 -16.5965,7.6187 -20.7621,-0.1644 -3.8696,-5.3275 0.1754,-14.2945 7.0376,-13.7793 3.5627,-0.1096 5.6345,3.4311 5.7113,6.6101 -1.3703,-2.9488 -4.1547,-6.0949 -7.7064,-4.1984 -6.4128,2.7295 -3.3434,13.001 3.1023,13.2969 7.1253,1.3155 13.2202,-6.621 10.9072,-13.2531 -1.8745,-8.1886 -12.4967,-11.7184 -19.3809,-7.3994 -7.8049,4.0779 -10.2166,15.0509 -5.481,22.3078 4.1108,6.917 13.0558,10.5784 20.806,8.2325 8.4407,-2.1815 14.9083,-10.118 15.4236,-18.8109 1.3373,-13.4723 -11.1484,-25.9142 -24.5221,-25.2127 -13.8999,-0.044 -26.0568,12.4748 -26.2322,26.2541 -0.8769,15.4017 12.1021,29.6195 27.3393,30.891 17.5832,2.1815 34.6072,-12.3322 36.3502,-29.74 2.7514,-19.9838 -14.1082,-39.7264 -34.1249,-40.7459 -20.2249,-2.0499 -39.9456,13.9438 -42.8725,33.9056 -2.587,14.0534 2.9488,28.9069 13.1873,38.6522 7.9694,7.487 18.6903,12.1678 29.6852,12.2446 13.0668,0.5481 25.991,-5.196 35.0786,-14.4699 10.107,-10.1399 15.2262,-24.9935 13.571,-39.2112 -1.7211,-15.7196 -11.1813,-30.3649 -24.7304,-38.4987 -10.1399,-6.4018 -22.6037,-8.8245 -34.4537,-7.1911 -16.9692,2.4116 -32.5244,13.0996 -40.8774,28.0628 -6.4347,11.0717 -8.6052,24.4563 -6.4347,37.0407 2.9378,17.616 14.3383,33.5329 29.9263,42.1929 13.4614,7.7831 29.9922,9.4932 44.9553,5.5907 14.7221,-4.0121 27.9861,-13.297 36.5256,-25.9801 9.3287,-13.3079 12.979,-30.299 10.3043,-46.3036 -2.7625,-17.4845 -12.8914,-33.5548 -27.0982,-44.0345 z"
       inkscape:connector-curvature="0"
       style="opacity:1;fill:#8673a2;fill-opacity:1;stroke-width:1.09620392" />
  </g>
</svg>
