<?xml version="1.0" encoding="UTF-8" standalone="no"?>
<!-- Created with Inkscape (http://www.inkscape.org/) -->

<svg
   xmlns:dc="http://purl.org/dc/elements/1.1/"
   xmlns:cc="http://creativecommons.org/ns#"
   xmlns:rdf="http://www.w3.org/1999/02/22-rdf-syntax-ns#"
   xmlns:svg="http://www.w3.org/2000/svg"
   xmlns="http://www.w3.org/2000/svg"
   xmlns:sodipodi="http://sodipodi.sourceforge.net/DTD/sodipodi-0.dtd"
   xmlns:inkscape="http://www.inkscape.org/namespaces/inkscape"
   width="117.47532mm"
   height="117.47532mm"
   viewBox="0 0 416.25113 416.25112"
   id="svg4990"
   version="1.1"
   inkscape:version="0.92.2 (5c3e80d, 2017-08-06)"
   sodipodi:docname="Brain.svg">
  <defs
     id="defs4992" />
  <sodipodi:namedview
     id="base"
     pagecolor="#ffffff"
     bordercolor="#666666"
     borderopacity="1.0"
     inkscape:pageopacity="0.0"
     inkscape:pageshadow="2"
     inkscape:zoom="0.35"
     inkscape:cx="-391.64221"
     inkscape:cy="127.64346"
     inkscape:document-units="px"
     inkscape:current-layer="layer1"
     showgrid="false"
     fit-margin-top="0"
     fit-margin-left="0"
     fit-margin-right="0"
     fit-margin-bottom="0"
     inkscape:window-width="1600"
     inkscape:window-height="837"
     inkscape:window-x="-8"
     inkscape:window-y="-8"
     inkscape:window-maximized="1" />
  <metadata
     id="metadata4995">
    <rdf:RDF>
      <cc:Work
         rdf:about="">
        <dc:format>image/svg+xml</dc:format>
        <dc:type
           rdf:resource="http://purl.org/dc/dcmitype/StillImage" />
        <dc:title />
      </cc:Work>
    </rdf:RDF>
  </metadata>
  <g
     inkscape:label="Layer 1"
     inkscape:groupmode="layer"
     id="layer1"
     transform="translate(190.01846,-223.62949)">
    <circle
       style="fill:#9f92b3;fill-opacity:1;stroke-width:0.99997866"
       id="circle4994"
       cx="18.107101"
       cy="431.75507"
       r="208.12556" />
    <g
       id="g3421"
       transform="translate(-3938.0262,-863.09883)">
      <path
         d="m 3927.0603,1323.1517 c -0.021,-3.0694 -1.0358,-7.157 -2.2553,-9.0835 -1.8824,-2.9737 -2.8153,-2.9047 -6.1776,0.4577 -10.0455,10.0455 -21.5379,7.1014 -26.5672,-6.8068 -2.6374,-7.2935 -4.003,-8.3849 -8.9414,-7.1455 -7.0313,1.7647 -15.5501,-5.0128 -15.5501,-12.372 0,-2.7701 -2.4183,-7.6109 -5.3741,-10.7566 -6.629,-7.0562 -7.2014,-23.276 -1.2274,-34.7825 2.2666,-4.3659 4.1212,-10.6471 4.1212,-13.9584 0,-3.3113 1.7904,-7.5064 3.979,-9.3229 2.1884,-1.8162 4.9512,-5.8594 6.1394,-8.9852 1.1884,-3.1255 3.8233,-5.6828 5.8554,-5.6828 2.0321,0 4.8894,-2.2324 6.3496,-4.9608 1.699,-3.1746 5.1935,-4.9608 9.7052,-4.9608 3.8776,0 8.3458,-1.5611 9.9289,-3.4691 2.9693,-3.5778 18.1361,-6.7478 31.2132,-6.524 4.0927,0.07 11.8292,0.1252 17.1935,0.1228 5.7501,0 11.688,1.7474 14.4697,4.2646 2.771,2.5077 7.6744,3.9589 11.8845,3.5173 5.0111,-0.5256 9.0281,1.1097 13.355,5.4367 3.4037,3.4036 8.4567,6.9083 11.2285,7.7882 2.7723,0.8799 5.0405,2.7724 5.0405,4.2057 0,1.4332 3.3485,6.4195 7.4411,11.0811 9.1667,10.441 10.5129,25.3263 2.4804,27.4266 -2.7284,0.7135 -4.9608,3.2628 -4.9608,5.665 0,6.6655 -5.5231,9.8824 -21.4432,12.4895 -7.9873,1.3081 -15.3317,2.3848 -16.3209,2.3927 -0.989,0.01 -1.1468,3.2717 -0.3506,7.2526 1.2317,6.1585 0.39,7.7788 -5.6429,10.8627 -3.8998,1.9937 -10.7041,4.4031 -15.1213,5.3543 -9.8446,2.1198 -16.3033,9.9472 -20.461,24.7948 -3.2886,11.7459 -9.9252,15.5299 -9.9919,5.6978 z"
         id="path4564"
         inkscape:connector-curvature="0"
         style="opacity:0.70400002;fill-opacity:0;stroke-width:0.87694985" />
      <path
         inkscape:connector-curvature="0"
         id="path4137"
         d="m 3924.4557,1331.0969 c -2.3176,-13.0659 -2.3522,-13.1027 -7.9156,-8.4212 -12.6477,10.6423 -28.4412,4.4685 -31.8229,-12.44 -0.932,-4.66 -1.3489,-4.862 -8.3925,-4.0681 -6.2999,0.7101 -8.0743,0.1732 -11.8259,-3.5784 -3.0895,-3.0896 -4.4138,-6.2439 -4.4138,-10.5128 0,-4.6352 -1.256,-7.2245 -5.2327,-10.787 -9.9259,-8.8922 -10.2365,-29.9757 -0.6499,-44.1023 3.2965,-4.8578 3.812,-6.8844 2.4147,-9.495 -2.1566,-4.0294 1.6815,-12.5543 6.9124,-15.3538 1.8752,-1.0034 3.4093,-3.2199 3.4093,-4.9255 0,-3.305 5.0498,-8.7724 8.1023,-8.7724 1.0095,0 4.6273,-2.7918 8.0396,-6.2041 5.2418,-5.2418 7.0116,-6.0426 11.4102,-5.1629 4.2431,0.8487 5.9357,0.1933 9.1493,-3.5428 3.2047,-3.7256 5.5118,-4.624 12.3208,-4.7978 4.6078,-0.1174 10.0619,-1.1287 12.1204,-2.2471 5.014,-2.7242 11.3781,-2.5628 18.6435,0.473 4.3897,1.8341 7.1983,2.0499 10.4724,0.8052 5.453,-2.0733 14.1776,0.4303 18.6247,5.3443 1.9081,2.1082 4.2645,3.0059 6.2429,2.3779 5.2865,-1.6779 13.2965,0.9903 19.6072,6.5313 3.2842,2.8836 8.4094,6.4721 11.3891,7.9747 2.9798,1.5025 5.8255,4.3673 6.3238,6.3663 0.4984,1.999 3.3567,5.6833 6.3517,8.1876 11.7977,9.8642 13.9527,29.2807 3.8853,35.0084 -3.0397,1.7293 -5.0298,4.2775 -5.0365,6.4488 -0.011,1.9744 -1.5689,4.9996 -3.4732,6.7231 -3.9053,3.5343 -21.0275,7.5888 -32.2746,7.6425 -6.4413,0.03 -7.2926,0.4472 -6.2051,3.0344 3.2798,7.8028 2.7948,10.1242 -3.2188,15.4041 -3.9927,3.5058 -9.3089,5.9791 -15.7048,7.3069 -13.77,2.8587 -18.6511,7.9691 -24.5403,25.6936 -4.25,12.7908 -5.3701,14.6277 -9.198,15.0861 -3.8364,0.4596 -4.4972,-0.259 -5.515,-5.997 z"
         style="opacity:1;fill:#9888b1;fill-opacity:1;stroke:none;stroke-width:4.79761696;stroke-linecap:square;stroke-linejoin:miter;stroke-miterlimit:4;stroke-dasharray:none;stroke-opacity:1" />
      <path
         d="m 4007.3186,1174.5561 c -18.9999,-11.2153 -41.356,-15.1624 -63.1719,-15.5562 -27.1162,0.3198 -55.5846,6.2839 -76.884,24.0416 -34.0396,27.4476 -43.6431,79.1711 -24.6317,118.0023 5.0788,10.7112 12.1255,20.3646 19.8849,29.2928 3.6032,4.1566 7.7228,8.0425 10.0962,13.1087 5.6569,11.4117 6.4561,24.3985 6.9481,36.8924 0.4673,17.6223 -4.5254,35.0482 -13.0717,50.3702 43.5817,-0.2337 87.1766,-0.1967 130.7619,-0.012 2.4473,-9.2352 2.521,-18.8273 4.0214,-28.2106 0.5288,-3.886 3.7261,-7.4277 7.8703,-7.231 11.7932,-0.1476 23.3532,4.9928 35.2078,2.6685 6.2594,-0.8853 12.4939,-5.0173 14.0558,-11.424 1.9307,-8.19 -1.7586,-16.1095 -4.6607,-23.5742 2.1766,-3.5785 6.911,-4.7345 8.6082,-8.6205 0.4181,-4.8696 -6.0627,-5.8658 -9.7149,-6.7143 3.763,-0.7993 8.1777,-0.8239 11.1908,-3.5417 1.6479,-4.7714 -1.8815,-9.4202 -2.3857,-14.1417 3.8,-5.5583 12.101,-4.3287 16.5892,-8.9895 2.2505,-2.6564 1.0084,-6.0258 -0.4304,-8.7313 -7.1202,-13.4656 -16.1955,-25.7876 -24.1889,-38.6999 1.8201,-2.2995 4.5747,-4.3163 4.8085,-7.4644 -1.9309,-21.4468 -8.6329,-42.5734 -20.3277,-60.7244 -7.8827,-12.2115 -17.917,-23.3533 -30.5714,-30.7433 m -56.5071,10.6619 c 3.394,-1.3281 6.9111,-2.7053 10.6128,-2.484 5.8782,0.332 11.2153,3.9229 14.3513,8.8046 9.8131,-3.3326 21.7668,1.2913 26.3655,10.6742 6.0995,0.061 14.1294,4.6976 12.1624,11.7442 10.7111,5.2386 17.5486,18.2124 14.339,29.9197 -1.2667,4.5624 -5.3863,8.0179 -10.1208,8.436 0.3196,2.4718 0.873,5.1895 -0.5043,7.4645 -2.6194,4.8083 -8.2393,6.6529 -13.2691,7.6859 -8.3254,1.7216 -16.7857,3.1851 -25.3202,3.1851 1.4265,2.7546 2.9513,5.7304 2.5209,8.9528 -0.5041,4.5254 -4.1934,7.8211 -7.9195,9.9858 -8.4115,5.3739 -20.2541,3.0866 -27.2021,11.117 -5.7798,9.6044 -8.4853,20.6724 -11.7441,31.3089 -2.7668,-0.024 -5.5338,-0.024 -8.3007,0 -1.3282,-6.0872 -2.6931,-12.1746 -3.7753,-18.3107 -5.0666,6.7145 -14.1172,11.8546 -22.5535,8.4484 -7.9933,-3.3081 -11.3872,-12.1747 -12.7158,-20.119 -4.8943,1.5127 -10.5391,2.6316 -15.2115,-0.2336 -6.0627,-3.677 -8.227,-11.56 -6.6038,-18.2002 -6.3946,-3.0499 -10.6374,-9.543 -11.4986,-16.4911 -1.6601,-11.8055 1.2052,-24.7545 9.6289,-33.5231 -1.0452,-2.6686 -2.7422,-5.3617 -1.9552,-8.3623 1.1682,-5.0542 5.1403,-8.8791 9.5184,-11.3626 -1.2666,-6.7759 5.0665,-11.5477 11.2522,-11.7565 1.7954,-2.939 3.6155,-6.0503 6.616,-7.9195 3.9721,-2.8776 9.3834,-2.7792 13.7243,-0.7993 2.6193,-8.3991 12.9367,-11.0435 20.5119,-8.0056 7.4522,-6.6284 19.2578,-5.5093 27.0907,-0.1598 z"
         id="path5643"
         inkscape:connector-curvature="0"
         style="fill:#ffffff;stroke-width:0.87694985" />
    </g>
  </g>
</svg>
