<?xml version="1.0" encoding="UTF-8" standalone="no"?>
<svg
   xmlns:dc="http://purl.org/dc/elements/1.1/"
   xmlns:cc="http://creativecommons.org/ns#"
   xmlns:rdf="http://www.w3.org/1999/02/22-rdf-syntax-ns#"
   xmlns:svg="http://www.w3.org/2000/svg"
   xmlns="http://www.w3.org/2000/svg"
   xmlns:sodipodi="http://sodipodi.sourceforge.net/DTD/sodipodi-0.dtd"
   xmlns:inkscape="http://www.inkscape.org/namespaces/inkscape"
   width="333.01483pt"
   height="333.01483pt"
   viewBox="0 0 333.01483 333.01483"
   version="1.1"
   id="svg117"
   sodipodi:docname="Blood.svg"
   inkscape:version="0.92.2 (5c3e80d, 2017-08-06)">
  <metadata
     id="metadata123">
    <rdf:RDF>
      <cc:Work
         rdf:about="">
        <dc:format>image/svg+xml</dc:format>
        <dc:type
           rdf:resource="http://purl.org/dc/dcmitype/StillImage" />
        <dc:title />
      </cc:Work>
    </rdf:RDF>
  </metadata>
  <defs
     id="defs121" />
  <sodipodi:namedview
     pagecolor="#ffffff"
     bordercolor="#666666"
     borderopacity="1"
     objecttolerance="10"
     gridtolerance="10"
     guidetolerance="10"
     inkscape:pageopacity="0"
     inkscape:pageshadow="2"
     inkscape:window-width="1600"
     inkscape:window-height="837"
     id="namedview119"
     showgrid="false"
     fit-margin-top="0"
     fit-margin-left="0"
     fit-margin-right="0"
     fit-margin-bottom="0"
     inkscape:zoom="0.46354778"
     inkscape:cx="90.104425"
     inkscape:cy="26.327398"
     inkscape:window-x="-8"
     inkscape:window-y="-8"
     inkscape:window-maximized="1"
     inkscape:current-layer="svg117" />
  <g
     id="#111224ff"
     transform="translate(-378.06888,-405.52646)" />
  <circle
     style="fill:#9f92b3;fill-opacity:1;stroke-width:0.8000164"
     id="circle4361-0"
     cy="166.50742"
     cx="166.50742"
     r="166.50742" />
  <path
     style="opacity:0.98000004;fill:#8673a2;fill-opacity:1;stroke-width:0.31451485"
     inkscape:connector-curvature="0"
     id="path81"
     d="m 130.44134,81.67049 c 2.63248,-0.57871 5.54175,0.27362 7.39109,2.24877 1.67637,1.77072 3.22378,3.94403 3.37789,6.457 0.1321,1.0945 -0.71709,1.87136 -1.16055,2.76458 -0.41202,1.42161 0.16669,2.88725 0.79886,4.14845 1.23919,2.50669 3.39991,4.34346 5.32474,6.30603 33.07124,33.07123 66.14562,66.14247 99.21685,99.21371 2.8558,2.91555 6.03868,5.63296 7.95722,9.30649 5.10459,8.9165 3.9566,20.90894 -2.80546,28.65859 -2.35572,2.56644 -4.79321,5.14232 -7.79054,6.9665 -5.16118,3.22064 -11.51438,4.45668 -17.50904,3.42822 -5.14232,-0.82718 -9.96698,-3.33701 -13.65308,-7.00739 -35.12817,-35.13131 -70.26263,-70.25319 -105.39079,-105.38449 -1.88709,-1.88709 -4.22393,-3.62322 -6.95707,-3.87797 -1.47192,-0.23904 -2.32426,1.43418 -3.76789,1.30838 -2.77402,-0.16355 -5.17062,-1.92483 -7.03569,-3.86224 -2.78031,-3.09168 -2.45636,-8.20255 0.43717,-11.11181 12.36672,-12.37616 24.74603,-24.74289 37.11276,-37.11904 1.1983,-1.22976 2.76144,-2.11039 4.45353,-2.44378 m 0.47806,7.99811 c -12.10882,12.10882 -24.22079,24.21764 -36.33276,36.32017 -0.35225,0.36799 -0.85233,0.8775 -0.56927,1.4279 0.29879,0.34282 0.67621,0.60701 1.0379,0.88379 3.28039,-1.44677 7.10175,-0.78629 10.23431,0.73597 4.00378,1.8399 6.87216,5.27755 9.96069,8.28745 33.85752,33.85753 67.7119,67.71191 101.56943,101.56629 3.42821,3.50998 8.38496,5.43796 13.28196,5.21465 4.77433,-0.11951 9.38512,-2.34627 12.59002,-5.86255 2.6608,-2.42806 4.83724,-5.46628 5.77764,-8.9794 1.44677,-5.07627 0.50637,-10.78157 -2.56958,-15.08413 -0.92153,-1.33984 -2.07895,-2.49096 -3.23951,-3.62007 -34.7476,-34.7476 -69.49834,-69.4952 -104.24594,-104.2428 -2.06007,-2.05064 -3.7899,-4.46297 -4.87184,-7.17094 -1.08822,-2.70797 -1.43733,-5.80909 -0.4529,-8.60198 0.35855,-0.70451 -0.30508,-1.29265 -0.83032,-1.65434 -0.56298,-0.0251 -0.95612,0.44346 -1.33983,0.77999 z" />
  <path
     style="opacity:1;fill:#ffffff;fill-opacity:1;stroke-width:0.31451485"
     inkscape:connector-curvature="0"
     id="path83"
     d="m 102.73258,123.88153 c 15.79808,-0.0786 31.5993,-0.0503 47.39739,-0.0158 3.05394,2.77717 5.87828,5.8374 8.84101,8.72464 26.63311,26.62683 53.26309,53.2568 79.89306,79.88363 1.33669,1.38386 2.82434,2.64822 3.89054,4.26483 2.48153,3.63579 3.01935,8.4856 1.4342,12.59002 -0.90266,2.54128 -2.75515,4.56047 -4.67998,6.38151 -2.56959,2.73313 -6.26829,4.41578 -10.03932,4.34974 -3.63579,0.0849 -7.22755,-1.44677 -9.78141,-4.01321 -34.96462,-34.97091 -69.93867,-69.92923 -104.89699,-104.90328 -3.28668,-3.42193 -7.37852,-6.21167 -12.0585,-7.26215 z" />
  <g
     id="#cc191fff"
     transform="matrix(0.15203835,0,0,0.15203835,55.34102,147.70338)"
     style="fill:#ffffff;fill-opacity:1">
    <path
       style="opacity:1;fill:#ffffff;fill-opacity:1"
       inkscape:connector-curvature="0"
       d="m 206.8,190.76 c 24.05,-36.11 49.95,-70.97 77.21,-104.71 23.61,28.98 45.97,58.97 67.19,89.74 19.18,28.09 37.44,56.88 52.88,87.21 8.96,17.97 17.23,36.47 21.99,56.04 4.92,19.32 3.08,39.74 -1.68,58.9 -8.96,34.95 -31.65,66.07 -62.06,85.46 -32.49,21.11 -73.64,28.04 -111.31,19.14 -26,-6.01 -50.25,-19.44 -69.11,-38.33 -28.77,-28.2 -44.91,-68.99 -42.53,-109.28 1.42,-15.93 6.68,-31.22 12.67,-45.95 14.51,-34.67 34.18,-66.87 54.75,-98.22 m -32.36,102.8 c -3.06,0.81 -5.76,2.94 -7.19,5.78 -3.09,5.68 -0.31,13.63 5.87,15.83 6.91,3.02 15.63,-2.51 15.55,-10.1 0.64,-7.36 -7.17,-13.61 -14.23,-11.51 m -6.24,40.65 c -4.46,1.49 -7.69,6.08 -7.49,10.79 1,23.47 7.43,46.79 19.17,67.17 12.33,21.63 31.47,39.26 54.02,49.77 3.48,1.52 7.68,0.94 10.76,-1.24 5.14,-3.41 6.34,-11.18 2.58,-16.04 -2.34,-3.65 -7.03,-4.04 -10.3,-6.47 -10.78,-7.42 -20.04,-16.88 -28.02,-27.21 -14.77,-19.21 -24.63,-42.64 -25.61,-67.03 -0.22,-7.2 -8.44,-12.47 -15.11,-9.74 z"
       id="path1054" />
  </g>
</svg>
