<?xml version="1.0" encoding="UTF-8" standalone="no"?>
<!-- Created with Inkscape (http://www.inkscape.org/) -->

<svg
   xmlns:dc="http://purl.org/dc/elements/1.1/"
   xmlns:cc="http://creativecommons.org/ns#"
   xmlns:rdf="http://www.w3.org/1999/02/22-rdf-syntax-ns#"
   xmlns:svg="http://www.w3.org/2000/svg"
   xmlns="http://www.w3.org/2000/svg"
   xmlns:sodipodi="http://sodipodi.sourceforge.net/DTD/sodipodi-0.dtd"
   xmlns:inkscape="http://www.inkscape.org/namespaces/inkscape"
   width="117.40446mm"
   height="117.40446mm"
   viewBox="0 0 416.00008 416.00007"
   id="svg5635"
   version="1.1"
   inkscape:version="0.92.2 (5c3e80d, 2017-08-06)"
   sodipodi:docname="Digestive.svg">
  <defs
     id="defs5637" />
  <sodipodi:namedview
     id="base"
     pagecolor="#ffffff"
     bordercolor="#666666"
     borderopacity="1.0"
     inkscape:pageopacity="0.0"
     inkscape:pageshadow="2"
     inkscape:zoom="0.7"
     inkscape:cx="212.81548"
     inkscape:cy="107.984"
     inkscape:document-units="px"
     inkscape:current-layer="layer1"
     showgrid="false"
     fit-margin-top="0"
     fit-margin-left="0"
     fit-margin-right="0"
     fit-margin-bottom="0"
     inkscape:window-width="1600"
     inkscape:window-height="837"
     inkscape:window-x="-8"
     inkscape:window-y="-8"
     inkscape:window-maximized="1" />
  <metadata
     id="metadata5640">
    <rdf:RDF>
      <cc:Work
         rdf:about="">
        <dc:format>image/svg+xml</dc:format>
        <dc:type
           rdf:resource="http://purl.org/dc/dcmitype/StillImage" />
        <dc:title />
      </cc:Work>
    </rdf:RDF>
  </metadata>
  <g
     inkscape:label="Layer 1"
     inkscape:groupmode="layer"
     id="layer1"
     transform="translate(914.71426,-161.61217)">
    <circle
       style="fill:#9f92b3;fill-opacity:1"
       id="circle4554"
       cy="369.61221"
       cx="-706.71423"
       r="208.00003"
       inkscape:export-filename="C:\Users\nacer\Desktop\Digestive.png"
       inkscape:export-xdpi="101.9"
       inkscape:export-ydpi="101.9" />
    <path
       style="opacity:1;fill:#9888b1;fill-opacity:1;stroke:none;stroke-width:2.79999995;stroke-linecap:square;stroke-linejoin:miter;stroke-miterlimit:4;stroke-dasharray:none;stroke-opacity:1"
       d="m -725.1518,428.0552 -24.3306,-10.6385 33.4912,0.5079 c 31.1198,-2.5453 41.1988,-11.6006 56.3806,-32.1981 13.7115,-23.9105 22.1795,-45.838 33.5606,-83.8586 4.4462,-14.8534 6.3121,-31.8951 7.0223,-31.4561 2.8646,1.7704 11.6894,45.5343 11.6804,60.5597 -0.011,18.5529 -5.439,33.6841 -14.732,51.4325 -19.1468,36.5675 -61.8342,52.8235 -103.0725,45.6512 z"
       id="path4136"
       inkscape:connector-curvature="0"
       sodipodi:nodetypes="ccccscccc" />
    <path
       style="fill:#ffffff;stroke-width:0.99999994"
       inkscape:connector-curvature="0"
       id="path4582"
       d="m -757.5999,198.6662 c 5.2788,-1.616 10.8035,-2.2911 16.3206,-1.9967 0.4843,8.8846 1.6917,17.7549 3.945,26.3597 1.7058,6.2559 4.0715,12.5042 8.2062,17.5319 4.7594,6.0979 9.7503,12.0091 14.8814,17.7839 2.499,2.7652 5.4754,5.0923 8.7676,6.7658 3.3273,1.7093 7.6233,2.5066 10.874,0.1867 3.6994,-2.5498 4.8153,-7.1824 6.7319,-11.0323 2.8359,-5.9686 8.0094,-10.7378 14.2144,-12.7561 9.7361,-3.2105 20.2308,-2.0613 30.0729,0.01 12.7898,2.873 23.6348,11.9232 30.3459,23.2421 9.6867,16.1816 12.9588,35.4519 13.5689,54.1623 0.2386,13.9839 -1.1654,27.9899 -4.0785,41.6504 -3.8187,17.863 -12.2639,34.6981 -24.4361,48.1076 -19.6968,21.856 -48.6538,35.3805 -77.8763,34.31 -20.5608,-1.3287 -39.9632,-9.0066 -59.6881,-14.4075 -8.2762,-2.2194 -16.6854,-4.3454 -25.2921,-4.4675 -4.4435,-0.158 -8.6694,1.8316 -12.2706,4.3382 -6.5704,5.0637 -11.6809,12.2176 -13.9414,20.3407 -2.5903,9.136 -1.7339,19.0048 1.1512,27.9465 3.7977,11.5206 10.9435,22.0645 20.8271,28.9377 5.7843,4.0365 12.7127,5.9398 19.5715,6.9238 11.9829,1.5227 24.1754,-1.2713 35.0425,-6.4354 13.955,-6.5863 26.0922,-16.5339 37.2047,-27.2641 4.0294,-3.778 7.6795,-7.9725 12.0032,-11.4125 6.8373,-5.4802 14.6499,-9.5814 22.7296,-12.7986 14.4674,-5.6454 29.9676,-8.504 45.4523,-8.4968 11.7436,0.2514 23.8386,1.9823 34.256,7.8575 9.1746,5.2935 17.5637,12.4473 23.242,21.6119 0.021,1.4509 -0.9547,2.7221 -1.404,4.0723 -1.6917,2.1692 -3.0817,4.5968 -4.2118,7.125 -0.6739,0.4525 -1.039,1.0845 -1.0952,1.889 -0.1614,0.4094 -0.4913,1.221 -0.6528,1.6232 -0.2036,0.3375 -0.6107,1.0126 -0.8072,1.3503 -0.5195,0.7685 -0.9898,1.5657 -1.3478,2.4277 -0.1124,0.1436 -0.323,0.4309 -0.4352,0.5817 -0.1264,0.1293 -0.3861,0.4022 -0.5125,0.5387 -0.3088,0.3448 -0.9196,1.0343 -1.2284,1.3862 l -0.5686,0.086 c -0.098,0.4166 -0.2808,1.2498 -0.3791,1.6663 -1.7198,0.7614 -2.3517,2.5426 -2.836,4.252 -0.9335,0.2371 -1.432,0.8476 -1.5022,1.8316 -0.716,-0.1293 -1.4319,-0.2586 -2.141,-0.3878 -2.1831,-10.8315 -10.0313,-19.9672 -19.5425,-24.9158 -8.5007,-3.8857 -18.0965,-3.742 -27.2013,-3.1674 -12.8525,1.221 -25.7901,4.4675 -36.9864,11.2186 -5.8544,3.3685 -10.179,8.7266 -15.0998,13.2869 -16.5386,16.0388 -35.4701,30.3026 -57.3647,37.5425 -16.7771,5.6023 -35.225,6.2056 -52.1354,0.8332 -16.0262,-4.6542 -29.679,-15.9229 -39.0858,-29.8074 -11.7929,-17.3099 -17.6758,-39.1939 -14.4819,-60.188 2.3305,-15.5861 10.2842,-30.1086 21.8174,-40.5298 7.4058,-6.9598 16.7424,-11.6066 26.5836,-13.6248 4.3943,-1.0774 8.9642,-1.0056 13.3516,-2.1117 15.5977,-3.5122 31.0622,-9.2294 43.964,-19.0695 6.2826,-4.7907 11.316,-11.0178 15.9702,-17.4103 7.5251,-10.6945 13.9413,-22.8116 15.366,-36.0986 0.4353,-4.8984 -0.021,-10.0912 -2.169,-14.5369 -3.9381,-5.0636 -8.2342,-9.8257 -12.2841,-14.7956 -8.2764,-8.7984 -16.398,-17.7548 -23.9796,-27.1994 -3.1658,-3.9719 -6.4581,-7.8791 -8.929,-12.3613 -6.2897,-11.1326 -9.5258,-23.7739 -11.428,-36.3929 -0.7441,-4.5034 -0.9337,-9.0786 -1.6778,-13.5746 2.3938,-0.7183 4.8928,-0.8476 7.3216,-1.3647 1.7901,-0.2371 3.6292,-0.3807 5.2859,-1.1707 m 136.6532,83.0643 c -0.8424,16.7781 -1.9023,33.5919 -4.4927,50.1982 -3.0184,14.7956 -9.1747,28.7437 -16.4961,41.7942 -7.5393,12.8565 -16.6083,25.2246 -28.7881,33.8217 -7.1111,5.0779 -15.4433,8.0299 -23.8183,10.0554 -16.6575,3.9073 -33.9897,3.857 -50.844,1.4366 10.038,3.2823 20.4207,5.4658 30.8652,6.9381 14.3555,2.0614 29.1953,0.8188 42.9187,-4.0222 15.724,-5.3939 29.5882,-15.9162 39.6967,-29.3112 11.3789,-15.09 18.7289,-33.3053 21.2489,-52.1798 2.0919,-17.0937 -0.4211,-34.4471 -4.9347,-50.9376 -0.7443,-2.3056 -1.1724,-4.7548 -2.2955,-6.9166 -0.9967,-0.3735 -2.0358,-0.6105 -3.0606,-0.8763 z" />
  </g>
</svg>
