<?xml version="1.0" encoding="UTF-8" standalone="no"?>
<!-- Created with Inkscape (http://www.inkscape.org/) -->

<svg
   xmlns:dc="http://purl.org/dc/elements/1.1/"
   xmlns:cc="http://creativecommons.org/ns#"
   xmlns:rdf="http://www.w3.org/1999/02/22-rdf-syntax-ns#"
   xmlns:svg="http://www.w3.org/2000/svg"
   xmlns="http://www.w3.org/2000/svg"
   xmlns:sodipodi="http://sodipodi.sourceforge.net/DTD/sodipodi-0.dtd"
   xmlns:inkscape="http://www.inkscape.org/namespaces/inkscape"
   width="117.47532mm"
   height="117.47532mm"
   viewBox="0 0 416.25113 416.25112"
   id="svg5214"
   version="1.1"
   inkscape:version="0.92.2 (5c3e80d, 2017-08-06)"
   sodipodi:docname="Nutrition.svg">
  <defs
     id="defs5216" />
  <sodipodi:namedview
     id="base"
     pagecolor="#ffffff"
     bordercolor="#666666"
     borderopacity="1.0"
     inkscape:pageopacity="0.0"
     inkscape:pageshadow="2"
     inkscape:zoom="0.35"
     inkscape:cx="715.50064"
     inkscape:cy="-260.92798"
     inkscape:document-units="px"
     inkscape:current-layer="layer1"
     showgrid="false"
     fit-margin-top="0"
     fit-margin-left="0"
     fit-margin-right="0"
     fit-margin-bottom="0"
     inkscape:window-width="1600"
     inkscape:window-height="837"
     inkscape:window-x="-8"
     inkscape:window-y="-8"
     inkscape:window-maximized="1" />
  <metadata
     id="metadata5219">
    <rdf:RDF>
      <cc:Work
         rdf:about="">
        <dc:format>image/svg+xml</dc:format>
        <dc:type
           rdf:resource="http://purl.org/dc/dcmitype/StillImage" />
        <dc:title />
      </cc:Work>
    </rdf:RDF>
  </metadata>
  <g
     inkscape:label="Layer 1"
     inkscape:groupmode="layer"
     id="layer1"
     transform="translate(764.83986,116.72765)">
    <circle
       style="fill:#9f92b3;fill-opacity:1;stroke-width:0.99997866"
       id="circle4361-4"
       cy="91.397911"
       cx="-556.71429"
       r="208.12556" />
    <path
       style="fill:#ffffff;stroke-width:0.99997866"
       d="m -540.8048,-43.3372 c 10.6658,-15.6777 29.8174,-23.8295 48.341,-24.4585 10.6788,0.013 21.4246,-0.5213 32.0223,1.1494 0.6148,9.0882 -1.9646,18.0026 -4.5174,26.6364 -5.2792,17.0406 -15.7576,33.3993 -32.0093,41.7521 -16.2256,8.7942 -35.7382,7.7517 -52.9929,2.8333 -2.2453,-16.3456 -0.1336,-33.9472 9.1551,-47.9139 z"
       id="path4187-4"
       inkscape:connector-curvature="0" />
    <path
       style="fill:#ffffff;stroke-width:0.99997866"
       d="m -594.0436,-34.2494 c 2.3789,-3.4082 4.758,-6.8296 7.2973,-10.1178 23.8705,19.4596 37.3952,50.0919 37.1412,80.7513 8.7808,-1.2563 15.3167,-7.8855 23.6295,-10.4378 9.8501,-3.2611 20.3816,-3.9159 30.6994,-3.5952 14.6217,0.735 27.5454,9.8767 36.0452,21.3575 14.2607,18.9516 19.9136,42.8751 21.5045,66.1706 v 13.1107 c -1.724,26.4094 -9.6227,52.7919 -25.3134,74.3234 -9.1818,12.6568 -21.1706,23.7765 -35.8183,29.7104 -10.6247,4.357 -22.6935,5.3728 -33.7602,2.0849 -7.6181,-1.9913 -14.6347,-6.4553 -22.7075,-6.4686 -9.8501,-0.5213 -18.2567,5.5866 -27.6925,7.3106 -16.0116,3.6621 -32.8783,-1.724 -45.802,-11.3337 -20.1546,-14.8757 -33.1723,-37.6762 -39.8811,-61.4797 2.4591,1.4301 4.8783,2.9536 7.2037,4.6243 9.6496,7.4176 20.3546,13.3647 30.0044,20.7955 12.5497,8.2597 24.8724,16.8667 37.1812,25.4875 7.618,-13.4317 17.6956,-25.3005 26.4364,-38.0102 6.4687,-9.0348 12.9637,-18.0566 19.3656,-27.1444 -38.2772,-27.5454 -77.0493,-54.4229 -115.4875,-81.7673 5.7202,-12.2427 14.0467,-23.3885 25.0724,-31.3413 -11.8277,-6.8964 -25.3004,-12.9107 -39.3201,-11.2398 -4.0362,0.3208 -7.431,3.2077 -9.1016,6.7628 -2.8067,7.6581 0.8286,15.7977 5.3861,21.9455 6.1479,8.0458 14.0737,14.5547 21.9725,20.8096 34.8692,24.3775 69.4715,49.1829 104.3778,73.4944 1.2963,0.8019 1.8711,1.9513 1.724,3.4482 -14.0467,19.1786 -27.5054,38.8252 -41.9261,57.6968 -20.5155,-13.6057 -40.5491,-27.9194 -61.0787,-41.5121 -6.1346,-4.758 -12.6037,-9.0749 -19.5666,-12.4967 -13.7657,-9.3956 -27.3854,-19.0186 -41.1111,-28.4814 -10.3778,-7.1599 -18.9046,-17.8297 -20.8825,-30.5594 v -4.0763 c 1.0558,-11.2138 8.9279,-19.6466 14.5816,-28.8014 9.7431,-14.6347 18.2697,-30.2183 30.0444,-43.3831 5.3059,-6.5355 14.3937,-7.5646 22.2395,-7.471 15.2497,0.8019 29.4964,7.4042 42.2871,15.3427 1.537,0.695 2.9136,2.272 4.7312,2.0314 12.8708,-1.8844 26.2355,-1.2161 38.7322,2.4726 8.5135,2.3255 14.8617,9.4357 23.7365,10.7988 0.5346,-26.7835 -11.0798,-53.7949 -31.9563,-70.8085 m -105.1978,75.5783 c -6.7894,10.5718 -13.4317,21.2506 -20.5155,31.6484 -3.3146,4.6644 -6.7628,10.0768 -5.8673,16.0916 1.4301,9.0615 8.1527,16.1447 15.4497,21.1566 37.4352,26.0354 74.8844,52.0439 112.3376,78.0523 9.9034,-13.9797 19.3655,-28.2674 29.3233,-42.2201 -6.2013,-4.6644 -12.6697,-8.9412 -19.0716,-13.3247 -4.9183,6.3752 -9.3956,13.0847 -14.3007,19.4726 -3.3412,-2.3657 -6.6558,-4.7713 -9.9435,-7.2172 4.6644,-6.4686 9.3823,-12.8977 13.9527,-19.4195 -4.6377,-3.328 -9.4491,-6.4153 -13.9937,-9.8501 -4.9584,6.6156 -9.5427,13.4857 -14.3277,20.2215 -3.3413,-2.3789 -6.7093,-4.7045 -10.0508,-7.0567 4.5308,-6.7895 9.262,-13.4587 14.0597,-20.0746 -4.6644,-3.4482 -9.4357,-6.7627 -14.3407,-9.8634 -4.4238,6.6692 -8.861,13.3517 -13.4987,19.8876 -3.4349,-2.232 -6.8162,-4.5575 -10.1578,-6.9365 4.5441,-6.6825 9.0348,-13.3917 13.6457,-20.0345 -4.5709,-3.3012 -9.2219,-6.4554 -13.8727,-9.6496 -4.8114,6.5355 -9.3021,13.3117 -14.0597,19.9006 -3.3947,-2.3924 -6.7895,-4.7713 -10.1038,-7.2707 4.8114,-6.4687 9.2219,-13.2317 14.0067,-19.7136 -4.7847,-3.6887 -9.1417,-7.872 -13.7927,-11.7207 -4.651,6.4553 -9.2085,12.9637 -14.0067,19.3126 -3.3011,-2.4058 -6.6157,-4.7847 -9.9035,-7.1905 5.199,-7.2572 10.2108,-14.6617 15.7837,-21.6245 -2.3523,-4.1432 -4.6377,-8.313 -6.7494,-12.5768 z"
       id="path4189-1"
       inkscape:connector-curvature="0" />
    <path
       d="m -606.0934,182.096 c -4.4305,-3.1134 -30.0823,-20.9366 -57.0038,-39.6072 -26.9214,-18.6706 -50.8859,-35.8182 -53.2548,-38.1062 -9.378,-9.059 -11.1018,-18.6066 -5.0706,-28.0834 1.6864,-2.6495 7.3717,-11.4178 12.6347,-19.4846 l 9.5682,-14.6677 3.1563,5.944 3.1562,5.944 -1.9938,2.4366 c -4.2452,5.1882 -13.1027,17.9136 -13.1027,18.8236 0,0.9734 8.4275,7.4279 9.6571,7.3962 0.3693,-0.01 3.6581,-4.2405 7.3083,-9.4021 l 6.6369,-9.3848 6.3862,5.5212 c 3.5124,3.0366 6.2517,5.9531 6.0874,6.481 -0.1642,0.5279 -3.0944,4.8757 -6.5114,9.6618 -3.4171,4.7861 -6.2128,8.8811 -6.2128,9.1001 0,1.0636 10.1398,7.886 10.7298,7.2194 0.3735,-0.4221 3.5919,-4.9179 7.152,-9.9907 l 6.473,-9.2232 6.6764,4.6154 6.6765,4.6154 -6.7292,9.7324 c -3.701,5.3528 -6.7291,9.9416 -6.7291,10.1977 0,0.7041 9.2736,6.802 10.3168,6.7838 0.5005,-0.01 3.6924,-4.2524 7.0929,-9.4304 3.4005,-5.178 6.349,-9.4146 6.5521,-9.4146 0.2031,0 3.3991,2.0446 7.1024,4.5435 l 6.7332,4.5435 -3.072,4.2133 c -6.0496,8.2971 -10.4758,14.8507 -10.4758,15.5127 0,0.8507 8.478,7.1126 9.6299,7.1126 0.4713,0 3.8525,-4.2359 7.5138,-9.4131 3.6613,-5.1772 6.9751,-9.4209 7.3639,-9.4305 0.3887,-0.01 3.5181,1.957 6.9541,4.3699 l 6.2473,4.3874 -6.7297,9.5 c -3.7013,5.2249 -6.7296,9.6853 -6.7296,9.9118 0,0.2266 2.2841,2.0324 5.076,4.0129 l 5.0759,3.6009 7.1021,-9.7409 7.102,-9.7409 9.2873,6.4356 9.2873,6.4355 -3.7986,5.3888 c -2.0892,2.9638 -8.3783,12.0577 -13.9757,20.2086 -5.5974,8.1506 -10.4278,15.1147 -10.7337,15.4756 -0.3063,0.3611 -4.1819,-1.8907 -8.6124,-5.004 z"
       id="path7587"
       inkscape:connector-curvature="0"
       style="opacity:1;fill:#9888b1;fill-opacity:1;stroke-width:0.99997866" />
  </g>
</svg>
