<?xml version="1.0" encoding="UTF-8" standalone="no"?>
<!-- Created with Inkscape (http://www.inkscape.org/) -->

<svg
   xmlns:dc="http://purl.org/dc/elements/1.1/"
   xmlns:cc="http://creativecommons.org/ns#"
   xmlns:rdf="http://www.w3.org/1999/02/22-rdf-syntax-ns#"
   xmlns:svg="http://www.w3.org/2000/svg"
   xmlns="http://www.w3.org/2000/svg"
   xmlns:sodipodi="http://sodipodi.sourceforge.net/DTD/sodipodi-0.dtd"
   xmlns:inkscape="http://www.inkscape.org/namespaces/inkscape"
   width="117.47532mm"
   height="117.47532mm"
   viewBox="0 0 416.25113 416.25112"
   id="svg4329"
   version="1.1"
   inkscape:version="0.92.2 (5c3e80d, 2017-08-06)"
   sodipodi:docname="Internal.svg">
  <defs
     id="defs4331" />
  <sodipodi:namedview
     id="base"
     pagecolor="#ffffff"
     bordercolor="#666666"
     borderopacity="1.0"
     inkscape:pageopacity="0.0"
     inkscape:pageshadow="2"
     inkscape:zoom="0.49497475"
     inkscape:cx="-105.14098"
     inkscape:cy="227.10676"
     inkscape:document-units="px"
     inkscape:current-layer="layer1"
     showgrid="false"
     fit-margin-top="0"
     fit-margin-left="0"
     fit-margin-right="0"
     fit-margin-bottom="0"
     inkscape:window-width="1600"
     inkscape:window-height="837"
     inkscape:window-x="-8"
     inkscape:window-y="-8"
     inkscape:window-maximized="1" />
  <metadata
     id="metadata4334">
    <rdf:RDF>
      <cc:Work
         rdf:about="">
        <dc:format>image/svg+xml</dc:format>
        <dc:type
           rdf:resource="http://purl.org/dc/dcmitype/StillImage" />
        <dc:title />
      </cc:Work>
    </rdf:RDF>
  </metadata>
  <g
     inkscape:label="Layer 1"
     inkscape:groupmode="layer"
     id="layer1"
     transform="translate(1134.1255,227.08478)">
    <circle
       style="fill:#9f92b3;fill-opacity:1"
       id="circle4606"
       cy="-18.959211"
       cx="-925.99994"
       r="208.12556" />
    <path
       inkscape:connector-curvature="0"
       style="opacity:1;fill:#ffffff;fill-opacity:1;stroke:none;stroke-width:1.19811118;stroke-miterlimit:4;stroke-dasharray:none;stroke-opacity:1"
       d="m -945.20924,-156.74981 h 38.0116 c -0.6627,7.50007 0.035,16.27901 6.6861,21.08137 9.0233,6.23256 19.6395,9.58138 29.8953,13.23258 7.4768,2.77901 14.4768,8.61626 16.1628,16.74418 3.3837,13.744159 -1.7674,27.616233 -0.3372,41.453413 1.0582,10.63951 2.0232,21.499937 5.907,31.558104 3.3837,8.837253 8.2209,17.313983 9.1395,26.895359 1.0931,10.220944 1.2326,20.651085 4.3837,30.534849 2.4767,7.802368 4.0697,16.081353 8.1745,23.232526 4.6279,3.209382 10.7674,2.720964 15.7209,5.27915 2.2558,1.639484 3.6395,4.151076 5.4651,6.209217 2.814,3.534936 7.0813,5.407046 10.3022,8.499984 -0.093,2.372068 -2.9418,2.255799 -4.686,2.186037 -5.1162,-0.406942 -8.8604,-4.244178 -12.9651,-6.872039 -0.6163,14.06972 12.3604,23.569795 13.3721,37.19769 -1.2675,0.22091 -2.5465,0.39532 -3.8256,0.51159 -0.1744,0.8721 -0.5233,2.61623 -0.6977,3.48834 -3.779,1.10464 -6.1511,-3.43021 -8.5813,-5.616247 0.9302,2.569727 2.8139,5.244187 1.9535,8.069787 -1.6512,1.86048 -4.1977,0.67445 -5.3721,-1.06976 -4,-5.05815 -6.2326,-11.220951 -9.6744,-16.639537 0.6163,4.453463 1.7791,8.860419 1.8953,13.383727 0.1628,1.61623 -0.8023,3.3837 -2.593,3.31385 -3.9069,-5.77893 -4.6396,-12.976698 -7.779,-19.139407 -3.0001,-7.744234 -7.721,-14.848899 -9.3024,-23.093003 -1.5698,-6.720977 -4.8023,-12.872146 -8.1744,-18.837198 -6.5698,-11.895396 -11.4884,-24.627932 -15.8488,-37.476824 -2.1861,-6.499978 -4.7094,-12.941821 -5.8954,-19.732559 -1.4302,-6.941801 -1.3023,-14.174362 -3.6628,-20.930219 -3.3954,16.186083 -0.4534,32.627958 0.9767,48.848922 1.1513,8.953434 3.6629,17.662703 5.4652,26.488328 3.4535,18.127868 8.5581,36.1163 8.5814,54.709245 0.1628,7.360455 -0.2674,14.720915 -0.6628,22.069745 h -55.8605 c -0.7791,-9.55812 -1.8372,-19.104616 -2.6279,-28.662738 -2.8837,0.09302 -5.779,0.09302 -8.6628,0 -0.8256,9.558122 -1.7326,19.116248 -2.7093,28.662738 h -55.8255 c -0.3139,-9.68602 -1.0233,-19.395377 -0.3139,-29.081395 0.8721,-15.988338 5.2906,-31.453464 8.1744,-47.127875 1.8255,-9.162719 4.5697,-18.151121 5.6279,-27.453451 1.4185,-16.09298 4.3604,-32.406872 0.9302,-48.465059 -2.9651,9.000029 -2.3024,18.732468 -5.2093,27.755839 -6,18.302271 -12.1744,36.720812 -21.88376,53.464987 -3.8953,6.581454 -6.1976,13.895316 -7.9185,21.302369 -3.8372,9.30233 -8.8023,18.162748 -11.7093,27.83714 -1.0233,3.465085 -2.2907,6.941885 -4.8256,9.627885 -3.6744,-5.3372 -0.059,-11.802296 0.2442,-17.593031 -4.3488,6.476724 -6.314,14.918661 -13.1047,19.465141 -3.8488,-2.33719 -1.4418,-6.48835 -0.093,-9.639512 -2.3953,2.651112 -4.8255,5.907002 -8.7559,6.023272 -0.046,-1.02326 -0.1627,-3.05814 -0.2092,-4.08149 -0.9069,0.0114 -2.7093,0.0463 -3.6163,0.0586 -0.3255,-13.895313 13.7093,-23.430268 12.907,-37.60463 -4.128,2.546472 -7.8488,6.395422 -12.9419,6.767484 -1.7674,0.104642 -4.6743,0.313927 -4.7441,-2.127903 3.2209,-3.081398 7.4418,-5.000016 10.2906,-8.500071 1.814,-2.069768 3.2443,-4.534852 5.4652,-6.209217 4.5697,-2.232633 9.872,-2.255887 14.4883,-4.360535 1.9071,-0.837227 2.4652,-3.081399 3.2908,-4.790645 2.8604,-7.488353 4.9883,-15.232587 7.0929,-22.941853 3.035,-10.825632 2.0582,-22.244149 4.5698,-33.151083 2.5465,-9.651224 7.8722,-18.302358 10.3372,-27.97675 2.02326,-7.953518 2.73246,-16.162824 3.60466,-24.302294 1.4185,-14.17453 -3.98836,-28.500054 -0.059,-42.511633 2.3255,-8.73252 10.6162,-14.17445 18.7907,-16.76743 9.1046,-2.9535 18.1511,-6.54648 26.1859,-11.82563 6.849,-4.75577 7.8838,-13.70929 7.035,-21.37205 z"
       id="path4745-2"
       inkscape:export-filename="E:\01 Personal\04 Current Projects\01 AftabeShafa\ShafaDoc\Logos and Icons\Icons\PNG\Color\Inner.png"
       inkscape:export-xdpi="99.992851"
       inkscape:export-ydpi="99.992851" />
    <circle
       style="opacity:1;fill:#9888b1;fill-opacity:1;stroke:none;stroke-width:0.77390677;stroke-linecap:square;stroke-linejoin:miter;stroke-miterlimit:4;stroke-dasharray:none;stroke-opacity:1"
       id="path4136-4"
       cx="-923.17401"
       cy="-111.03075"
       inkscape:export-filename="E:\01 Personal\04 Current Projects\01 AftabeShafa\ShafaDoc\Logos and Icons\Icons\PNG\Color\Inner.png"
       inkscape:export-xdpi="99.992851"
       inkscape:export-ydpi="99.992851"
       r="22.114779" />
    <ellipse
       cy="-13.509549"
       cx="-925.99994"
       id="circle4138-9"
       style="opacity:1;fill:#9888b1;fill-opacity:1;stroke:none;stroke-width:0.6110453;stroke-linecap:square;stroke-linejoin:miter;stroke-miterlimit:4;stroke-dasharray:none;stroke-opacity:1"
       inkscape:export-filename="E:\01 Personal\04 Current Projects\01 AftabeShafa\ShafaDoc\Logos and Icons\Icons\PNG\Color\Inner.png"
       inkscape:export-xdpi="99.992851"
       inkscape:export-ydpi="99.992851"
       rx="27.9555"
       ry="27.955502" />
    <ellipse
       style="opacity:1;fill:#9888b1;fill-opacity:1;stroke:none;stroke-width:0.53032881;stroke-linecap:square;stroke-linejoin:miter;stroke-miterlimit:4;stroke-dasharray:none;stroke-opacity:1"
       id="circle4140-8"
       cx="-945.87518"
       cy="-68.730331"
       inkscape:export-filename="E:\01 Personal\04 Current Projects\01 AftabeShafa\ShafaDoc\Logos and Icons\Icons\PNG\Color\Inner.png"
       inkscape:export-xdpi="99.992851"
       inkscape:export-ydpi="99.992851"
       rx="17.598919"
       ry="17.598921" />
    <ellipse
       cy="-55.903511"
       cx="-906.7934"
       id="circle4142-5"
       style="opacity:1;fill:#9888b1;fill-opacity:1;stroke:none;stroke-width:0.6110453;stroke-linecap:square;stroke-linejoin:miter;stroke-miterlimit:4;stroke-dasharray:none;stroke-opacity:1"
       inkscape:export-filename="E:\01 Personal\04 Current Projects\01 AftabeShafa\ShafaDoc\Logos and Icons\Icons\PNG\Color\Inner.png"
       inkscape:export-xdpi="99.992851"
       inkscape:export-ydpi="99.992851"
       rx="14.087672"
       ry="14.087674" />
  </g>
</svg>
