<?xml version="1.0" encoding="UTF-8" standalone="no"?>
<!-- Created with Inkscape (http://www.inkscape.org/) -->

<svg
   xmlns:dc="http://purl.org/dc/elements/1.1/"
   xmlns:cc="http://creativecommons.org/ns#"
   xmlns:rdf="http://www.w3.org/1999/02/22-rdf-syntax-ns#"
   xmlns:svg="http://www.w3.org/2000/svg"
   xmlns="http://www.w3.org/2000/svg"
   xmlns:sodipodi="http://sodipodi.sourceforge.net/DTD/sodipodi-0.dtd"
   xmlns:inkscape="http://www.inkscape.org/namespaces/inkscape"
   width="117.47761mm"
   height="117.47761mm"
   viewBox="0 0 117.4776 117.47761"
   version="1.1"
   id="svg1785"
   inkscape:version="0.92.2 (5c3e80d, 2017-08-06)"
   sodipodi:docname="Expert.svg">
  <defs
     id="defs1779" />
  <sodipodi:namedview
     id="base"
     pagecolor="#ffffff"
     bordercolor="#666666"
     borderopacity="1.0"
     inkscape:pageopacity="0.0"
     inkscape:pageshadow="2"
     inkscape:zoom="0.7"
     inkscape:cx="478.79735"
     inkscape:cy="204.23528"
     inkscape:document-units="mm"
     inkscape:current-layer="layer1"
     showgrid="false"
     fit-margin-top="0"
     fit-margin-left="0"
     fit-margin-right="0"
     fit-margin-bottom="0"
     inkscape:window-width="1600"
     inkscape:window-height="837"
     inkscape:window-x="-8"
     inkscape:window-y="-8"
     inkscape:window-maximized="1" />
  <metadata
     id="metadata1782">
    <rdf:RDF>
      <cc:Work
         rdf:about="">
        <dc:format>image/svg+xml</dc:format>
        <dc:type
           rdf:resource="http://purl.org/dc/dcmitype/StillImage" />
        <dc:title></dc:title>
      </cc:Work>
    </rdf:RDF>
  </metadata>
  <g
     inkscape:label="Layer 1"
     inkscape:groupmode="layer"
     id="layer1"
     transform="translate(75.144291,-94.719463)">
    <circle
       inkscape:export-ydpi="32.43"
       inkscape:export-xdpi="32.43"
       inkscape:export-filename="C:\Users\nacer\Documents\Projects\VS\ShadaDocStandPanel\ShadaDocStandPanel\bin\Debug\Images-color\شنوایی.png"
       style="opacity:1;fill:#5d4485;fill-opacity:1;stroke:none;stroke-width:2.64583302;stroke-linecap:round;stroke-miterlimit:4;stroke-dasharray:none;stroke-opacity:1"
       id="circle1738"
       cx="-16.405487"
       cy="153.45827"
       r="58.738804" />
    <path
       inkscape:connector-curvature="0"
       style="fill:#ffffff;fill-opacity:1;fill-rule:evenodd;stroke:none;stroke-width:1.10131025"
       d="m -19.738406,114.42431 c 1.24917,-0.45757 2.62326,-0.24967 3.91417,-0.29125 2.20689,-0.0834 4.62212,0.24965 6.37094,1.74709 1.9155,1.58062 2.87327,3.99311 3.4562,6.36408 0.41642,2.03818 0.83284,4.07631 1.24918,6.11456 0.49973,1.99661 0.74961,4.03474 1.2492,6.03132 0.16656,0.49917 0.2083,0.99828 0.33316,1.49744 0.62461,0.91513 0.87447,2.03818 1.20766,3.07814 0.58287,2.12133 0.74944,4.40913 0.0834,6.53048 -0.45817,1.62227 -1.5408,3.03654 -2.78997,4.20116 1.7905,4.03474 2.4568,8.52715 1.87379,12.89468 -0.45802,3.95153 -1.95707,7.77835 -4.28893,10.98112 1.87381,1.83027 3.62277,3.74365 5.49656,5.53232 2.45683,2.49572 4.99685,4.90827 7.45365,7.32079 0.79118,0.83193 1.74885,1.49744 2.1653,2.579 0.83275,1.74696 0.12485,3.90999 -1.29083,5.19938 -1.29089,0.87351 -2.29026,2.28778 -3.8726,2.74532 -1.66565,0.41596 -3.58103,-0.0834 -4.78866,-1.33107 -0.62461,-0.62391 -1.08263,-1.33096 -1.62393,-1.95499 -3.62278,-4.53387 -7.28712,-9.02628 -10.90987,-13.56015 -3.91419,2.37095 -8.53632,3.49399 -13.07513,3.24448 -4.12236,-0.20805 -8.161553,-1.49744 -11.659302,-3.66048 -4.663665,-2.82849 -8.24484,-7.32079 -10.035397,-12.43711 -1.623936,-4.70021 -1.748932,-9.94125 -0.291452,-14.68317 0.707927,-2.32938 1.79056,-4.53399 3.123044,-6.53057 0.791181,1.24791 2.08198,2.16304 3.539461,2.45415 -2.040382,3.03654 -3.206298,6.73848 -3.248039,10.39893 -0.124827,4.65873 1.457508,9.35897 4.413954,12.93627 2.956446,3.61874 7.203808,6.11457 11.78419,6.988 3.830941,0.70719 7.870101,0.24962 11.451191,-1.33099 3.66432,-1.49756 6.78736,-4.24279 8.86943,-7.61199 2.12369,-3.45242 3.16461,-7.57047 2.87316,-11.64677 -0.16657,-2.28778 -0.74947,-4.49241 -1.58236,-6.61374 -2.12356,0.3744 -4.37222,-0.0834 -6.24603,-1.12304 -1.74896,-0.99842 -3.4145,-2.24618 -4.6637,-3.82682 -0.29156,-0.3328 -0.45801,-0.74874 -0.58301,-1.16471 -3.62274,-3.16123 -7.24538,-6.32251 -10.826553,-9.48374 -1.832102,-1.74706 -3.081329,-4.11801 -3.33121,-6.61376 -0.333134,-2.49569 0.58293,-5.03312 2.331863,-6.82162 0.916065,-1.16476 1.915525,-2.57903 3.53946,-2.78695 1.70725,-0.29122 3.2479,1.28951 3.12302,2.95329 -0.0834,1.33107 -0.99935,2.66215 -2.33187,2.99486 -0.37482,0.12477 -0.74955,0.16631 -1.12429,0.208 -0.24987,0 -0.541325,-0.0411 -0.624608,0.24951 -0.499732,1.24796 -0.749469,2.7454 -0.208166,4.03487 0.374734,0.99831 1.124234,1.78853 1.915384,2.49575 3.49789,3.078 7.12052,6.03129 10.65998,9.02626 0.54131,0.24951 1.20763,0.24951 1.66565,0.70708 0.87447,0.8735 1.66568,1.87181 2.83159,2.41254 0.95775,0.58231 2.16527,1.08145 3.28959,0.62391 0.87446,-0.45757 1.58236,-1.24784 1.79053,-2.20449 0.37473,-1.7055 -0.16657,-3.36928 -0.74962,-4.9083 -0.29144,-0.79036 -0.0411,-1.62232 0.16663,-2.37095 -0.33308,-2.32937 -0.83281,-4.65878 -1.20754,-6.98813 -0.58302,-2.70363 -0.54134,-5.61532 -1.83225,-8.15272 -0.58287,-1.24785 -1.74882,-2.07975 -2.95644,-2.66209 -0.45802,-0.16643 -0.99935,-0.37437 -1.49905,-0.20803 -0.62459,0.3744 -0.91607,1.12305 -1.49909,1.53905 -0.70789,0.49911 -1.54065,0.9151 -2.41514,0.8735 -1.04103,-0.0834 -2.12364,-0.74868 -2.49843,-1.74695 -0.58299,-1.58073 0.16663,-3.66045 1.83227,-4.24276 z"
       id="path1758" />
    <path
       inkscape:connector-curvature="0"
       style="fill:#c0b2d6;fill-opacity:1;fill-rule:evenodd;stroke:none;stroke-width:1.10131025"
       d="m -41.932868,136.92743 c 2.498428,-0.66548 5.28842,0.7488 6.204484,3.16134 1.040892,2.41254 -0.0834,5.49055 -2.456828,6.69688 -2.290289,1.24781 -5.454875,0.41599 -6.870671,-1.78864 -1.332484,-1.95499 -1.124344,-4.74193 0.499758,-6.48889 0.707758,-0.79033 1.623936,-1.33107 2.623257,-1.58069 z"
       id="path1760" />
    <path
       inkscape:connector-curvature="0"
       style="fill:#ff0000;fill-opacity:1;fill-rule:evenodd;stroke:none;stroke-width:1.10131025"
       d="m -28.649576,119.49889 c 1.58237,-0.416 3.37287,0.49914 3.95591,1.99661 0.66619,1.53909 -0.0834,3.49411 -1.58236,4.24276 -1.45737,0.79036 -3.45618,0.29122 -4.330673,-1.12308 -0.874352,-1.2479 -0.707869,-2.99485 0.291592,-4.11801 0.458018,-0.49914 1.040921,-0.83194 1.665651,-0.99828 z"
       id="path1762" />
    <path
       inkscape:connector-curvature="0"
       style="fill:#ff0000;fill-opacity:1;fill-rule:evenodd;stroke:none;stroke-width:1.10131025"
       d="m -19.488696,114.09148 c 1.54079,-0.41599 3.33132,0.45757 3.91423,1.99661 0.66629,1.53899 -0.0411,3.49396 -1.54068,4.24273 -1.45737,0.7904 -3.49775,0.29112 -4.37222,-1.12301 -0.87444,-1.24793 -0.70787,-3.03658 0.29145,-4.11802 0.45805,-0.49917 1.04103,-0.83197 1.70736,-0.99831 z"
       id="path1764" />
  </g>
</svg>
