<?xml version="1.0" encoding="utf-8"?>
<!-- Generator: Adobe Illustrator 21.1.0, SVG Export Plug-In . SVG Version: 6.00 Build 0)  -->
<svg version="1.1"
	 id="svg3143" inkscape:version="0.92.2 (5c3e80d, 2017-08-06)" sodipodi:docname="File_2018.svg" xmlns:cc="http://creativecommons.org/ns#" xmlns:dc="http://purl.org/dc/elements/1.1/" xmlns:inkscape="http://www.inkscape.org/namespaces/inkscape" xmlns:rdf="http://www.w3.org/1999/02/22-rdf-syntax-ns#" xmlns:sodipodi="http://sodipodi.sourceforge.net/DTD/sodipodi-0.dtd" xmlns:svg="http://www.w3.org/2000/svg"
	 xmlns="http://www.w3.org/2000/svg" xmlns:xlink="http://www.w3.org/1999/xlink" x="0px" y="0px" viewBox="0 0 689 523.1"
	 style="enable-background:new 0 0 689 523.1;" xml:space="preserve">
<style type="text/css">
	.st0{filter:url(#filter2236-0);}
	.st1{fill:#B3B3B3;}
	.st2{fill:#2B2B2B;}
	.st3{fill:url(#path1218_1_);}
	.st4{fill:url(#path1220_1_);}
	.st5{fill:#9F92B3;stroke:#57407B;stroke-width:1.411;}
	.st6{fill:#FFFFFF;stroke:#57407B;stroke-width:0.7056;}
	.st7{fill:#F51E1E;}
	.st8{clip-path:url(#SVGID_2_);}
	.st9{fill:#A1A1A1;}
	.st10{fill:#9F9F9F;}
	.st11{fill:#9D9D9D;}
	.st12{fill:#9B9B9B;}
	.st13{fill:#A3A3A3;}
	.st14{fill:#A5A5A5;}
	.st15{fill:#A6A6A6;}
	.st16{fill:#A8A8A8;}
	.st17{fill:#A9A9A9;}
	.st18{fill:#AAAAAA;}
	.st19{fill:#ABABAB;}
	.st20{fill:#ADADAD;}
	.st21{fill:#AEAEAE;}
	.st22{fill:#AFAFAF;}
	.st23{fill:#B0B0B0;}
	.st24{fill:#B1B1B1;}
	.st25{fill:#B2B2B2;}
	.st26{fill:#B4B4B4;}
	.st27{fill:#B5B5B5;}
	.st28{fill:#B6B6B6;}
	.st29{fill:#B7B7B7;}
	.st30{fill:#B8B8B8;}
	.st31{fill:#B9B9B9;}
	.st32{fill:#BABABA;}
	.st33{fill:#BBBBBB;}
	.st34{fill:#BCBCBC;}
	.st35{fill:#BDBDBD;}
	.st36{fill:#BEBEBE;}
	.st37{fill:#BFBFBF;}
	.st38{fill:#C0C0C0;}
	.st39{fill:#C1C1C1;}
	.st40{fill:#C2C2C2;}
	.st41{fill:#C3C3C3;}
	.st42{fill:#C4C4C4;}
	.st43{fill:#C5C5C5;}
	.st44{fill:#C6C6C6;}
	.st45{fill:#C7C7C7;}
	.st46{fill:#C8C8C8;}
	.st47{fill:#C9C9C9;}
	.st48{fill:#CACACA;}
	.st49{fill:#CBCBCB;}
	.st50{fill:#CCCCCC;}
	.st51{fill:#CDCDCD;}
	.st52{fill:#CECECE;}
	.st53{fill:#CFCFCF;}
	.st54{fill:#D0D0D0;}
	.st55{fill:#D1D1D1;}
	.st56{fill:#D2D2D2;}
	.st57{fill:#D3D3D3;}
	.st58{fill:#D4D4D4;}
	.st59{fill:#D5D5D5;}
	.st60{fill:#D6D6D6;}
	.st61{fill:#D7D7D7;}
	.st62{fill:#D8D8D8;}
	.st63{fill:#D9D9D9;}
	.st64{fill:#DADADA;}
	.st65{fill:#DBDBDB;}
	.st66{fill:#DCDCDC;}
	.st67{fill:#DDDDDD;}
	.st68{fill:#DEDEDE;}
	.st69{fill:#DFDFDF;}
	.st70{fill:#E0E0E0;}
	.st71{fill:#E1E1E1;}
	.st72{fill:#E2E2E2;}
	.st73{fill:#E3E3E3;}
	.st74{fill:#E4E4E4;}
	.st75{fill:#E5E5E5;}
	.st76{fill:#E6E6E6;}
	.st77{fill:#E8E8E8;}
	.st78{fill:#E9E9E9;}
	.st79{fill:#EAEAEA;}
	.st80{fill:#EBEBEB;}
	.st81{fill:#EDEDED;}
	.st82{fill:#EEEEEE;}
	.st83{fill:#F0F0F0;}
	.st84{fill:#F2F2F2;}
	.st85{fill:#F4F4F4;}
	.st86{fill:#F6F6F6;}
	.st87{fill:#F8F8F8;}
	.st88{fill:url(#path1768_1_);}
	.st89{fill:#5D4485;}
	.st90{fill:#9F92B3;}
	.st91{fill:none;stroke:#A8A8A8;stroke-width:2.4692;stroke-linecap:round;}
	.st92{fill:none;stroke:#57407B;stroke-width:0.7056;stroke-linecap:round;}
	.st93{fill:#57407B;}
	.st94{fill:none;stroke:#57407B;stroke-width:0.2982;stroke-linecap:round;}
</style>
<filter  height="5.362957" id="filter2236-0" inkscape:collect="always" style="color-interpolation-filters:sRGB" width="1.629723" x="-0.31486148" y="-2.1814785">
	<feGaussianBlur  id="feGaussianBlur2238-8" inkscape:collect="always" stdDeviation="221.78365"></feGaussianBlur>
</filter>
<sodipodi:namedview  bordercolor="#666666" borderopacity="1.0" fit-margin-bottom="0" fit-margin-left="0" fit-margin-right="0" fit-margin-top="0" id="base" inkscape:current-layer="layer1" inkscape:cx="546.07485" inkscape:cy="137.2852" inkscape:document-units="mm" inkscape:pageopacity="0.0" inkscape:pageshadow="2" inkscape:window-height="837" inkscape:window-maximized="1" inkscape:window-width="1600" inkscape:window-x="-8" inkscape:window-y="-8" inkscape:zoom="0.35" pagecolor="#ffffff" showgrid="false">
	</sodipodi:namedview>
<g id="layer1" transform="translate(167.53885,-0.62900391)" inkscape:groupmode="layer" inkscape:label="Layer 1">
	<g id="path1214" inkscape:connector-curvature="0" class="st0">
		<path class="st1" d="M32.8,471.9c69.1,0,138.6,0,208,0s138.6,0,208,0c7.8,1.7,16.2,3.5,25.3,5.4c10.1,2.1,20.8,4.5,32.8,7
			c9.7,2.1,7.1,3.9-6.2,3.9c-87.6,0-174.9,0-262.5,0c-87.3,0-174.9,0-262.5,0c-13.3,0-15.3-1.8-4.9-3.9c12.7-2.5,24-4.9,34.7-7
			c9.7-1.9,18.5-3.7,26.9-5.4H32.8z"/>
	</g>
	<path id="path1216" inkscape:connector-curvature="0" class="st2" d="M-11.2,0.6h527.6c2.8,0,5.1,2.3,5.1,5.1V350H-16.3V5.7
		C-16.3,2.9-14,0.6-11.2,0.6z"/>
	
		<linearGradient id="path1218_1_" gradientUnits="userSpaceOnUse" x1="1437.9517" y1="544.55" x2="3457.9517" y2="-3163.4497" gradientTransform="matrix(9.225719e-02 0 0 -9.225719e-02 26.6987 54.4763)">
		<stop  offset="0" style="stop-color:#F2F2F2"/>
		<stop  offset="1" style="stop-color:#FFFFFF"/>
	</linearGradient>
	<path id="path1218" inkscape:connector-curvature="0" class="st3" d="M-7.4,10.3h520v330h-520V10.3z"/>
	
		<linearGradient id="path1220_1_" gradientUnits="userSpaceOnUse" x1="2218.093" y1="-4299.1182" x2="2601.093" y2="-2815.1182" gradientTransform="matrix(9.225719e-02 0 0 -9.225719e-02 26.6987 54.4763)">
		<stop  offset="0" style="stop-color:#9E9E9E"/>
		<stop  offset="0.7098" style="stop-color:#BFBDBD"/>
		<stop  offset="1" style="stop-color:#E0DCDC"/>
	</linearGradient>
	<path id="path1220" inkscape:connector-curvature="0" class="st4" d="M-16.3,350h537.8v36.2c0,5.2-4.2,9.3-9.3,9.3H-7
		c-5.2,0-9.3-4.2-9.3-9.3V350z"/>
	<path id="path1222" inkscape:connector-curvature="0" class="st5" d="M-81.8,137.8l-0.2-25.9c0,0,0.8-3.4,4.6-3.4
		c2.1,0,90.9,0.2,90.9,0.2l11.1,12.8v39.2l-105.4,0.6L-81.8,137.8L-81.8,137.8z"/>
	<path id="path1224" inkscape:connector-curvature="0" class="st6" d="M-62.2,121.5H143c3.8,0,6.8,3,6.8,6.8v23.4
		c0,3.8-3,6.8-6.8,6.8H-62.2c-3.8,0-6.8-3-6.8-6.8v-23.4C-69,124.5-66,121.5-62.2,121.5z"/>
	<path id="path1226" inkscape:connector-curvature="0" class="st6" d="M158.8,139.8l-2.3,17.6l-127-5.2L36,43.6l0.1-1.1l32.9-27.8
		h0.2h0.1c0,1.2-0.6,21.8-0.6,24.4c0.1,2.8-1.6,4.5-4.2,4.5l-28.2-0.7l28.2,0.7c2.7,0.1,4.3-1.8,4.2-4.5c-0.1-2.7,0.6-23.2,0.6-24.4
		l91.3,5.4c4.1,0.3,4.8,0.6,5.1,4.3c0.2,2.5-6.7,115.3-6.7,115.3L158.8,139.8z"/>
	<path id="path1228" inkscape:connector-curvature="0" class="st6" d="M-61.7,130.5h205.2c3.8,0,6.8,3,6.8,6.8v23.4
		c0,3.8-3,6.8-6.8,6.8H-61.7c-3.8,0-6.8-3-6.8-6.8v-23.4C-68.5,133.6-65.5,130.5-61.7,130.5z"/>
	<path id="path1230" inkscape:connector-curvature="0" class="st5" d="M-81.1,138.8c41.1,0,82.3,0,123.7-0.1
		c41.5,0,83.1-0.1,124.9-0.1c3.8,0,6.7,3.4,6.4,7.5c-1.8,24.7-3.6,48.7-5.4,72.1c-1.7,22.8-3.3,45-5,66.6c-0.3,3.5-3.3,6.3-6.8,6.3
		c-38.3-0.2-76.5-0.4-114.5-0.6c-37.9-0.2-75.7-0.4-113.5-0.6c-3.4,0-6.4-2.9-6.6-6.3c-1.5-21.4-3-43.5-4.6-66
		c-1.7-23.2-3.3-47-5-71.4C-87.8,142.2-85,138.8-81.1,138.8L-81.1,138.8z"/>
	<g id="g1236" transform="matrix(0.03254629,0,0,0.03254629,-152.50366,0.62900362)">
		<path id="path1232" inkscape:connector-curvature="0" class="st7" d="M8537.1,1191.7l817.4,49.5l-12.9,212.6l-817.4-49.5
			L8537.1,1191.7z"/>
		<path id="path1234" inkscape:connector-curvature="0" class="st7" d="M8823.8,1724.9l49.5-817.4l212.6,12.9l-49.5,817.4
			L8823.8,1724.9z"/>
	</g>
	<g id="g1766" transform="matrix(0.03254629,0,0,0.03254629,-152.50366,0.62900362)">
		<g>
			<defs>
				<polygon id="SVGID_1_" points="10838.6,12126.7 14095.6,12126.7 14257.2,13799.2 10631.7,13799.2 				"/>
			</defs>
			<clipPath id="SVGID_2_">
				<use xlink:href="#SVGID_1_"  style="overflow:visible;"/>
			</clipPath>
			<g id="g1764" class="st8">
				<path id="path1238" inkscape:connector-curvature="0" class="st9" d="M10645.8,12092.7v2.8l3625.5,31.2v-2.8L10645.8,12092.7z"
					/>
				<path id="path1240" inkscape:connector-curvature="0" class="st10" d="M10645.8,12101.2v-11.3l3625.5,31.2v8.5L10645.8,12101.2z
					"/>
				<path id="path1242" inkscape:connector-curvature="0" class="st11" d="M10645.8,12106.9v-11.3l3625.5,31.2v8.5L10645.8,12106.9z
					"/>
				<path id="path1244" inkscape:connector-curvature="0" class="st12" d="M10645.8,12112.5v-8.5l3625.5,28.3v11.3L10645.8,12112.5z
					"/>
				<path id="path1246" inkscape:connector-curvature="0" class="st11" d="M10645.8,12118.2v-8.5l3625.5,31.2v8.5L10645.8,12118.2z"
					/>
				<path id="path1248" inkscape:connector-curvature="0" class="st10" d="M10645.8,12126.7v-11.3l3625.5,31.2v8.5L10645.8,12126.7z
					"/>
				<path id="path1250" inkscape:connector-curvature="0" class="st9" d="M10645.8,12132.4v-8.5l3625.5,28.3v11.3L10645.8,12132.4z"
					/>
				<path id="path1252" inkscape:connector-curvature="0" class="st13" d="M10645.8,12138.1v-8.5l3625.5,28.3v11.3L10645.8,12138.1z
					"/>
				<path id="path1254" inkscape:connector-curvature="0" class="st14" d="M10645.8,12146.6v-11.3l3625.5,31.2v8.5L10645.8,12146.6z
					"/>
				<path id="path1256" inkscape:connector-curvature="0" class="st15" d="M10645.8,12152.2v-8.5l3625.5,28.3v11.3L10645.8,12152.2z
					"/>
				<path id="path1258" inkscape:connector-curvature="0" class="st16" d="M10645.8,12157.9v-8.5l3625.5,28.3v11.3L10645.8,12157.9z
					"/>
				<path id="path1260" inkscape:connector-curvature="0" class="st17" d="M10645.8,12166.4v-11.3l3625.5,31.2v8.5L10645.8,12166.4z
					"/>
				<path id="path1262" inkscape:connector-curvature="0" class="st18" d="M10645.8,12172.1v-11.3l3625.5,31.2v8.5L10645.8,12172.1z
					"/>
				<path id="path1264" inkscape:connector-curvature="0" class="st19" d="M10645.8,12177.7v-8.5l3625.5,28.3v11.3L10645.8,12177.7z
					"/>
				<path id="path1266" inkscape:connector-curvature="0" class="st20" d="M10645.8,12183.4v-8.5l3625.5,31.2v8.5L10645.8,12183.4z"
					/>
				<path id="path1268" inkscape:connector-curvature="0" class="st21" d="M10645.8,12191.9v-11.3l3625.5,31.2v8.5L10645.8,12191.9z
					"/>
				<path id="path1270" inkscape:connector-curvature="0" class="st22" d="M10645.8,12197.6v-8.5l3625.5,28.3v11.3L10645.8,12197.6z
					"/>
				<path id="path1272" inkscape:connector-curvature="0" class="st23" d="M10645.8,12203.3v-8.5l3625.5,28.3v11.3L10645.8,12203.3z
					"/>
				<path id="path1274" inkscape:connector-curvature="0" class="st23" d="M10645.8,12211.8v-11.3l3625.5,31.2v8.5L10645.8,12211.8z
					"/>
				<path id="path1276" inkscape:connector-curvature="0" class="st24" d="M10645.8,12217.4v-8.5l3625.5,28.3v11.3L10645.8,12217.4z
					"/>
				<path id="path1278" inkscape:connector-curvature="0" class="st25" d="M10645.8,12223.1v-8.5l3625.5,28.3v11.3L10645.8,12223.1z
					"/>
				<path id="path1280" inkscape:connector-curvature="0" class="st1" d="M10645.8,12231.6v-11.3l3625.5,31.2v8.5L10645.8,12231.6z"
					/>
				<path id="path1282" inkscape:connector-curvature="0" class="st26" d="M10645.8,12237.3v-11.3l3625.5,31.2v8.5L10645.8,12237.3z
					"/>
				<path id="path1284" inkscape:connector-curvature="0" class="st26" d="M10645.8,12242.9v-8.5l3625.5,28.3v11.3L10645.8,12242.9z
					"/>
				<path id="path1286" inkscape:connector-curvature="0" class="st27" d="M10645.8,12251.4v-11.3l3625.5,31.2v8.5L10645.8,12251.4z
					"/>
				<path id="path1288" inkscape:connector-curvature="0" class="st28" d="M10645.8,12257.1v-11.3l3625.5,31.2v8.5L10645.8,12257.1z
					"/>
				<path id="path1290" inkscape:connector-curvature="0" class="st28" d="M10645.8,12262.8v-8.5l3625.5,28.3l-2.8,11.3
					L10645.8,12262.8z"/>
				<path id="path1292" inkscape:connector-curvature="0" class="st29" d="M10645.8,12268.5v-8.5l3625.5,31.2l-2.8,8.5
					L10645.8,12268.5z"/>
				<path id="path1294" inkscape:connector-curvature="0" class="st29" d="M10645.8,12277v-11.3l3622.7,31.2v8.5L10645.8,12277z"/>
				<path id="path1296" inkscape:connector-curvature="0" class="st30" d="M10643,12282.6l2.8-8.5l3622.7,28.3v11.3L10643,12282.6z"
					/>
				<path id="path1298" inkscape:connector-curvature="0" class="st30" d="M10643,12288.3v-8.5l3625.5,28.3v11.3L10643,12288.3z"/>
				<path id="path1300" inkscape:connector-curvature="0" class="st31" d="M10643,12296.8v-11.3l3625.5,31.2v8.5L10643,12296.8z"/>
				<path id="path1302" inkscape:connector-curvature="0" class="st31" d="M10643,12302.5v-8.5l3625.5,28.3v11.3L10643,12302.5z"/>
				<path id="path1304" inkscape:connector-curvature="0" class="st32" d="M10643,12308.1v-8.5l3625.5,28.3v11.3L10643,12308.1z"/>
				<path id="path1306" inkscape:connector-curvature="0" class="st32" d="M10643,12316.6v-11.3l3625.5,31.2v8.5L10643,12316.6z"/>
				<path id="path1308" inkscape:connector-curvature="0" class="st33" d="M10643,12322.3v-11.3l3625.5,31.2v8.5L10643,12322.3z"/>
				<path id="path1310" inkscape:connector-curvature="0" class="st33" d="M10643,12328v-8.5l3625.5,28.3v11.3L10643,12328z"/>
				<path id="path1312" inkscape:connector-curvature="0" class="st34" d="M10643,12336.5v-11.3l3625.5,31.2v8.5L10643,12336.5z"/>
				<path id="path1314" inkscape:connector-curvature="0" class="st34" d="M10643,12342.2v-11.3l3625.5,31.2v8.5L10643,12342.2z"/>
				<path id="path1316" inkscape:connector-curvature="0" class="st34" d="M10643,12347.8v-8.5l3625.5,28.3v11.3L10643,12347.8z"/>
				<path id="path1318" inkscape:connector-curvature="0" class="st35" d="M10643,12353.5v-8.5l3625.5,31.2v8.5L10643,12353.5z"/>
				<path id="path1320" inkscape:connector-curvature="0" class="st35" d="M10643,12362v-11.3l3625.5,31.2v8.5L10643,12362z"/>
				<path id="path1322" inkscape:connector-curvature="0" class="st35" d="M10643,12367.7v-8.5l3625.5,28.3v11.3L10643,12367.7z"/>
				<path id="path1324" inkscape:connector-curvature="0" class="st36" d="M10643,12373.3v-8.5l3625.5,28.3v11.3L10643,12373.3z"/>
				<path id="path1326" inkscape:connector-curvature="0" class="st36" d="M10643,12381.8v-11.3l3625.5,31.2v8.5L10643,12381.8z"/>
				<path id="path1328" inkscape:connector-curvature="0" class="st36" d="M10643,12387.5v-8.5l3625.5,28.3v11.3L10643,12387.5z"/>
				<path id="path1330" inkscape:connector-curvature="0" class="st37" d="M10643,12393.2v-8.5l3625.5,28.3v11.3L10643,12393.2z"/>
				<path id="path1332" inkscape:connector-curvature="0" class="st37" d="M10643,12401.7v-11.3l3625.5,31.2v8.5L10643,12401.7z"/>
				<path id="path1334" inkscape:connector-curvature="0" class="st37" d="M10643,12407.4v-11.3l3625.5,31.2v8.5L10643,12407.4z"/>
				<path id="path1336" inkscape:connector-curvature="0" class="st37" d="M10643,12413v-8.5l3625.5,28.3v11.3L10643,12413z"/>
				<path id="path1338" inkscape:connector-curvature="0" class="st38" d="M10643,12421.5v-11.3l3625.5,31.2v8.5L10643,12421.5z"/>
				<path id="path1340" inkscape:connector-curvature="0" class="st38" d="M10643,12427.2v-11.3l3625.5,31.2v8.5L10643,12427.2z"/>
				<path id="path1342" inkscape:connector-curvature="0" class="st38" d="M10643,12432.9v-8.5l3625.5,28.3v11.3L10643,12432.9z"/>
				<path id="path1344" inkscape:connector-curvature="0" class="st38" d="M10643,12438.5v-8.5l3625.5,28.3v11.3L10643,12438.5z"/>
				<path id="path1346" inkscape:connector-curvature="0" class="st39" d="M10643,12447v-11.3l3625.5,31.2v8.5L10643,12447z"/>
				<path id="path1348" inkscape:connector-curvature="0" class="st39" d="M10643,12452.7v-8.5l3625.5,28.3v11.3L10643,12452.7z"/>
				<path id="path1350" inkscape:connector-curvature="0" class="st39" d="M10643,12458.4v-8.5l3625.5,28.3v11.3L10643,12458.4z"/>
				<path id="path1352" inkscape:connector-curvature="0" class="st39" d="M10643,12466.9v-11.3l3625.5,31.2v8.5L10643,12466.9z"/>
				<path id="path1354" inkscape:connector-curvature="0" class="st40" d="M10643,12472.6v-11.3l3625.5,31.2v8.5L10643,12472.6z"/>
				<path id="path1356" inkscape:connector-curvature="0" class="st40" d="M10643,12478.2v-8.5l3625.5,28.3v11.3L10643,12478.2z"/>
				<path id="path1358" inkscape:connector-curvature="0" class="st40" d="M10643,12486.7v-11.3l3625.5,31.2v8.5L10643,12486.7z"/>
				<path id="path1360" inkscape:connector-curvature="0" class="st40" d="M10643,12492.4v-11.3l3625.5,31.2v8.5L10643,12492.4z"/>
				<path id="path1362" inkscape:connector-curvature="0" class="st40" d="M10643,12498.1v-8.5l3625.5,28.3v11.3L10643,12498.1z"/>
				<path id="path1364" inkscape:connector-curvature="0" class="st41" d="M10643,12503.7v-8.5l3625.5,31.2v8.5L10643,12503.7z"/>
				<path id="path1366" inkscape:connector-curvature="0" class="st41" d="M10643,12512.2v-11.3l3625.5,31.2v8.5L10643,12512.2z"/>
				<path id="path1368" inkscape:connector-curvature="0" class="st41" d="M10643,12517.9v-8.5l3625.5,28.3v11.3L10643,12517.9z"/>
				<path id="path1370" inkscape:connector-curvature="0" class="st41" d="M10643,12523.6v-8.5l3625.5,28.3v11.3L10643,12523.6z"/>
				<path id="path1372" inkscape:connector-curvature="0" class="st41" d="M10643,12532.1v-11.3l3625.5,31.2v8.5L10643,12532.1z"/>
				<path id="path1374" inkscape:connector-curvature="0" class="st41" d="M10643,12537.7v-8.5l3625.5,28.3v11.3L10643,12537.7z"/>
				<path id="path1376" inkscape:connector-curvature="0" class="st42" d="M10643,12543.4v-8.5l3625.5,28.3v11.3L10643,12543.4z"/>
				<path id="path1378" inkscape:connector-curvature="0" class="st42" d="M10643,12551.9v-11.3l3625.5,31.2v8.5L10643,12551.9z"/>
				<path id="path1380" inkscape:connector-curvature="0" class="st42" d="M10643,12557.6v-11.3l3625.5,31.2v8.5L10643,12557.6z"/>
				<path id="path1382" inkscape:connector-curvature="0" class="st42" d="M10643,12563.3v-8.5l3625.5,28.3v11.3L10643,12563.3z"/>
				<path id="path1384" inkscape:connector-curvature="0" class="st42" d="M10643,12571.8v-11.3l3625.5,31.2v8.5L10643,12571.8z"/>
				<path id="path1386" inkscape:connector-curvature="0" class="st42" d="M10643,12577.4v-11.3l3625.5,31.2v8.5L10643,12577.4z"/>
				<path id="path1388" inkscape:connector-curvature="0" class="st43" d="M10643,12583.1v-8.5l3625.5,28.3v11.3L10643,12583.1z"/>
				<path id="path1390" inkscape:connector-curvature="0" class="st43" d="M10643,12588.8v-8.5l3625.5,31.2v8.5L10643,12588.8z"/>
				<path id="path1392" inkscape:connector-curvature="0" class="st43" d="M10643,12597.3v-11.3l3625.5,31.2v8.5L10643,12597.3z"/>
				<path id="path1394" inkscape:connector-curvature="0" class="st43" d="M10643,12602.9v-8.5l3625.5,28.3v11.3L10643,12602.9z"/>
				<path id="path1396" inkscape:connector-curvature="0" class="st43" d="M10643,12608.6v-8.5l3625.5,28.3l-2.8,11.3L10643,12608.6
					z"/>
				<path id="path1398" inkscape:connector-curvature="0" class="st43" d="M10643,12617.1v-11.3l3622.7,31.2v8.5L10643,12617.1z"/>
				<path id="path1400" inkscape:connector-curvature="0" class="st43" d="M10643,12622.8v-8.5l3622.7,28.3v11.3L10643,12622.8z"/>
				<path id="path1402" inkscape:connector-curvature="0" class="st43" d="M10640.2,12628.5l2.8-8.5l3622.7,28.3v11.3
					L10640.2,12628.5z"/>
				<path id="path1404" inkscape:connector-curvature="0" class="st44" d="M10640.2,12637v-11.3l3625.5,31.2v8.5L10640.2,12637z"/>
				<path id="path1406" inkscape:connector-curvature="0" class="st44" d="M10640.2,12642.6v-11.3l3625.5,31.2v8.5L10640.2,12642.6z
					"/>
				<path id="path1408" inkscape:connector-curvature="0" class="st44" d="M10640.2,12648.3v-8.5l3625.5,28.3v11.3L10640.2,12648.3z
					"/>
				<path id="path1410" inkscape:connector-curvature="0" class="st44" d="M10640.2,12656.8v-11.3l3625.5,31.2v8.5L10640.2,12656.8z
					"/>
				<path id="path1412" inkscape:connector-curvature="0" class="st44" d="M10640.2,12662.5v-11.3l3625.5,31.2v8.5L10640.2,12662.5z
					"/>
				<path id="path1414" inkscape:connector-curvature="0" class="st44" d="M10640.2,12668.1v-8.5l3625.5,28.3v11.3L10640.2,12668.1z
					"/>
				<path id="path1416" inkscape:connector-curvature="0" class="st44" d="M10640.2,12673.8v-8.5l3625.5,31.2v8.5L10640.2,12673.8z"
					/>
				<path id="path1418" inkscape:connector-curvature="0" class="st44" d="M10640.2,12682.3v-11.3l3625.5,31.2v8.5L10640.2,12682.3z
					"/>
				<path id="path1420" inkscape:connector-curvature="0" class="st44" d="M10640.2,12688v-8.5l3625.5,28.3v11.3L10640.2,12688z"/>
				<path id="path1422" inkscape:connector-curvature="0" class="st45" d="M10640.2,12693.7v-8.5l3625.5,28.3v11.3L10640.2,12693.7z
					"/>
				<path id="path1424" inkscape:connector-curvature="0" class="st45" d="M10640.2,12702.2v-11.3l3625.5,31.2v8.5L10640.2,12702.2z
					"/>
				<path id="path1426" inkscape:connector-curvature="0" class="st45" d="M10640.2,12707.8v-11.3l3625.5,31.2v8.5L10640.2,12707.8z
					"/>
				<path id="path1428" inkscape:connector-curvature="0" class="st45" d="M10640.2,12713.5v-8.5l3625.5,28.3v11.3L10640.2,12713.5z
					"/>
				<path id="path1430" inkscape:connector-curvature="0" class="st45" d="M10640.2,12722v-11.3l3625.5,31.2v8.5L10640.2,12722z"/>
				<path id="path1432" inkscape:connector-curvature="0" class="st45" d="M10640.2,12727.7v-11.3l3625.5,31.2v8.5L10640.2,12727.7z
					"/>
				<path id="path1434" inkscape:connector-curvature="0" class="st45" d="M10640.2,12733.3v-8.5l3625.5,28.3v11.3L10640.2,12733.3z
					"/>
				<path id="path1436" inkscape:connector-curvature="0" class="st45" d="M10640.2,12739v-8.5l3625.5,31.2v8.5L10640.2,12739z"/>
				<path id="path1438" inkscape:connector-curvature="0" class="st45" d="M10640.2,12747.5v-11.3l3625.5,31.2v8.5L10640.2,12747.5z
					"/>
				<path id="path1440" inkscape:connector-curvature="0" class="st45" d="M10640.2,12753.2v-8.5l3625.5,28.3v11.3L10640.2,12753.2z
					"/>
				<path id="path1442" inkscape:connector-curvature="0" class="st46" d="M10640.2,12758.9v-8.5l3625.5,28.3v11.3L10640.2,12758.9z
					"/>
				<path id="path1444" inkscape:connector-curvature="0" class="st46" d="M10640.2,12767.4v-11.3l3625.5,31.2v8.5L10640.2,12767.4z
					"/>
				<path id="path1446" inkscape:connector-curvature="0" class="st46" d="M10640.2,12773v-8.5l3625.5,28.3v11.3L10640.2,12773z"/>
				<path id="path1448" inkscape:connector-curvature="0" class="st46" d="M10640.2,12778.7v-8.5l3625.5,28.3v11.3L10640.2,12778.7z
					"/>
				<path id="path1450" inkscape:connector-curvature="0" class="st46" d="M10640.2,12787.2v-11.3l3625.5,31.2v8.5L10640.2,12787.2z
					"/>
				<path id="path1452" inkscape:connector-curvature="0" class="st46" d="M10640.2,12792.9v-11.3l3625.5,31.2v8.5L10640.2,12792.9z
					"/>
				<path id="path1454" inkscape:connector-curvature="0" class="st46" d="M10640.2,12798.5v-8.5l3625.5,28.3v11.3L10640.2,12798.5z
					"/>
				<path id="path1456" inkscape:connector-curvature="0" class="st46" d="M10640.2,12807v-11.3l3625.5,31.2v8.5L10640.2,12807z"/>
				<path id="path1458" inkscape:connector-curvature="0" class="st46" d="M10640.2,12812.7v-11.3l3625.5,31.2v8.5L10640.2,12812.7z
					"/>
				<path id="path1460" inkscape:connector-curvature="0" class="st46" d="M10640.2,12818.4v-8.5l3625.5,28.3v11.3L10640.2,12818.4z
					"/>
				<path id="path1462" inkscape:connector-curvature="0" class="st46" d="M10640.2,12824.1v-8.5l3625.5,31.2v8.5L10640.2,12824.1z"
					/>
				<path id="path1464" inkscape:connector-curvature="0" class="st46" d="M10640.2,12832.6v-11.3l3625.5,31.2v8.5L10640.2,12832.6z
					"/>
				<path id="path1466" inkscape:connector-curvature="0" class="st46" d="M10640.2,12838.2v-8.5l3625.5,28.3v11.3L10640.2,12838.2z
					"/>
				<path id="path1468" inkscape:connector-curvature="0" class="st47" d="M10640.2,12843.9v-8.5l3625.5,28.3v11.3L10640.2,12843.9z
					"/>
				<path id="path1470" inkscape:connector-curvature="0" class="st47" d="M10640.2,12852.4v-11.3l3625.5,31.2v8.5L10640.2,12852.4z
					"/>
				<path id="path1472" inkscape:connector-curvature="0" class="st47" d="M10640.2,12858.1v-8.5l3625.5,28.3v11.3L10640.2,12858.1z
					"/>
				<path id="path1474" inkscape:connector-curvature="0" class="st47" d="M10640.2,12863.7v-8.5l3625.5,28.3v11.3L10640.2,12863.7z
					"/>
				<path id="path1476" inkscape:connector-curvature="0" class="st47" d="M10640.2,12872.2v-11.3l3625.5,31.2v8.5L10640.2,12872.2z
					"/>
				<path id="path1478" inkscape:connector-curvature="0" class="st47" d="M10640.2,12877.9v-11.3l3625.5,31.2v8.5L10640.2,12877.9z
					"/>
				<path id="path1480" inkscape:connector-curvature="0" class="st47" d="M10640.2,12883.6v-8.5l3625.5,28.3v11.3L10640.2,12883.6z
					"/>
				<path id="path1482" inkscape:connector-curvature="0" class="st47" d="M10640.2,12892.1v-11.3l3625.5,31.2v8.5L10640.2,12892.1z
					"/>
				<path id="path1484" inkscape:connector-curvature="0" class="st47" d="M10640.2,12897.8v-11.3l3625.5,31.2v8.5L10640.2,12897.8z
					"/>
				<path id="path1486" inkscape:connector-curvature="0" class="st47" d="M10640.2,12903.4v-8.5l3625.5,28.3v11.3L10640.2,12903.4z
					"/>
				<path id="path1488" inkscape:connector-curvature="0" class="st47" d="M10640.2,12909.1v-8.5l3625.5,31.2v8.5L10640.2,12909.1z"
					/>
				<path id="path1490" inkscape:connector-curvature="0" class="st47" d="M10640.2,12917.6v-11.3l3625.5,31.2v8.5L10640.2,12917.6z
					"/>
				<path id="path1492" inkscape:connector-curvature="0" class="st47" d="M10640.2,12923.3v-8.5l3625.5,28.3v11.3L10640.2,12923.3z
					"/>
				<path id="path1494" inkscape:connector-curvature="0" class="st47" d="M10640.2,12928.9v-8.5l3625.5,28.3v11.3L10640.2,12928.9z
					"/>
				<path id="path1496" inkscape:connector-curvature="0" class="st47" d="M10640.2,12937.4v-11.3l3625.5,31.2v8.5L10640.2,12937.4z
					"/>
				<path id="path1498" inkscape:connector-curvature="0" class="st47" d="M10640.2,12943.1v-11.3l3625.5,31.2v8.5L10640.2,12943.1z
					"/>
				<path id="path1500" inkscape:connector-curvature="0" class="st48" d="M10640.2,12948.8v-8.5l3625.5,28.3l-2.8,11.3
					L10640.2,12948.8z"/>
				<path id="path1502" inkscape:connector-curvature="0" class="st48" d="M10640.2,12957.3v-11.3l3625.5,31.2l-2.8,8.5
					L10640.2,12957.3z"/>
				<path id="path1504" inkscape:connector-curvature="0" class="st48" d="M10640.2,12963v-11.3l3622.7,31.2v8.5L10640.2,12963z"/>
				<path id="path1506" inkscape:connector-curvature="0" class="st48" d="M10637.3,12968.6l2.8-8.5l3622.7,28.3v11.3
					L10637.3,12968.6z"/>
				<path id="path1508" inkscape:connector-curvature="0" class="st48" d="M10637.3,12974.3l2.8-8.5l3622.7,31.2v8.5
					L10637.3,12974.3z"/>
				<path id="path1510" inkscape:connector-curvature="0" class="st48" d="M10637.3,12982.8v-11.3l3625.5,31.2v8.5L10637.3,12982.8z
					"/>
				<path id="path1512" inkscape:connector-curvature="0" class="st48" d="M10637.3,12988.5v-8.5l3625.5,28.3v11.3L10637.3,12988.5z
					"/>
				<path id="path1514" inkscape:connector-curvature="0" class="st48" d="M10637.3,12994.1v-8.5l3625.5,28.3v11.3L10637.3,12994.1z
					"/>
				<path id="path1516" inkscape:connector-curvature="0" class="st48" d="M10637.3,13002.6v-11.3l3625.5,31.2v8.5L10637.3,13002.6z
					"/>
				<path id="path1518" inkscape:connector-curvature="0" class="st48" d="M10637.3,13008.3v-8.5l3625.5,28.3v11.3L10637.3,13008.3z
					"/>
				<path id="path1520" inkscape:connector-curvature="0" class="st48" d="M10637.3,13014v-8.5l3625.5,28.3v11.3L10637.3,13014z"/>
				<path id="path1522" inkscape:connector-curvature="0" class="st48" d="M10637.3,13022.5v-11.3l3625.5,31.2v8.5L10637.3,13022.5z
					"/>
				<path id="path1524" inkscape:connector-curvature="0" class="st48" d="M10637.3,13028.1v-11.3l3625.5,31.2v8.5L10637.3,13028.1z
					"/>
				<path id="path1526" inkscape:connector-curvature="0" class="st48" d="M10637.3,13033.8v-8.5l3625.5,28.3v11.3L10637.3,13033.8z
					"/>
				<path id="path1528" inkscape:connector-curvature="0" class="st48" d="M10637.3,13042.3v-11.3l3625.5,31.2v8.5L10637.3,13042.3z
					"/>
				<path id="path1530" inkscape:connector-curvature="0" class="st48" d="M10637.3,13048v-11.3l3625.5,31.2v8.5L10637.3,13048z"/>
				<path id="path1532" inkscape:connector-curvature="0" class="st49" d="M10637.3,13053.7v-8.5l3625.5,28.3v11.3L10637.3,13053.7z
					"/>
				<path id="path1534" inkscape:connector-curvature="0" class="st49" d="M10637.3,13059.3v-8.5l3625.5,31.2v8.5L10637.3,13059.3z"
					/>
				<path id="path1536" inkscape:connector-curvature="0" class="st49" d="M10637.3,13067.8v-11.3l3625.5,31.2v8.5L10637.3,13067.8z
					"/>
				<path id="path1538" inkscape:connector-curvature="0" class="st49" d="M10637.3,13073.5v-8.5l3625.5,28.3v11.3L10637.3,13073.5z
					"/>
				<path id="path1540" inkscape:connector-curvature="0" class="st49" d="M10637.3,13079.2v-8.5l3625.5,28.3v11.3L10637.3,13079.2z
					"/>
				<path id="path1542" inkscape:connector-curvature="0" class="st49" d="M10637.3,13087.7v-11.3l3625.5,31.2v8.5L10637.3,13087.7z
					"/>
				<path id="path1544" inkscape:connector-curvature="0" class="st49" d="M10637.3,13093.3v-8.5l3625.5,28.3v11.3L10637.3,13093.3z
					"/>
				<path id="path1546" inkscape:connector-curvature="0" class="st49" d="M10637.3,13099v-8.5l3625.5,28.3v11.3L10637.3,13099z"/>
				<path id="path1548" inkscape:connector-curvature="0" class="st49" d="M10637.3,13107.5v-11.3l3625.5,31.2v8.5L10637.3,13107.5z
					"/>
				<path id="path1550" inkscape:connector-curvature="0" class="st49" d="M10637.3,13113.2v-11.3l3625.5,31.2v8.5L10637.3,13113.2z
					"/>
				<path id="path1552" inkscape:connector-curvature="0" class="st49" d="M10637.3,13118.9v-8.5l3625.5,28.3v11.3L10637.3,13118.9z
					"/>
				<path id="path1554" inkscape:connector-curvature="0" class="st49" d="M10637.3,13127.4v-11.3l3625.5,31.2v8.5L10637.3,13127.4z
					"/>
				<path id="path1556" inkscape:connector-curvature="0" class="st49" d="M10637.3,13133v-11.3l3625.5,31.2v8.5L10637.3,13133z"/>
				<path id="path1558" inkscape:connector-curvature="0" class="st50" d="M10637.3,13138.7v-8.5l3625.5,28.3v11.3L10637.3,13138.7z
					"/>
				<path id="path1560" inkscape:connector-curvature="0" class="st50" d="M10637.3,13144.4v-8.5l3625.5,31.2v8.5L10637.3,13144.4z"
					/>
				<path id="path1562" inkscape:connector-curvature="0" class="st50" d="M10637.3,13152.9v-11.3l3625.5,31.2v8.5L10637.3,13152.9z
					"/>
				<path id="path1564" inkscape:connector-curvature="0" class="st50" d="M10637.3,13158.5v-8.5l3625.5,28.3v11.3L10637.3,13158.5z
					"/>
				<path id="path1566" inkscape:connector-curvature="0" class="st50" d="M10637.3,13164.2v-8.5l3625.5,28.3v11.3L10637.3,13164.2z
					"/>
				<path id="path1568" inkscape:connector-curvature="0" class="st50" d="M10637.3,13172.7v-11.3l3625.5,31.2v8.5L10637.3,13172.7z
					"/>
				<path id="path1570" inkscape:connector-curvature="0" class="st50" d="M10637.3,13178.4v-11.3l3625.5,31.2v8.5L10637.3,13178.4z
					"/>
				<path id="path1572" inkscape:connector-curvature="0" class="st50" d="M10637.3,13184.1v-8.5l3625.5,28.3v11.3L10637.3,13184.1z
					"/>
				<path id="path1574" inkscape:connector-curvature="0" class="st50" d="M10637.3,13192.6v-11.3l3625.5,31.2v8.5L10637.3,13192.6z
					"/>
				<path id="path1576" inkscape:connector-curvature="0" class="st50" d="M10637.3,13198.2v-11.3l3625.5,31.2v8.5L10637.3,13198.2z
					"/>
				<path id="path1578" inkscape:connector-curvature="0" class="st51" d="M10637.3,13203.9v-8.5l3625.5,28.3v11.3L10637.3,13203.9z
					"/>
				<path id="path1580" inkscape:connector-curvature="0" class="st51" d="M10637.3,13209.6v-8.5l3625.5,31.2v8.5L10637.3,13209.6z"
					/>
				<path id="path1582" inkscape:connector-curvature="0" class="st51" d="M10637.3,13218.1v-11.3l3625.5,31.2v8.5L10637.3,13218.1z
					"/>
				<path id="path1584" inkscape:connector-curvature="0" class="st51" d="M10637.3,13223.7v-8.5l3625.5,28.3v11.3L10637.3,13223.7z
					"/>
				<path id="path1586" inkscape:connector-curvature="0" class="st51" d="M10637.3,13229.4v-8.5l3625.5,28.3v11.3L10637.3,13229.4z
					"/>
				<path id="path1588" inkscape:connector-curvature="0" class="st51" d="M10637.3,13237.9v-11.3l3625.5,31.2v8.5L10637.3,13237.9z
					"/>
				<path id="path1590" inkscape:connector-curvature="0" class="st51" d="M10637.3,13243.6v-8.5l3625.5,28.3v11.3L10637.3,13243.6z
					"/>
				<path id="path1592" inkscape:connector-curvature="0" class="st51" d="M10637.3,13249.3v-8.5l3625.5,28.3v11.3L10637.3,13249.3z
					"/>
				<path id="path1594" inkscape:connector-curvature="0" class="st51" d="M10637.3,13257.8v-11.3l3625.5,31.2v8.5L10637.3,13257.8z
					"/>
				<path id="path1596" inkscape:connector-curvature="0" class="st52" d="M10637.3,13263.4v-11.3l3625.5,31.2v8.5L10637.3,13263.4z
					"/>
				<path id="path1598" inkscape:connector-curvature="0" class="st52" d="M10637.3,13269.1v-8.5l3625.5,28.3v11.3L10637.3,13269.1z
					"/>
				<path id="path1600" inkscape:connector-curvature="0" class="st52" d="M10637.3,13277.6v-11.3l3625.5,31.2v8.5L10637.3,13277.6z
					"/>
				<path id="path1602" inkscape:connector-curvature="0" class="st52" d="M10637.3,13283.3v-11.3l3625.5,31.2v8.5L10637.3,13283.3z
					"/>
				<path id="path1604" inkscape:connector-curvature="0" class="st52" d="M10637.3,13288.9v-8.5l3625.5,28.3v11.3L10637.3,13288.9z
					"/>
				<path id="path1606" inkscape:connector-curvature="0" class="st52" d="M10637.3,13294.6v-8.5l3625.5,31.2l-2.8,8.5
					L10637.3,13294.6z"/>
				<path id="path1608" inkscape:connector-curvature="0" class="st52" d="M10637.3,13303.1v-11.3l3625.5,31.2l-2.8,8.5
					L10637.3,13303.1z"/>
				<path id="path1610" inkscape:connector-curvature="0" class="st52" d="M10637.3,13308.8v-8.5l3622.7,28.3v11.3L10637.3,13308.8z
					"/>
				<path id="path1612" inkscape:connector-curvature="0" class="st53" d="M10634.5,13314.4l2.8-8.5l3622.7,28.3v11.3
					L10634.5,13314.4z"/>
				<path id="path1614" inkscape:connector-curvature="0" class="st53" d="M10634.5,13323v-11.3l3625.5,31.2v8.5L10634.5,13323z"/>
				<path id="path1616" inkscape:connector-curvature="0" class="st53" d="M10634.5,13328.6v-8.5l3625.5,28.3v11.3L10634.5,13328.6z
					"/>
				<path id="path1618" inkscape:connector-curvature="0" class="st53" d="M10634.5,13334.3v-8.5l3625.5,28.3v11.3L10634.5,13334.3z
					"/>
				<path id="path1620" inkscape:connector-curvature="0" class="st53" d="M10634.5,13342.8v-11.3l3625.5,31.2v8.5L10634.5,13342.8z
					"/>
				<path id="path1622" inkscape:connector-curvature="0" class="st53" d="M10634.5,13348.5v-11.3l3625.5,31.2v8.5L10634.5,13348.5z
					"/>
				<path id="path1624" inkscape:connector-curvature="0" class="st54" d="M10634.5,13354.1v-8.5l3625.5,28.3v11.3L10634.5,13354.1z
					"/>
				<path id="path1626" inkscape:connector-curvature="0" class="st54" d="M10634.5,13362.6v-11.3l3625.5,31.2v8.5L10634.5,13362.6z
					"/>
				<path id="path1628" inkscape:connector-curvature="0" class="st54" d="M10634.5,13368.3v-11.3l3625.5,31.2v8.5L10634.5,13368.3z
					"/>
				<path id="path1630" inkscape:connector-curvature="0" class="st54" d="M10634.5,13374v-8.5l3625.5,28.3v11.3L10634.5,13374z"/>
				<path id="path1632" inkscape:connector-curvature="0" class="st54" d="M10634.5,13379.6v-8.5l3625.5,31.2v8.5L10634.5,13379.6z"
					/>
				<path id="path1634" inkscape:connector-curvature="0" class="st54" d="M10634.5,13388.2v-11.3l3625.5,31.2v8.5L10634.5,13388.2z
					"/>
				<path id="path1636" inkscape:connector-curvature="0" class="st55" d="M10634.5,13393.8v-8.5l3625.5,28.3v11.3L10634.5,13393.8z
					"/>
				<path id="path1638" inkscape:connector-curvature="0" class="st55" d="M10634.5,13399.5v-8.5l3625.5,28.3v11.3L10634.5,13399.5z
					"/>
				<path id="path1640" inkscape:connector-curvature="0" class="st55" d="M10634.5,13408v-11.3l3625.5,31.2v8.5L10634.5,13408z"/>
				<path id="path1642" inkscape:connector-curvature="0" class="st55" d="M10634.5,13413.7v-11.3l3625.5,31.2v8.5L10634.5,13413.7z
					"/>
				<path id="path1644" inkscape:connector-curvature="0" class="st55" d="M10634.5,13419.3v-8.5l3625.5,28.3v11.3L10634.5,13419.3z
					"/>
				<path id="path1646" inkscape:connector-curvature="0" class="st56" d="M10634.5,13427.8v-11.3l3625.5,31.2v8.5L10634.5,13427.8z
					"/>
				<path id="path1648" inkscape:connector-curvature="0" class="st56" d="M10634.5,13433.5v-11.3l3625.5,31.2v8.5L10634.5,13433.5z
					"/>
				<path id="path1650" inkscape:connector-curvature="0" class="st56" d="M10634.5,13439.2v-8.5l3625.5,28.3v11.3L10634.5,13439.2z
					"/>
				<path id="path1652" inkscape:connector-curvature="0" class="st56" d="M10634.5,13444.8v-8.5l3625.5,31.2v8.5L10634.5,13444.8z"
					/>
				<path id="path1654" inkscape:connector-curvature="0" class="st57" d="M10634.5,13453.3v-11.3l3625.5,31.2v8.5L10634.5,13453.3z
					"/>
				<path id="path1656" inkscape:connector-curvature="0" class="st57" d="M10634.5,13459v-8.5l3625.5,28.3v11.3L10634.5,13459z"/>
				<path id="path1658" inkscape:connector-curvature="0" class="st57" d="M10634.5,13464.7v-8.5l3625.5,28.3v11.3L10634.5,13464.7z
					"/>
				<path id="path1660" inkscape:connector-curvature="0" class="st57" d="M10634.5,13473.2v-11.3l3625.5,31.2v8.5L10634.5,13473.2z
					"/>
				<path id="path1662" inkscape:connector-curvature="0" class="st58" d="M10634.5,13478.9v-8.5l3625.5,28.3v11.3L10634.5,13478.9z
					"/>
				<path id="path1664" inkscape:connector-curvature="0" class="st58" d="M10634.5,13484.5v-8.5l3625.5,28.3v11.3L10634.5,13484.5z
					"/>
				<path id="path1666" inkscape:connector-curvature="0" class="st58" d="M10634.5,13493v-11.3l3625.5,31.2v8.5L10634.5,13493z"/>
				<path id="path1668" inkscape:connector-curvature="0" class="st58" d="M10634.5,13498.7v-11.3l3625.5,31.2v8.5L10634.5,13498.7z
					"/>
				<path id="path1670" inkscape:connector-curvature="0" class="st59" d="M10634.5,13504.4v-8.5l3625.5,28.3v11.3L10634.5,13504.4z
					"/>
				<path id="path1672" inkscape:connector-curvature="0" class="st59" d="M10634.5,13512.9v-11.3l3625.5,31.2v8.5L10634.5,13512.9z
					"/>
				<path id="path1674" inkscape:connector-curvature="0" class="st59" d="M10634.5,13518.5v-11.3l3625.5,31.2v8.5L10634.5,13518.5z
					"/>
				<path id="path1676" inkscape:connector-curvature="0" class="st60" d="M10634.5,13524.2v-8.5l3625.5,28.3v11.3L10634.5,13524.2z
					"/>
				<path id="path1678" inkscape:connector-curvature="0" class="st60" d="M10634.5,13529.9v-8.5l3625.5,31.2v8.5L10634.5,13529.9z"
					/>
				<path id="path1680" inkscape:connector-curvature="0" class="st60" d="M10634.5,13538.4v-11.3l3625.5,31.2v8.5L10634.5,13538.4z
					"/>
				<path id="path1682" inkscape:connector-curvature="0" class="st61" d="M10634.5,13544.1v-8.5l3625.5,28.3v11.3L10634.5,13544.1z
					"/>
				<path id="path1684" inkscape:connector-curvature="0" class="st61" d="M10634.5,13549.7v-8.5l3625.5,28.3v11.3L10634.5,13549.7z
					"/>
				<path id="path1686" inkscape:connector-curvature="0" class="st61" d="M10634.5,13558.2v-11.3l3625.5,31.2v8.5L10634.5,13558.2z
					"/>
				<path id="path1688" inkscape:connector-curvature="0" class="st62" d="M10634.5,13563.9v-8.5l3625.5,28.3v11.3L10634.5,13563.9z
					"/>
				<path id="path1690" inkscape:connector-curvature="0" class="st62" d="M10634.5,13569.6v-8.5l3625.5,28.3v11.3L10634.5,13569.6z
					"/>
				<path id="path1692" inkscape:connector-curvature="0" class="st63" d="M10634.5,13578.1v-11.3l3625.5,31.2v8.5L10634.5,13578.1z
					"/>
				<path id="path1694" inkscape:connector-curvature="0" class="st63" d="M10634.5,13583.7v-11.3l3625.5,31.2v8.5L10634.5,13583.7z
					"/>
				<path id="path1696" inkscape:connector-curvature="0" class="st64" d="M10634.5,13589.4v-8.5l3625.5,28.3v11.3L10634.5,13589.4z
					"/>
				<path id="path1698" inkscape:connector-curvature="0" class="st64" d="M10634.5,13597.9v-11.3l3625.5,31.2v8.5L10634.5,13597.9z
					"/>
				<path id="path1700" inkscape:connector-curvature="0" class="st65" d="M10634.5,13603.6v-11.3l3625.5,31.2v8.5L10634.5,13603.6z
					"/>
				<path id="path1702" inkscape:connector-curvature="0" class="st65" d="M10634.5,13609.3v-8.5l3625.5,28.3v11.3L10634.5,13609.3z
					"/>
				<path id="path1704" inkscape:connector-curvature="0" class="st66" d="M10634.5,13614.9v-8.5l3625.5,31.2v8.5L10634.5,13614.9z"
					/>
				<path id="path1706" inkscape:connector-curvature="0" class="st66" d="M10634.5,13623.4v-11.3l3625.5,31.2v8.5L10634.5,13623.4z
					"/>
				<path id="path1708" inkscape:connector-curvature="0" class="st67" d="M10634.5,13629.1v-8.5l3625.5,28.3v11.3L10634.5,13629.1z
					"/>
				<path id="path1710" inkscape:connector-curvature="0" class="st67" d="M10634.5,13634.8v-8.5l3625.5,28.3v11.3L10634.5,13634.8z
					"/>
				<path id="path1712" inkscape:connector-curvature="0" class="st68" d="M10634.5,13643.3v-11.3l3625.5,31.2l-2.8,8.5
					L10634.5,13643.3z"/>
				<path id="path1714" inkscape:connector-curvature="0" class="st69" d="M10634.5,13648.9v-8.5l3622.7,28.3v8.5L10634.5,13648.9z"
					/>
				<path id="path1716" inkscape:connector-curvature="0" class="st69" d="M10631.7,13654.6l2.8-8.5l3622.7,28.3v11.3
					L10631.7,13654.6z"/>
				<path id="path1718" inkscape:connector-curvature="0" class="st70" d="M10631.7,13663.1l2.8-11.3l3622.7,31.2v8.5
					L10631.7,13663.1z"/>
				<path id="path1720" inkscape:connector-curvature="0" class="st71" d="M10631.7,13668.8v-11.3l3625.5,31.2v8.5L10631.7,13668.8z
					"/>
				<path id="path1722" inkscape:connector-curvature="0" class="st72" d="M10631.7,13674.5v-8.5l3625.5,28.3v11.3L10631.7,13674.5z
					"/>
				<path id="path1724" inkscape:connector-curvature="0" class="st73" d="M10631.7,13680.1v-8.5l3625.5,31.2v8.5L10631.7,13680.1z"
					/>
				<path id="path1726" inkscape:connector-curvature="0" class="st73" d="M10631.7,13688.6v-11.3l3625.5,31.2v8.5L10631.7,13688.6z
					"/>
				<path id="path1728" inkscape:connector-curvature="0" class="st74" d="M10631.7,13694.3v-8.5l3625.5,28.3v11.3L10631.7,13694.3z
					"/>
				<path id="path1730" inkscape:connector-curvature="0" class="st75" d="M10631.7,13700v-8.5l3625.5,28.3v11.3L10631.7,13700z"/>
				<path id="path1732" inkscape:connector-curvature="0" class="st76" d="M10631.7,13708.5v-11.3l3625.5,31.2v8.5L10631.7,13708.5z
					"/>
				<path id="path1734" inkscape:connector-curvature="0" class="st77" d="M10631.7,13714.1v-8.5l3625.5,28.3v11.3L10631.7,13714.1z
					"/>
				<path id="path1736" inkscape:connector-curvature="0" class="st78" d="M10631.7,13719.8v-8.5l3625.5,28.3v11.3L10631.7,13719.8z
					"/>
				<path id="path1738" inkscape:connector-curvature="0" class="st79" d="M10631.7,13728.3v-11.3l3625.5,31.2v8.5L10631.7,13728.3z
					"/>
				<path id="path1740" inkscape:connector-curvature="0" class="st80" d="M10631.7,13734v-11.3l3625.5,31.2v8.5L10631.7,13734z"/>
				<path id="path1742" inkscape:connector-curvature="0" class="st81" d="M10631.7,13739.6v-8.5l3625.5,28.3v11.3L10631.7,13739.6z
					"/>
				<path id="path1744" inkscape:connector-curvature="0" class="st82" d="M10631.7,13748.2v-11.3l3625.5,31.2v8.5L10631.7,13748.2z
					"/>
				<path id="path1746" inkscape:connector-curvature="0" class="st83" d="M10631.7,13753.8v-11.3l3625.5,31.2v8.5L10631.7,13753.8z
					"/>
				<path id="path1748" inkscape:connector-curvature="0" class="st84" d="M10631.7,13759.5v-8.5l3625.5,28.3v11.3L10631.7,13759.5z
					"/>
				<path id="path1750" inkscape:connector-curvature="0" class="st85" d="M10631.7,13765.2v-8.5l3625.5,31.2v8.5L10631.7,13765.2z"
					/>
				<path id="path1752" inkscape:connector-curvature="0" class="st86" d="M10631.7,13773.7v-11.3l3625.5,31.2v8.5L10631.7,13773.7z
					"/>
				<path id="path1754" inkscape:connector-curvature="0" class="st87" d="M10631.7,13779.3v-8.5l3625.5,28.3v11.3L10631.7,13779.3z
					"/>
				<path id="path1756" inkscape:connector-curvature="0" class="st86" d="M10631.7,13785v-8.5l3625.5,28.3v11.3L10631.7,13785z"/>
				<path id="path1758" inkscape:connector-curvature="0" class="st85" d="M10631.7,13793.5v-11.3l3625.5,31.2v8.5L10631.7,13793.5z
					"/>
				<path id="path1760" inkscape:connector-curvature="0" class="st84" d="M10631.7,13799.2v-8.5l3625.5,28.3v11.3L10631.7,13799.2z
					"/>
				<path id="path1762" inkscape:connector-curvature="0" class="st83" d="M10631.7,13796.3L10631.7,13796.3l3625.5,28.3v2.8
					L10631.7,13796.3z"/>
			</g>
		</g>
	</g>
	
		<linearGradient id="path1768_1_" gradientUnits="userSpaceOnUse" x1="2447.2483" y1="-4557.9087" x2="2452.2476" y2="-4159.9648" gradientTransform="matrix(9.225719e-02 0 0 -9.225719e-02 26.2152 54.4763)">
		<stop  offset="0" style="stop-color:#929292"/>
		<stop  offset="0.8588" style="stop-color:#CECECE"/>
		<stop  offset="1" style="stop-color:#FFFFFF"/>
	</linearGradient>
	<path id="path1768" inkscape:connector-curvature="0" class="st88" d="M193.6,449.2c19.7,0,39.4,0,59.1,0s39.4,0,59.1,0
		c2.2,2.3,4.6,4.8,7.2,7.5c2.9,3,5.9,6.2,9.3,9.7c2.8,2.9,2,5.4-1.8,5.4c-24.9,0-49.7,0-74.6,0c-24.8,0-49.7,0-74.6,0
		c-3.8,0-4.3-2.5-1.4-5.4c3.6-3.5,6.8-6.7,9.9-9.7C188.6,454,191.1,451.5,193.6,449.2L193.6,449.2z"/>
	<path id="path1770" inkscape:connector-curvature="0" class="st89" d="M386.1,67.4l-0.1-6.8c0,0,0.2-0.9,1.2-0.9
		c0.6,0,23.9,0.1,23.9,0.1l3,3.4v10.3l-27.8,0.2L386.1,67.4L386.1,67.4z"/>
	<path id="path1772" inkscape:connector-curvature="0" class="st90" d="M386,103h62.3V67.3c0-2-1.7-3.8-3.8-3.8h-54.7
		c-2,0-3.8,1.7-3.8,3.8V103z"/>
	<path id="path1774" inkscape:connector-curvature="0" class="st89" d="M386.1,124.3l-0.1-6.8c0,0,0.2-0.9,1.2-0.9
		c0.6,0,23.9,0.1,23.9,0.1l3,3.4v10.3l-27.8,0.2L386.1,124.3L386.1,124.3z"/>
	<path id="path1776" inkscape:connector-curvature="0" class="st90" d="M386,160h62.3v-35.7c0-2-1.7-3.8-3.8-3.8h-54.7
		c-2,0-3.8,1.7-3.8,3.8V160z"/>
	<path id="path1778" inkscape:connector-curvature="0" class="st89" d="M302.3,124.2l-0.1-6.8c0,0,0.2-0.9,1.2-0.9
		c0.6,0,23.9,0.1,23.9,0.1l3,3.4v10.3l-27.8,0.2L302.3,124.2L302.3,124.2z"/>
	<path id="path1780" inkscape:connector-curvature="0" class="st90" d="M302.2,159.8h62.3v-35.7c0-2-1.7-3.8-3.8-3.8H306
		c-2,0-3.8,1.7-3.8,3.8V159.8z"/>
	<path id="path1782" inkscape:connector-curvature="0" class="st89" d="M386.1,181.4l-0.1-6.8c0,0,0.2-0.9,1.2-0.9
		c0.6,0,23.9,0.1,23.9,0.1l3,3.4v10.3l-27.8,0.2L386.1,181.4L386.1,181.4z"/>
	<path id="path1784" inkscape:connector-curvature="0" class="st90" d="M386,217h62.3v-35.7c0-2-1.7-3.8-3.8-3.8h-54.7
		c-2,0-3.8,1.7-3.8,3.8V217z"/>
	<path id="path1786" inkscape:connector-curvature="0" class="st89" d="M302.3,181.2l-0.1-6.8c0,0,0.2-0.9,1.2-0.9
		c0.6,0,23.9,0.1,23.9,0.1l3,3.4v10.3l-27.8,0.2L302.3,181.2L302.3,181.2z"/>
	<path id="path1788" inkscape:connector-curvature="0" class="st90" d="M302.2,216.7h62.3V181c0-2-1.7-3.8-3.8-3.8H306
		c-2,0-3.8,1.7-3.8,3.8V216.7z"/>
	<path id="path1790" inkscape:connector-curvature="0" class="st89" d="M386.1,238.4l-0.1-6.8c0,0,0.2-0.9,1.2-0.9
		c0.6,0,23.9,0.1,23.9,0.1l3,3.4v10.3l-27.8,0.2L386.1,238.4L386.1,238.4z"/>
	<path id="path1792" inkscape:connector-curvature="0" class="st90" d="M386,274h62.3v-35.7c0-2-1.7-3.8-3.8-3.8h-54.7
		c-2,0-3.8,1.7-3.8,3.8V274z"/>
	<path id="path1794" inkscape:connector-curvature="0" class="st89" d="M302.3,238.1l-0.1-6.8c0,0,0.2-0.9,1.2-0.9
		c0.6,0,23.9,0.1,23.9,0.1l3,3.4v10.3l-27.8,0.2L302.3,238.1L302.3,238.1z"/>
	<path id="path1796" inkscape:connector-curvature="0" class="st90" d="M302.2,273.7h62.3V238c0-2-1.7-3.8-3.8-3.8H306
		c-2,0-3.8,1.7-3.8,3.8V273.7z"/>
	<path id="path1798" inkscape:connector-curvature="0" class="st91" d="M-136.6,193.1h42.2"/>
	<path id="path1800" inkscape:connector-curvature="0" class="st91" d="M-162.4,221.9h68.1"/>
	<path id="path1802" inkscape:connector-curvature="0" class="st91" d="M-148.8,250.7h54.5"/>
	<path id="path1804" inkscape:connector-curvature="0" class="st92" d="M144.5,104.1l-85.7-5.5"/>
	<path id="path1806" inkscape:connector-curvature="0" class="st92" d="M144,112.7l-85.8-5.5"/>
	<path id="path1808" inkscape:connector-curvature="0" class="st92" d="M143,120.3l-85.7-5.5"/>
	<path id="path1810" inkscape:connector-curvature="0" class="st92" d="M146.8,72.8L103.3,70"/>
	<path id="path1812" inkscape:connector-curvature="0" class="st92" d="M146.2,80.2l-43.5-2.7"/>
	<path id="path1814" inkscape:connector-curvature="0" class="st92" d="M145.6,87.5l-43.5-2.7"/>
	<g id="g1822" transform="matrix(0.01476086,0.00209945,-0.00209945,0.01476086,-69.767103,23.267525)">
		<path id="path1816" inkscape:connector-curvature="0" class="st93" d="M10296.3,1451.4l25.5,0c23.1,1.8,46.3,4.5,68.8,10.2
			c95.1,22.9,179.3,85.5,230.5,168.6c41.4,66.2,61.3,145.9,54.1,223.8c-6.5,77.3-39.3,151.7-90.4,210
			c-57.9,66.7-139.8,112.9-227.5,125.1c-70,10.3-142.9-1.2-206.6-31.9c-85.3-40.5-154.3-114.2-188.9-202.1
			c-27.3-68.4-32.8-145.4-15.1-217c19.8-82.7,69.6-157.4,136.8-209.3C10144,1481.6,10219.5,1453.8,10296.3,1451.4 M10266.9,1514
			c-84.1,9.4-163.9,55-212.7,124.4c-80.6,112.1-76.3,278.1,12.5,384.4c48.1,58.6,119.4,96.8,194.4,106.5
			c74.9,10.2,153.9-4.9,217.5-46.5c61.3-39.3,106.8-102,125.9-172.3c19.2-70,15.1-146.6-13.1-213.7
			c-26.8-64.3-76.6-118.7-138.7-150.4C10396,1516.9,10330.2,1506.6,10266.9,1514z"/>
		<path id="path1818" inkscape:connector-curvature="0" class="st93" d="M9879.3,2240.1c50.3-39,106.1-70.8,165.4-94
			c7.4,18.7,14.6,37.4,21.9,56.1c-92.7,36.4-176.9,94.7-242.5,169.7c-96.5,109.3-153.2,250.5-169.2,394.7c0.1,1.7,0.2,5.2,0.2,6.9
			c-20.6-1-41.2,0.1-61.8,0.7c10.6-106.9,42.2-211.9,93.7-306.3C9734.9,2380,9799.9,2301.1,9879.3,2240.1z"/>
		<path id="path1820" inkscape:connector-curvature="0" class="st93" d="M10568.3,2146.1c124,48.2,231.6,135.1,308.4,243.3
			c80.6,112.4,129.1,246.8,142.8,384.2c-20.3-0.5-40.5-2.8-60.8-1.8c-12.6-115.8-50.2-229.7-114.5-327.2
			c-71-109.1-176.5-195.1-297.8-242.4C10553.5,2183.4,10561,2164.8,10568.3,2146.1z"/>
	</g>
	<path id="path1824" inkscape:connector-curvature="0" class="st94" d="M89.5,84.3c-4.4,6.4-13.1,8-19.5,3.6
		c-6.4-4.4-8-13.1-3.6-19.5c0,0,0,0,0,0c4.4-6.4,13.1-8,19.5-3.6c0,0,0,0,0,0C92.2,69.1,93.8,77.9,89.5,84.3L89.5,84.3z"/>
</g>
</svg>
