<?xml version="1.0" encoding="UTF-8" standalone="no"?>
<!-- Created with Inkscape (http://www.inkscape.org/) -->

<svg
   xmlns:dc="http://purl.org/dc/elements/1.1/"
   xmlns:cc="http://creativecommons.org/ns#"
   xmlns:rdf="http://www.w3.org/1999/02/22-rdf-syntax-ns#"
   xmlns:svg="http://www.w3.org/2000/svg"
   xmlns="http://www.w3.org/2000/svg"
   xmlns:sodipodi="http://sodipodi.sourceforge.net/DTD/sodipodi-0.dtd"
   xmlns:inkscape="http://www.inkscape.org/namespaces/inkscape"
   width="120.16084mm"
   height="120.16084mm"
   viewBox="0 0 120.16084 120.16084"
   version="1.1"
   id="svg1049"
   inkscape:version="0.92.3 (2405546, 2018-03-11)"
   sodipodi:docname="Hospital.svg">
  <defs
     id="defs1043" />
  <sodipodi:namedview
     id="base"
     pagecolor="#ffffff"
     bordercolor="#666666"
     borderopacity="1.0"
     inkscape:pageopacity="0.0"
     inkscape:pageshadow="2"
     inkscape:zoom="0.35"
     inkscape:cx="249.93285"
     inkscape:cy="164.21845"
     inkscape:document-units="mm"
     inkscape:current-layer="layer1"
     showgrid="false"
     fit-margin-top="0"
     fit-margin-left="0"
     fit-margin-right="0"
     fit-margin-bottom="0"
     inkscape:window-width="1440"
     inkscape:window-height="847"
     inkscape:window-x="-8"
     inkscape:window-y="-8"
     inkscape:window-maximized="1" />
  <metadata
     id="metadata1046">
    <rdf:RDF>
      <cc:Work
         rdf:about="">
        <dc:format>image/svg+xml</dc:format>
        <dc:type
           rdf:resource="http://purl.org/dc/dcmitype/StillImage" />
        <dc:title></dc:title>
      </cc:Work>
    </rdf:RDF>
  </metadata>
  <g
     inkscape:label="Layer 1"
     inkscape:groupmode="layer"
     id="layer1"
     transform="translate(-39.705266,-72.12196)">
    <g
       id="g3759"
       transform="matrix(0.2822222,0,0,0.2822222,-1669.2561,-530.02464)">
      <circle
         cy="2346.4739"
         cx="6268.2588"
         id="circle1623"
         style="opacity:1;fill:#5d4485;fill-opacity:1;stroke:none;stroke-width:9.375;stroke-linecap:round;stroke-miterlimit:4;stroke-dasharray:none;stroke-opacity:1"
         r="212.88339"
         inkscape:export-filename="E:\01 Personal\04 Current Projects\01 AftabeShafa\ShafaDoc\Logos and Icons\Icons\PNG\Color\Hospital.png"
         inkscape:export-xdpi="97.760002"
         inkscape:export-ydpi="97.760002" />
      <g
         transform="translate(0,0.0671978)"
         id="g2153">
        <rect
           style="opacity:1;fill:#9888b1;fill-opacity:1;stroke:#9888b1;stroke-width:8.20217514;stroke-linecap:round;stroke-linejoin:miter;stroke-miterlimit:4;stroke-dasharray:none;stroke-opacity:1;paint-order:markers stroke fill"
           id="rect1979"
           width="131.04634"
           height="152.30002"
           x="6202.8462"
           y="2262.4229" />
        <g
           transform="translate(0.11082218,-3.0441784)"
           id="g2032">
          <path
             id="path1625"
             d="m 6240.4121,2295.5352 c 6.3931,0.034 12.7871,-0.088 19.1801,0.054 -0.083,6.1188 -0.037,12.2376 -0.018,18.3675 -6.393,0.034 -12.7749,0.022 -19.1569,0.012 0.01,-6.1408 0.018,-12.2818 0,-18.4339 z"
             inkscape:connector-curvature="0"
             style="opacity:1;fill:#ffffff;fill-opacity:1;stroke-width:0.90483081"
             inkscape:export-filename="E:\01 Personal\04 Current Projects\01 AftabeShafa\ShafaDoc\Logos and Icons\Icons\PNG\Color\Hospital.png"
             inkscape:export-xdpi="97.760002"
             inkscape:export-ydpi="97.760002" />
          <path
             id="path1627"
             d="m 6302.8322,2295.5242 c 6.4282,-0.012 12.8564,0 19.2846,0 -0.028,6.1521 -0.028,12.3039 0,18.4559 -6.4282,0.012 -12.8564,0 -19.2726,0 0,-6.152 0,-12.3038 -0.01,-18.4559 z"
             inkscape:connector-curvature="0"
             style="opacity:1;fill:#ffffff;fill-opacity:1;stroke-width:0.90483081"
             inkscape:export-filename="E:\01 Personal\04 Current Projects\01 AftabeShafa\ShafaDoc\Logos and Icons\Icons\PNG\Color\Hospital.png"
             inkscape:export-xdpi="97.760002"
             inkscape:export-ydpi="97.760002" />
          <path
             id="path1629"
             d="m 6215.1387,2295.5132 c 6.4282,0.022 12.8564,0.022 19.2846,0.012 -0.018,6.1629 0,12.315 0,18.4671 -6.4282,-0.022 -12.8564,-0.012 -19.2846,-0.012 0.01,-6.152 0.01,-12.3151 0,-18.4669 z"
             inkscape:connector-curvature="0"
             style="opacity:1;fill:#ffffff;fill-opacity:1;stroke-width:0.90483081"
             inkscape:export-filename="E:\01 Personal\04 Current Projects\01 AftabeShafa\ShafaDoc\Logos and Icons\Icons\PNG\Color\Hospital.png"
             inkscape:export-xdpi="97.760002"
             inkscape:export-ydpi="97.760002" />
          <path
             id="path1631"
             d="m 6277.582,2295.5021 c 6.4281,0.066 12.8563,-0.012 19.2846,0.033 -0.047,6.152 -0.019,12.2929 -0.019,18.4449 -6.428,0 -12.8563,0.012 -19.2725,-0.012 0.01,-6.1519 -0.01,-12.3039 0.01,-18.4669 z"
             inkscape:connector-curvature="0"
             style="opacity:1;fill:#ffffff;fill-opacity:1;stroke-width:0.90483081"
             inkscape:export-filename="E:\01 Personal\04 Current Projects\01 AftabeShafa\ShafaDoc\Logos and Icons\Icons\PNG\Color\Hospital.png"
             inkscape:export-xdpi="97.760002"
             inkscape:export-ydpi="97.760002" />
          <path
             id="path1633"
             d="m 6215.1499,2319.5457 c 6.4281,0.066 12.8563,-0.022 19.2965,0.045 -0.055,6.1962 -0.01,12.3925 -0.037,18.5888 -6.417,0.011 -12.8331,-0.012 -19.2502,-0.034 -0.055,-6.1963 -0.01,-12.4035 -0.01,-18.5997 z"
             inkscape:connector-curvature="0"
             style="opacity:1;fill:#ffffff;fill-opacity:1;stroke-width:0.90483081"
             inkscape:export-filename="E:\01 Personal\04 Current Projects\01 AftabeShafa\ShafaDoc\Logos and Icons\Icons\PNG\Color\Hospital.png"
             inkscape:export-xdpi="97.760002"
             inkscape:export-ydpi="97.760002" />
          <path
             id="path1635"
             d="m 6240.4233,2319.5457 c 6.3819,0.034 12.7528,0.034 19.1227,0.012 0.01,6.1962 0.01,12.3925 0,18.5998 -6.3819,0.022 -12.7519,-0.022 -19.1339,0 0.019,-6.2073 -0.01,-12.4036 0.01,-18.6108 z"
             inkscape:connector-curvature="0"
             style="opacity:1;fill:#ffffff;fill-opacity:1;stroke-width:0.90483081"
             inkscape:export-filename="E:\01 Personal\04 Current Projects\01 AftabeShafa\ShafaDoc\Logos and Icons\Icons\PNG\Color\Hospital.png"
             inkscape:export-xdpi="97.760002"
             inkscape:export-ydpi="97.760002" />
          <path
             id="path1637"
             d="m 6277.5708,2319.5567 c 6.4162,0.012 12.8333,0.045 19.2495,-0.022 0.046,6.2072 0.01,12.4144 0.01,18.6218 -6.4282,0 -12.8444,-0.012 -19.2725,0 0.037,-6.1962 0,-12.4036 0.01,-18.5999 z"
             inkscape:connector-curvature="0"
             style="opacity:1;fill:#ffffff;fill-opacity:1;stroke-width:0.90483081"
             inkscape:export-filename="E:\01 Personal\04 Current Projects\01 AftabeShafa\ShafaDoc\Logos and Icons\Icons\PNG\Color\Hospital.png"
             inkscape:export-xdpi="97.760002"
             inkscape:export-ydpi="97.760002" />
          <path
             id="path1639"
             d="m 6302.8554,2319.5348 c 6.4171,0.054 12.8332,0.033 19.2503,0.022 -0.01,6.1962 0,12.3925 0,18.5887 -6.4171,0.022 -12.8332,0 -19.2503,0.012 -0.018,-6.2073 -0.018,-12.4146 0,-18.6219 z"
             inkscape:connector-curvature="0"
             style="opacity:1;fill:#ffffff;fill-opacity:1;stroke-width:0.90483081"
             inkscape:export-filename="E:\01 Personal\04 Current Projects\01 AftabeShafa\ShafaDoc\Logos and Icons\Icons\PNG\Color\Hospital.png"
             inkscape:export-xdpi="97.760002"
             inkscape:export-ydpi="97.760002" />
          <path
             id="path1641"
             d="m 6140.382,2349.0332 c 18.1165,-0.033 36.2449,0 54.3622,0 -0.01,36.5357 -0.01,73.0714 0,109.6182 -18.1284,-0.054 -36.2457,0 -54.3742,-0.033 0.037,-36.5578 0.1507,-73.0381 0.01,-109.5849 z"
             inkscape:connector-curvature="0"
             style="opacity:1;fill:#ffffff;fill-opacity:1;stroke-width:0.90483081"
             inkscape:export-filename="E:\01 Personal\04 Current Projects\01 AftabeShafa\ShafaDoc\Logos and Icons\Icons\PNG\Color\Hospital.png"
             inkscape:export-xdpi="97.760002"
             inkscape:export-ydpi="97.760002" />
          <path
             id="path1643"
             d="m 6341.7602,2349.0332 c 18.1055,0.022 36.2107,-0.033 54.3161,0 -0.028,36.5468 0,73.0825 -0.01,109.6293 -18.0943,-0.066 -36.1764,-0.034 -54.2697,-0.034 -0.074,-36.5247 0.01,-73.0603 -0.037,-109.596 z"
             inkscape:connector-curvature="0"
             style="opacity:1;fill:#ffffff;fill-opacity:1;stroke-width:0.90483081"
             inkscape:export-filename="E:\01 Personal\04 Current Projects\01 AftabeShafa\ShafaDoc\Logos and Icons\Icons\PNG\Color\Hospital.png"
             inkscape:export-xdpi="97.760002"
             inkscape:export-ydpi="97.760002" />
          <path
             id="path1645"
             d="m 6215.1618,2353.6472 c 6.37,0.044 12.7408,0.054 19.1108,0 0.037,6.1963 0.01,12.3925 0.018,18.5887 -6.3931,-0.022 -12.7751,-0.033 -19.157,0.012 0.01,-6.2074 -0.01,-12.4036 0.018,-18.5998 z"
             inkscape:connector-curvature="0"
             style="opacity:1;fill:#ffffff;fill-opacity:1;stroke-width:0.90483081"
             inkscape:export-filename="E:\01 Personal\04 Current Projects\01 AftabeShafa\ShafaDoc\Logos and Icons\Icons\PNG\Color\Hospital.png"
             inkscape:export-xdpi="97.760002"
             inkscape:export-ydpi="97.760002" />
          <path
             id="path1647"
             d="m 6240.2966,2353.6583 c 6.4161,0 12.8212,0.066 19.2383,-0.022 0.037,6.2074 0.046,12.4148 0.01,18.6221 -6.4171,-0.066 -12.8222,-0.055 -19.2383,0 -0.047,-6.2073 -0.037,-12.4036 -0.01,-18.5998 z"
             inkscape:connector-curvature="0"
             style="opacity:1;fill:#ffffff;fill-opacity:1;stroke-width:0.90483081"
             inkscape:export-filename="E:\01 Personal\04 Current Projects\01 AftabeShafa\ShafaDoc\Logos and Icons\Icons\PNG\Color\Hospital.png"
             inkscape:export-xdpi="97.760002"
             inkscape:export-ydpi="97.760002" />
          <path
             id="path1649"
             d="m 6277.594,2353.6472 c 6.4051,0.054 12.8101,0.054 19.2152,-0.012 0.055,6.2074 0.018,12.4036 0.018,18.6109 -6.4171,-0.034 -12.8334,-0.054 -19.2615,0 0.01,-6.1962 -0.028,-12.4035 0.018,-18.5998 z"
             inkscape:connector-curvature="0"
             style="opacity:1;fill:#ffffff;fill-opacity:1;stroke-width:0.90483081"
             inkscape:export-filename="E:\01 Personal\04 Current Projects\01 AftabeShafa\ShafaDoc\Logos and Icons\Icons\PNG\Color\Hospital.png"
             inkscape:export-xdpi="97.760002"
             inkscape:export-ydpi="97.760002" />
          <path
             id="path1651"
             d="m 6302.7397,2353.636 c 6.4051,0.066 12.8102,0.066 19.2273,0 0.018,6.2075 0.01,12.4037 0.01,18.611 -6.4171,-0.054 -12.8332,-0.044 -19.2383,0.012 -0.046,-6.2073 -0.046,-12.4146 0,-18.622 z"
             inkscape:connector-curvature="0"
             style="opacity:1;fill:#ffffff;fill-opacity:1;stroke-width:0.90483081"
             inkscape:export-filename="E:\01 Personal\04 Current Projects\01 AftabeShafa\ShafaDoc\Logos and Icons\Icons\PNG\Color\Hospital.png"
             inkscape:export-xdpi="97.760002"
             inkscape:export-ydpi="97.760002" />
          <path
             id="path1653"
             d="m 6215.1387,2377.8015 c 6.3931,0.045 12.775,0 19.169,0.022 -0.019,6.1518 -0.019,12.3039 -0.01,18.4668 -6.3477,0.034 -12.6946,-0.066 -19.0534,0.078 -0.2201,-6.1852 -0.046,-12.3814 -0.1045,-18.5667 z"
             inkscape:connector-curvature="0"
             style="opacity:1;fill:#ffffff;fill-opacity:1;stroke-width:0.90483081"
             inkscape:export-filename="E:\01 Personal\04 Current Projects\01 AftabeShafa\ShafaDoc\Logos and Icons\Icons\PNG\Color\Hospital.png"
             inkscape:export-xdpi="97.760002"
             inkscape:export-ydpi="97.760002" />
          <path
             id="path1655"
             d="m 6240.2734,2377.8347 c 6.4283,-0.022 12.8564,-0.012 19.2847,-0.022 0.01,6.141 -0.055,12.2709 0.046,18.4119 -6.4402,0.166 -12.8795,0.034 -19.3198,0.066 -0.01,-6.1518 0,-12.3038 -0.01,-18.4558 z"
             inkscape:connector-curvature="0"
             style="opacity:1;fill:#ffffff;fill-opacity:1;stroke-width:0.90483081"
             inkscape:export-filename="E:\01 Personal\04 Current Projects\01 AftabeShafa\ShafaDoc\Logos and Icons\Icons\PNG\Color\Hospital.png"
             inkscape:export-xdpi="97.760002"
             inkscape:export-ydpi="97.760002" />
          <path
             id="path1657"
             d="m 6277.5588,2377.7683 c 6.4403,0.088 12.8684,0.012 19.3078,0.066 -0.055,6.152 0.01,12.304 -0.019,18.456 -6.4161,0.033 -12.8332,-0.022 -19.2493,0.044 -0.047,-6.1963 -0.01,-12.3814 -0.037,-18.5667 z"
             inkscape:connector-curvature="0"
             style="opacity:1;fill:#ffffff;fill-opacity:1;stroke-width:0.90483081"
             inkscape:export-filename="E:\01 Personal\04 Current Projects\01 AftabeShafa\ShafaDoc\Logos and Icons\Icons\PNG\Color\Hospital.png"
             inkscape:export-xdpi="97.760002"
             inkscape:export-ydpi="97.760002" />
          <path
             id="path1659"
             d="m 6302.7055,2377.8124 c 6.4282,0.012 12.8444,0 19.2726,0.012 0,6.1631 -0.01,12.326 -0.01,18.5002 -6.4283,-0.054 -12.8676,-0.012 -19.3077,-0.022 0.064,-6.163 0.047,-12.3262 0.047,-18.4893 z"
             inkscape:connector-curvature="0"
             style="opacity:1;fill:#ffffff;fill-opacity:1;stroke-width:0.90483081"
             inkscape:export-filename="E:\01 Personal\04 Current Projects\01 AftabeShafa\ShafaDoc\Logos and Icons\Icons\PNG\Color\Hospital.png"
             inkscape:export-xdpi="97.760002"
             inkscape:export-ydpi="97.760002" />
          <path
             id="path1661"
             d="m 6199.1954,2266.3353 c 13.6426,-0.177 27.2852,-0.055 40.9277,-0.055 0.5665,2.5006 1.2718,4.9902 2.1273,7.4244 -11.9314,-0.055 -23.8629,-0.166 -35.7828,0.044 0.023,47.9987 0,95.9975 0.035,143.9963 41.3902,0.022 82.7919,0.177 124.1937,0.022 0.1618,-48.0209 0,-96.0307 0.058,-144.0516 -11.9315,-0.1439 -23.8514,-0.055 -35.7829,-0.044 0.8093,-2.4564 1.5377,-4.9238 2.162,-7.4244 13.6079,0.022 27.2158,-0.055 40.8237,-0.089 -0.023,23.4018 -0.081,46.8148 -0.1156,70.2278 22.1056,0.055 44.2112,0.077 66.3168,-0.011 0.046,3.1092 0.046,6.2184 0.023,9.3276 -22.1056,0.077 -44.1996,0.022 -66.3052,0.033 -0.035,37.6201 -0.012,75.2402 -0.012,112.8492 -46.2345,0.033 -92.4805,0.1327 -138.7149,-0.044 0.289,-37.609 0.046,-75.218 0.1271,-112.8159 -22.2674,0.077 -44.5349,-0.088 -66.8023,0.077 -0.1388,-3.1313 -0.1619,-6.2737 -0.1503,-9.405 22.3252,0.055 44.6621,0.089 66.9873,-0.044 -0.012,-23.3355 0.069,-46.671 -0.1156,-70.0176 z"
             inkscape:connector-curvature="0"
             style="opacity:1;fill:#ffffff;fill-opacity:1;stroke-width:1.13103878" />
          <path
             id="path1663"
             d="m 6267.4198,2294.495 c 0.5781,0.022 1.7458,0.055 2.3355,0.077 0.035,16.6634 0.011,33.3158 0.011,49.9793 17.4463,0.044 34.8811,-0.022 52.3274,0.033 0,0.5643 0,1.704 0,2.2793 -17.4463,0.055 -34.8926,-0.022 -52.3389,0.033 0.046,16.6525 0.023,33.3049 0,49.9683 -0.5665,0 -1.6996,0.011 -2.2661,0.022 -0.2428,-16.6746 0,-33.3491 -0.1272,-50.0237 -17.4232,0 -34.8463,0.089 -52.2695,-0.033 0,-0.5643 0.023,-1.6819 0.023,-2.2462 17.4347,-0.022 34.8579,-0.055 52.2811,0.022 0.023,-16.7077 -0.035,-33.4154 0.023,-50.1121 z"
             inkscape:connector-curvature="0"
             style="opacity:1;fill:#ffffff;fill-opacity:1;stroke-width:1.13103878" />
          <path
             style="opacity:0.97000002;fill:#ffffff;fill-opacity:1;stroke:#4b4b4b;stroke-width:1.27962399;stroke-miterlimit:4;stroke-dasharray:none;stroke-opacity:1"
             d="m 6262.5178,2273.9929 -0.092,-5.1283 -5.3136,-0.085 -5.3137,-0.085 v -5.7741 -5.7743 l 5.3137,-0.085 5.3136,-0.085 0.092,-4.9291 0.092,-4.929 h 6.0417 6.0415 v 5.0074 5.0072 h 5.2323 5.2323 v 5.7818 5.7817 l -5.1509,0.085 -5.15,0.085 -0.092,4.929 -0.092,4.9291 h -4.3249 c -2.3789,0 -5.0935,0.091 -6.0332,0.1992 l -1.7084,0.1964 -0.092,-5.1282 v -1e-4 z m 8.9032,-3.407 v -5.0072 h 5.2323 5.2313 v -2.6601 -2.6602 h -5.2313 -5.2323 v -5.0074 -5.0073 h -2.7803 -2.7794 v 5.0073 5.0074 h -5.2322 -5.2314 v 2.6602 2.6601 h 5.2314 5.2322 v 5.0072 5.0074 h 2.7794 2.7803 z"
             id="path1665"
             inkscape:connector-curvature="0"
             inkscape:export-filename="E:\01 Personal\04 Current Projects\01 AftabeShafa\ShafaDoc\Logos and Icons\Icons\PNG\Color\Hospital.png"
             inkscape:export-xdpi="97.760002"
             inkscape:export-ydpi="97.760002" />
          <ellipse
             style="opacity:1;fill:#ffffff;fill-opacity:1;stroke:none;stroke-width:3.61932325;stroke-miterlimit:4;stroke-dasharray:none;stroke-opacity:1"
             id="ellipse1667"
             cx="6268.2949"
             cy="2262.5374"
             rx="19.623926"
             ry="18.843815"
             inkscape:export-filename="E:\01 Personal\04 Current Projects\01 AftabeShafa\ShafaDoc\Logos and Icons\Icons\PNG\Color\Hospital.png"
             inkscape:export-xdpi="97.760002"
             inkscape:export-ydpi="97.760002" />
          <path
             style="opacity:1;fill:#9888b1;fill-opacity:1;stroke-width:0.83575827"
             inkscape:connector-curvature="0"
             d="m 6137.4039,2463.1872 c 42.5113,-0.1135 85.0284,-0.01 127.5453,-0.054 44.3957,0.02 88.7915,0 133.1928,0.014 2.4258,-0.141 4.7081,1.2014 4.5866,2.726 0.072,2.6436 -0.016,5.2871 0.016,7.9306 0.1713,1.549 -2.1772,2.8948 -4.6307,2.7501 -86.5812,0.01 -173.1622,0.01 -259.7434,0 -2.238,0.1137 -4.4484,-0.9981 -4.5479,-2.4198 -0.116,-2.7398 -0.039,-5.4831 -0.033,-8.2229 -0.1326,-1.3079 1.5253,-2.5609 3.6141,-2.7227 z"
             id="path1669"
             inkscape:export-filename="E:\01 Personal\04 Current Projects\01 AftabeShafa\ShafaDoc\Logos and Icons\Icons\PNG\Color\Hospital.png"
             inkscape:export-xdpi="97.760002"
             inkscape:export-ydpi="97.760002" />
          <ellipse
             cy="2261.543"
             cx="6268.0815"
             id="ellipse1673"
             style="opacity:1;fill:#ffffff;fill-opacity:1;stroke:#9888b1;stroke-width:4.6875;stroke-linecap:round;stroke-miterlimit:4;stroke-dasharray:none;stroke-dashoffset:0;stroke-opacity:1"
             rx="34.89167"
             ry="33.44109" />
          <path
             style="opacity:1;fill:#ff2a22;fill-opacity:1;stroke-width:0.29789162"
             inkscape:connector-curvature="0"
             d="m 6260.4498,2241.142 c -0.061,-1.289 1.1228,-2.4818 2.4739,-2.4555 3.4353,-0.015 6.8737,-0.017 10.3121,0 1.3511,-0.032 2.5256,1.1694 2.4647,2.4526 0.033,4.3599 -0.01,8.7199 0.015,13.0798 4.552,0.012 9.1041,-0.01 13.6562,0.01 1.3358,-0.047 2.559,1.0732 2.5621,2.3535 0.01,3.2984 0.018,6.5997 -0.01,9.898 0.015,1.2891 -1.205,2.4264 -2.5469,2.3739 -4.5581,0.023 -9.1133,0 -13.6714,0.01 0,4.3716 0.018,8.7403 -0.01,13.1118 0.052,1.292 -1.1532,2.4527 -2.4981,2.4264 -3.4111,0.02 -6.8251,0.01 -10.2392,0.01 -1.351,0.023 -2.559,-1.1432 -2.5134,-2.4381 -0.015,-4.3687 0.01,-8.7344 -0.01,-13.1031 -4.5612,-0.02 -9.1224,0.02 -13.6806,-0.015 -1.3084,0.041 -2.5225,-1.0528 -2.5225,-2.3126 -0.027,-3.3072 -0.015,-6.6172 -0.01,-9.9243 -0.03,-1.2861 1.1897,-2.4264 2.5286,-2.3827 4.5612,-0.01 9.1224,-0.012 13.6867,0 0,-4.3628 -0.01,-8.7256 0,-13.0885 z"
             id="path1675" />
        </g>
      </g>
    </g>
  </g>
</svg>
