<?xml version="1.0" encoding="UTF-8" standalone="no"?>
<!-- Created with Inkscape (http://www.inkscape.org/) -->

<svg
   xmlns:dc="http://purl.org/dc/elements/1.1/"
   xmlns:cc="http://creativecommons.org/ns#"
   xmlns:rdf="http://www.w3.org/1999/02/22-rdf-syntax-ns#"
   xmlns:svg="http://www.w3.org/2000/svg"
   xmlns="http://www.w3.org/2000/svg"
   xmlns:sodipodi="http://sodipodi.sourceforge.net/DTD/sodipodi-0.dtd"
   xmlns:inkscape="http://www.inkscape.org/namespaces/inkscape"
   width="117.47761mm"
   height="117.47761mm"
   viewBox="0 0 117.47761 117.47761"
   version="1.1"
   id="svg1244"
   inkscape:version="0.92.3 (2405546, 2018-03-11)"
   sodipodi:docname="drawing2.svg">
  <defs
     id="defs1238" />
  <sodipodi:namedview
     id="base"
     pagecolor="#ffffff"
     bordercolor="#666666"
     borderopacity="1.0"
     inkscape:pageopacity="0.0"
     inkscape:pageshadow="2"
     inkscape:zoom="0.35"
     inkscape:cx="-92.280907"
     inkscape:cy="-12.280785"
     inkscape:document-units="mm"
     inkscape:current-layer="layer1"
     showgrid="false"
     fit-margin-top="0"
     fit-margin-left="0"
     fit-margin-right="0"
     fit-margin-bottom="0"
     inkscape:window-width="1440"
     inkscape:window-height="847"
     inkscape:window-x="-8"
     inkscape:window-y="-8"
     inkscape:window-maximized="1" />
  <metadata
     id="metadata1241">
    <rdf:RDF>
      <cc:Work
         rdf:about="">
        <dc:format>image/svg+xml</dc:format>
        <dc:type
           rdf:resource="http://purl.org/dc/dcmitype/StillImage" />
        <dc:title></dc:title>
      </cc:Work>
    </rdf:RDF>
  </metadata>
  <g
     inkscape:label="Layer 1"
     inkscape:groupmode="layer"
     id="layer1"
     transform="translate(-130.24932,-28.106433)">
    <g
       id="g3777"
       transform="matrix(0.2822222,0,0,0.2822222,-1578.712,-731.48194)">
      <circle
         r="208.12964"
         style="opacity:1;fill:#5d4485;fill-opacity:1;stroke:none;stroke-width:9.375;stroke-linecap:round;stroke-miterlimit:4;stroke-dasharray:none;stroke-opacity:1"
         id="circle1611"
         cx="6263.5049"
         cy="2899.5847"
         inkscape:export-filename="E:\01 Personal\04 Current Projects\01 AftabeShafa\ShafaDoc\Logos and Icons\Icons\PNG\Color\HospitalClinic.png"
         inkscape:export-xdpi="99.992851"
         inkscape:export-ydpi="99.992851" />
      <rect
         y="2790.0498"
         x="6162.3896"
         height="206.83629"
         width="202.23103"
         id="rect1854"
         style="opacity:1;fill:#9888b1;fill-opacity:1;stroke:#9888b1;stroke-width:4.82655096;stroke-linecap:round;stroke-linejoin:miter;stroke-miterlimit:4;stroke-dasharray:none;stroke-opacity:1;paint-order:markers stroke fill" />
      <path
         id="path1613"
         d="m 6140.4923,3005.8972 c 39.9636,-0.1163 79.9325,-0.01 119.9014,-0.056 41.7351,0.021 83.4702,0 125.2105,0.014 2.2804,-0.1444 4.4259,1.2299 4.3116,2.791 0.068,2.7064 -0.016,5.4129 0.016,8.1192 0.161,1.5858 -2.0468,2.9637 -4.3532,2.8156 -81.3923,0.01 -162.7845,0.01 -244.1768,0 -2.1039,0.1163 -4.1819,-1.0219 -4.2754,-2.4773 -0.1091,-2.805 -0.037,-5.6136 -0.031,-8.4187 -0.1247,-1.339 1.4338,-2.6218 3.3974,-2.7875 z"
         inkscape:connector-curvature="0"
         style="opacity:1;fill:#9888b1;fill-opacity:1;stroke:none;stroke-width:0.81991357;stroke-opacity:1"
         inkscape:export-filename="E:\01 Personal\04 Current Projects\01 AftabeShafa\ShafaDoc\Logos and Icons\Icons\PNG\Color\HospitalClinic.png"
         inkscape:export-xdpi="99.992851"
         inkscape:export-ydpi="99.992851" />
      <path
         id="path1615"
         d="m 6160.4985,2802.4849 c -0.2389,-4.1869 3.2468,-8.3688 7.5533,-8.2753 12.6441,0.01 25.2882,-0.021 37.9376,0.021 -4.5143,7.252 -7.652,15.387 -8.9246,23.8494 -6.3793,0.1455 -12.7585,-0.01 -19.1378,0.073 -2.1038,0.047 -3.9013,2.0104 -3.7817,4.1091 -0.01,9.3455 -0.01,18.6961 0,28.0416 -0.1974,2.3481 1.9532,4.3948 4.27,4.239 7.7091,0.047 15.4182,-0.057 23.1274,0.042 4.1506,10.2495 10.9143,19.4183 19.3714,26.5248 0.8935,0.8364 2.1195,1.3975 2.7637,2.452 0.078,9.6987 -0.031,19.4078 0.047,29.1116 -0.098,2.187 1.9221,4.1196 4.0936,3.9897 7.4337,0.021 14.8676,0.057 22.2961,-0.016 2.1091,0.042 3.9689,-1.8545 3.8961,-3.9635 0.078,-5.678 0.011,-11.3559 0.021,-17.0339 6.3844,0.852 12.8572,0.769 19.2416,-0.031 -0.031,5.5065 -0.01,11.0182 -0.021,16.5299 -0.063,1.4234 0.4572,2.9455 1.678,3.7818 1.3973,1.039 3.2207,0.7168 4.8467,0.7533 6.3947,0.01 12.7896,-0.016 19.1792,0.01 1.4597,0.089 3.013,-0.4467 3.8649,-1.683 1.091,-1.4235 0.7325,-3.2988 0.7948,-4.9611 -0.1039,-8.852 0.1351,-17.7091 -0.1142,-26.5559 9.8337,-7.522 17.6883,-17.5844 22.4623,-29.0131 7.6157,0.1559 15.2364,0.026 22.8572,0.068 2.3376,0.2181 4.5038,-1.8702 4.3324,-4.2234 -0.01,-9.3455 0.021,-18.6961 -0.01,-28.0468 0.1299,-2.078 -1.6416,-4.0935 -3.7455,-4.0987 -6.3896,-0.1195 -12.7844,0.026 -19.1741,-0.068 -1.4649,-8.4208 -4.5142,-16.5766 -8.9298,-23.8909 12.6389,-0.021 25.2727,0 37.9117,-0.01 3.4649,-0.1454 6.8104,2.7689 7.2987,6.1611 0.021,52.3169 0,104.6287 0.01,156.9457 -0.073,14.6285 0.1246,29.2675 -0.094,43.8909 -68.6442,0.089 -137.2936,-0.2337 -205.9379,0.1195 0.016,-66.2806 -0.01,-132.5611 0.016,-198.8419 m 16,78.1404 c -1.5273,0.6805 -2.478,2.3377 -2.3637,3.9948 0.016,9.3298 -0.01,18.6598 0.016,27.9896 -0.1194,2.2961 2.0208,4.2234 4.2754,4.0623 7.2727,0.026 14.5506,0.01 21.8285,0.01 2.213,0.1558 4.3014,-1.7818 4.2182,-4.0208 0.037,-9.3455 0.01,-18.691 0.016,-28.0416 0.2285,-2.3584 -1.9066,-4.4936 -4.2547,-4.3428 -7.0857,-0.016 -14.1714,0.021 -21.2519,-0.016 -0.8363,0.026 -1.7143,-0.01 -2.4831,0.3689 m 148.6183,0.021 c -1.4858,0.6805 -2.3949,2.2961 -2.2961,3.9168 -0.01,9.3663 -0.021,18.7325 0.01,28.0988 -0.078,2.2026 1.9793,4.161 4.1766,4.0208 7.2936,0.01 14.587,-0.01 21.8806,0.01 2.239,0.1663 4.3637,-1.7818 4.2597,-4.0571 0.026,-9.3403 0.016,-18.6806 0.01,-28.0156 0.2026,-2.1611 -1.5844,-4.3169 -3.7922,-4.3117 -7.1013,-0.084 -14.1974,0 -21.2987,-0.037 -0.987,0.031 -2.0312,-0.068 -2.9403,0.3792 m -149.0182,60.7638 c -1.3975,0.7896 -2.0884,2.4156 -1.9689,3.9844 0.042,9.3507 -0.037,18.7013 0.037,28.0468 0.01,2.2026 2.1403,4.0052 4.3065,3.8078 7.2676,0.016 14.5403,0.026 21.8079,-0.01 2.3376,0.1819 4.4051,-1.9792 4.1974,-4.296 0.016,-9.3663 0.026,-18.7326 -0.01,-28.0936 0.063,-2.1922 -1.9792,-4.1506 -4.1662,-4.0052 -7.1221,-0.016 -14.2442,0.026 -21.3663,-0.021 -0.9714,0.01 -2,0.031 -2.8415,0.5818 m 49.7506,-0.089 c -1.4805,0.7429 -2.2857,2.4363 -2.161,4.0572 0.042,9.1791 -0.016,18.3532 0.026,27.5324 -0.2078,2.3013 1.7818,4.4936 4.1299,4.3377 7.4337,0 14.8675,0.042 22.3013,-0.016 2.2286,0 4.0519,-2.1195 3.896,-4.3117 -0.01,-9.3507 0.026,-18.7066 -0.021,-28.0573 0.052,-2.0987 -1.7558,-4.0311 -3.8753,-4.0051 -7.1065,-0.037 -14.2131,0.021 -21.3196,-0.031 -1.0077,0.021 -2.0779,-0.037 -2.9766,0.4935 m 49.4027,0.068 c -1.413,0.7791 -2.1091,2.4104 -1.9896,3.9792 -0.021,9.1895 0.01,18.3792 -0.011,27.5688 -0.1609,2.1766 1.6624,4.3221 3.891,4.3013 7.4494,0.042 14.9039,0.021 22.3585,0.01 2.2857,0.1195 4.2701,-2.0051 4.1039,-4.2649 -0.026,-9.387 0.036,-18.7741 -0.031,-28.1611 0.084,-2.1766 -1.9481,-4.1142 -4.1144,-3.9584 -6.9194,-0.047 -13.8337,0 -20.748,-0.026 -1.1636,0.047 -2.426,-0.084 -3.4597,0.5507 m 49.413,0.084 c -1.3247,0.8155 -1.9792,2.3999 -1.8545,3.922 0.031,9.3559 -0.037,18.7117 0.031,28.0676 0.01,2.1662 2.1038,3.9169 4.2233,3.7923 7.4182,-0.01 14.8468,0.031 22.2702,-0.021 2.2181,-0.016 4.0155,-2.1611 3.8234,-4.3429 -0.016,-9.3351 0.016,-18.6754 -0.016,-28.0104 0.099,-2.291 -2.0519,-4.2234 -4.3065,-4.026 -7.0857,-0.026 -14.1766,0.01 -21.2676,-0.011 -0.9973,-0.01 -2.057,0.031 -2.9038,0.6287 z"
         inkscape:connector-curvature="0"
         style="opacity:1;fill:#ffffff;fill-opacity:1;stroke:#ffffff;stroke-width:0.99549174;stroke-opacity:1"
         inkscape:export-filename="E:\01 Personal\04 Current Projects\01 AftabeShafa\ShafaDoc\Logos and Icons\Icons\PNG\Color\HospitalClinic.png"
         inkscape:export-xdpi="99.992851"
         inkscape:export-ydpi="99.992851" />
      <path
         inkscape:connector-curvature="0"
         id="path1617"
         d="m 6159.985,2796.9474 207.0399,0.01"
         style="fill:none;fill-opacity:1;stroke:#ffffff;stroke-width:6.53291512;stroke-linecap:butt;stroke-linejoin:miter;stroke-miterlimit:4;stroke-dasharray:none;stroke-opacity:1" />
      <circle
         style="opacity:1;fill:#ffffff;fill-opacity:1;stroke:#9888b1;stroke-width:7.5;stroke-linecap:round;stroke-miterlimit:4;stroke-dasharray:none;stroke-dashoffset:0;stroke-opacity:1"
         id="circle1619"
         cx="6263.606"
         cy="2832.7727"
         r="57.303478" />
      <path
         id="path1621"
         d="m 6251.0728,2797.8141 c -0.1,-2.2088 1.844,-4.2527 4.0628,-4.2077 5.642,-0.025 11.289,-0.03 16.936,0.01 2.2188,-0.055 4.1478,2.0039 4.0478,4.2027 0.055,7.471 -0.01,14.9421 0.025,22.4131 7.476,0.02 14.952,-0.01 22.4281,0.01 2.1938,-0.08 4.2027,1.839 4.2077,4.0328 0.01,5.652 0.03,11.309 -0.01,16.961 0.025,2.2088 -1.9789,4.1577 -4.1828,4.0678 -7.486,0.04 -14.967,0 -22.453,0.015 -0.01,7.491 0.03,14.977 -0.015,22.4681 0.085,2.2137 -1.894,4.2027 -4.1028,4.1577 -5.602,0.035 -11.209,0.01 -16.816,0.01 -2.2188,0.04 -4.2028,-1.959 -4.1278,-4.1778 -0.025,-7.486 0.01,-14.967 -0.015,-22.453 -7.491,-0.035 -14.982,0.035 -22.468,-0.025 -2.1488,0.07 -4.1428,-1.804 -4.1428,-3.9629 -0.045,-5.667 -0.025,-11.3389 -0.01,-17.0059 -0.05,-2.2038 1.954,-4.1578 4.1528,-4.0828 7.491,-0.015 14.982,-0.02 22.478,0 0,-7.476 -0.01,-14.9521 0.01,-22.4281 z"
         inkscape:connector-curvature="0"
         style="opacity:1;fill:#ff2a22;fill-opacity:1;stroke-width:0.49973327" />
      <path
         inkscape:export-ydpi="99.992851"
         inkscape:export-xdpi="99.992851"
         inkscape:export-filename="E:\01 Personal\04 Current Projects\01 AftabeShafa\ShafaDoc\Logos and Icons\Icons\PNG\Color\HospitalClinic.png"
         style="opacity:1;fill:#ffffff;fill-opacity:1;stroke:#ffffff;stroke-width:0.99549174;stroke-opacity:1"
         inkscape:connector-curvature="0"
         d="m 6160.4985,2802.4849 c -0.2389,-4.1869 3.2468,-8.3688 7.5533,-8.2753 12.6441,0.01 25.2882,-0.021 37.9376,0.021 -4.5143,7.252 -7.652,15.387 -8.9246,23.8494 -6.3793,0.1455 -12.7585,-0.01 -19.1378,0.073 -2.1038,0.047 -3.9013,2.0104 -3.7817,4.1091 -0.01,9.3455 -0.01,18.6961 0,28.0416 -0.1974,2.3481 1.9532,4.3948 4.27,4.239 7.7091,0.047 15.4182,-0.057 23.1274,0.042 4.1506,10.2495 10.9143,19.4183 19.3714,26.5248 0.8935,0.8364 2.1195,1.3975 2.7637,2.452 0.078,9.6987 -0.031,19.4078 0.047,29.1116 -0.098,2.187 1.9221,4.1196 4.0936,3.9897 7.4337,0.021 14.8676,0.057 22.2961,-0.016 2.1091,0.042 3.9689,-1.8545 3.8961,-3.9635 0.078,-5.678 0.011,-11.3559 0.021,-17.0339 6.3844,0.852 12.8572,0.769 19.2416,-0.031 -0.031,5.5065 -0.01,11.0182 -0.021,16.5299 -0.063,1.4234 0.4572,2.9455 1.678,3.7818 1.3973,1.039 3.2207,0.7168 4.8467,0.7533 6.3947,0.01 12.7896,-0.016 19.1792,0.01 1.4597,0.089 3.013,-0.4467 3.8649,-1.683 1.091,-1.4235 0.7325,-3.2988 0.7948,-4.9611 -0.1039,-8.852 0.1351,-17.7091 -0.1142,-26.5559 9.8337,-7.522 17.6883,-17.5844 22.4623,-29.0131 7.6157,0.1559 15.2364,0.026 22.8572,0.068 2.3376,0.2181 4.5038,-1.8702 4.3324,-4.2234 -0.01,-9.3455 0.021,-18.6961 -0.01,-28.0468 0.1299,-2.078 -1.6416,-4.0935 -3.7455,-4.0987 -6.3896,-0.1195 -12.7844,0.026 -19.1741,-0.068 -1.4649,-8.4208 -4.5142,-16.5766 -8.9298,-23.8909 12.6389,-0.021 25.2727,0 37.9117,-0.01 3.4649,-0.1454 6.8104,2.7689 7.2987,6.1611 0.021,52.3169 0,104.6287 0.01,156.9457 -0.073,14.6285 0.1246,29.2675 -0.094,43.8909 -68.6442,0.089 -137.2936,-0.2337 -205.9379,0.1195 0.016,-66.2806 -0.01,-132.5611 0.016,-198.8419 m 16,78.1404 c -1.5273,0.6805 -2.478,2.3377 -2.3637,3.9948 0.016,9.3298 -0.01,18.6598 0.016,27.9896 -0.1194,2.2961 2.0208,4.2234 4.2754,4.0623 7.2727,0.026 14.5506,0.01 21.8285,0.01 2.213,0.1558 4.3014,-1.7818 4.2182,-4.0208 0.037,-9.3455 0.01,-18.691 0.016,-28.0416 0.2285,-2.3584 -1.9066,-4.4936 -4.2547,-4.3428 -7.0857,-0.016 -14.1714,0.021 -21.2519,-0.016 -0.8363,0.026 -1.7143,-0.01 -2.4831,0.3689 m 148.6183,0.021 c -1.4858,0.6805 -2.3949,2.2961 -2.2961,3.9168 -0.01,9.3663 -0.021,18.7325 0.01,28.0988 -0.078,2.2026 1.9793,4.161 4.1766,4.0208 7.2936,0.01 14.587,-0.01 21.8806,0.01 2.239,0.1663 4.3637,-1.7818 4.2597,-4.0571 0.026,-9.3403 0.016,-18.6806 0.01,-28.0156 0.2026,-2.1611 -1.5844,-4.3169 -3.7922,-4.3117 -7.1013,-0.084 -14.1974,0 -21.2987,-0.037 -0.987,0.031 -2.0312,-0.068 -2.9403,0.3792 m -149.0182,60.7638 c -1.3975,0.7896 -2.0884,2.4156 -1.9689,3.9844 0.042,9.3507 -0.037,18.7013 0.037,28.0468 0.01,2.2026 2.1403,4.0052 4.3065,3.8078 7.2676,0.016 14.5403,0.026 21.8079,-0.01 2.3376,0.1819 4.4051,-1.9792 4.1974,-4.296 0.016,-9.3663 0.026,-18.7326 -0.01,-28.0936 0.063,-2.1922 -1.9792,-4.1506 -4.1662,-4.0052 -7.1221,-0.016 -14.2442,0.026 -21.3663,-0.021 -0.9714,0.01 -2,0.031 -2.8415,0.5818 m 49.7506,-0.089 c -1.4805,0.7429 -2.2857,2.4363 -2.161,4.0572 0.042,9.1791 -0.016,18.3532 0.026,27.5324 -0.2078,2.3013 1.7818,4.4936 4.1299,4.3377 7.4337,0 14.8675,0.042 22.3013,-0.016 2.2286,0 4.0519,-2.1195 3.896,-4.3117 -0.01,-9.3507 0.026,-18.7066 -0.021,-28.0573 0.052,-2.0987 -1.7558,-4.0311 -3.8753,-4.0051 -7.1065,-0.037 -14.2131,0.021 -21.3196,-0.031 -1.0077,0.021 -2.0779,-0.037 -2.9766,0.4935 m 49.4027,0.068 c -1.413,0.7791 -2.1091,2.4104 -1.9896,3.9792 -0.021,9.1895 0.01,18.3792 -0.011,27.5688 -0.1609,2.1766 1.6624,4.3221 3.891,4.3013 7.4494,0.042 14.9039,0.021 22.3585,0.01 2.2857,0.1195 4.2701,-2.0051 4.1039,-4.2649 -0.026,-9.387 0.036,-18.7741 -0.031,-28.1611 0.084,-2.1766 -1.9481,-4.1142 -4.1144,-3.9584 -6.9194,-0.047 -13.8337,0 -20.748,-0.026 -1.1636,0.047 -2.426,-0.084 -3.4597,0.5507 m 49.413,0.084 c -1.3247,0.8155 -1.9792,2.3999 -1.8545,3.922 0.031,9.3559 -0.037,18.7117 0.031,28.0676 0.01,2.1662 2.1038,3.9169 4.2233,3.7923 7.4182,-0.01 14.8468,0.031 22.2702,-0.021 2.2181,-0.016 4.0155,-2.1611 3.8234,-4.3429 -0.016,-9.3351 0.016,-18.6754 -0.016,-28.0104 0.099,-2.291 -2.0519,-4.2234 -4.3065,-4.026 -7.0857,-0.026 -14.1766,0.01 -21.2676,-0.011 -0.9973,-0.01 -2.057,0.031 -2.9038,0.6287 z"
         id="path1942" />
    </g>
  </g>
</svg>
