<?xml version="1.0" encoding="UTF-8" standalone="no"?>
<!-- Created with Inkscape (http://www.inkscape.org/) -->

<svg
   xmlns:dc="http://purl.org/dc/elements/1.1/"
   xmlns:cc="http://creativecommons.org/ns#"
   xmlns:rdf="http://www.w3.org/1999/02/22-rdf-syntax-ns#"
   xmlns:svg="http://www.w3.org/2000/svg"
   xmlns="http://www.w3.org/2000/svg"
   xmlns:sodipodi="http://sodipodi.sourceforge.net/DTD/sodipodi-0.dtd"
   xmlns:inkscape="http://www.inkscape.org/namespaces/inkscape"
   width="120.16085mm"
   height="120.16085mm"
   viewBox="0 0 425.76679 425.76679"
   id="svg5221"
   version="1.1"
   inkscape:version="0.92.3 (2405546, 2018-03-11)"
   sodipodi:docname="ParaClinic.svg"
   inkscape:export-filename="C:\Users\Nacer\Desktop\paraclinic.png"
   inkscape:export-xdpi="108.26"
   inkscape:export-ydpi="108.26">
  <defs
     id="defs5223" />
  <sodipodi:namedview
     id="base"
     pagecolor="#ffffff"
     bordercolor="#666666"
     borderopacity="1.0"
     inkscape:pageopacity="0.0"
     inkscape:pageshadow="2"
     inkscape:zoom="0.7"
     inkscape:cx="345.52706"
     inkscape:cy="312.12577"
     inkscape:document-units="px"
     inkscape:current-layer="layer1"
     showgrid="false"
     fit-margin-top="0"
     fit-margin-left="0"
     fit-margin-right="0"
     fit-margin-bottom="0"
     inkscape:window-width="1600"
     inkscape:window-height="837"
     inkscape:window-x="-8"
     inkscape:window-y="-8"
     inkscape:window-maximized="1"
     showguides="true"
     inkscape:guide-bbox="true">
    <sodipodi:guide
       position="829.32309,88.530664"
       orientation="0,1"
       id="guide4950"
       inkscape:locked="false" />
  </sodipodi:namedview>
  <metadata
     id="metadata5226">
    <rdf:RDF>
      <cc:Work
         rdf:about="">
        <dc:format>image/svg+xml</dc:format>
        <dc:type
           rdf:resource="http://purl.org/dc/dcmitype/StillImage" />
        <dc:title></dc:title>
      </cc:Work>
    </rdf:RDF>
  </metadata>
  <g
     inkscape:label="Layer 1"
     inkscape:groupmode="layer"
     id="layer1"
     transform="translate(1365.3071,-307.84018)">
    <g
       id="#424242ff"
       transform="matrix(1.25,0,0,1.25,-1531.5564,472.33637)"
       style="fill:#4096c3;fill-opacity:1" />
    <circle
       inkscape:export-ydpi="97.760002"
       inkscape:export-xdpi="97.760002"
       inkscape:export-filename="E:\01 Personal\04 Current Projects\01 AftabeShafa\ShafaDoc\Logos and Icons\Icons\PNG\Color\Hospital.png"
       r="212.88339"
       style="opacity:1;fill:#5d4485;fill-opacity:1;stroke:none;stroke-width:9.375;stroke-linecap:round;stroke-miterlimit:4;stroke-dasharray:none;stroke-opacity:1"
       id="circle1623"
       cx="-1152.4237"
       cy="520.72357" />
    <path
       style="opacity:1;fill:#9888b1;fill-opacity:1;stroke-width:0.75888056"
       inkscape:connector-curvature="0"
       d="m -1266.2796,635.16217 c 36.9888,-0.10759 73.9825,-0.01 110.9761,-0.052 38.6284,0.019 77.2568,0 115.89,0.013 2.1108,-0.13359 4.0965,1.13841 3.9908,2.58321 0.063,2.50509 -0.015,5.01009 0.015,7.515 0.1491,1.4677 -1.8944,2.7431 -4.0291,2.606 -75.3336,0.01 -150.6671,0.01 -226.0007,0 -1.9473,0.1076 -3.8706,-0.946 -3.9571,-2.2929 -0.101,-2.5962 -0.034,-5.1957 -0.029,-7.79201 -0.1153,-1.23939 1.3271,-2.4267 3.1445,-2.58 z"
       id="path2321"
       inkscape:export-filename="E:\01 Personal\04 Current Projects\01 AftabeShafa\ShafaDoc\Logos and Icons\Icons\PNG\Color\Drugstore.png"
       inkscape:export-xdpi="99.992851"
       inkscape:export-ydpi="99.992851" />
    <path
       id="path4759"
       d="m -1266.3056,467.05694 c 14.8844,-0.23987 29.7771,-0.0459 44.6699,-0.10711 8.9441,0.0408 17.8883,-0.15316 26.8156,0.16843 -0.043,2.32204 -0.043,4.64917 0,6.97631 -23.8115,-0.0108 -47.6147,-0.004 -71.4178,0.0108 -0.011,-2.34755 -0.034,-4.70021 -0.067,-7.04775 z"
       inkscape:connector-curvature="0"
       style="opacity:1;fill:#9888b1;fill-opacity:1;stroke-width:0.65714413" />
    <path
       inkscape:connector-curvature="0"
       style="opacity:1;fill:#4096c3;fill-opacity:1;stroke:none;stroke-width:8.22753906;stroke-miterlimit:4;stroke-dasharray:none;stroke-opacity:1"
       d="m -1176.0343,444.84868 h 111.9533 v 79.81856 h -111.9533 z"
       id="path4882" />
    <path
       inkscape:connector-curvature="0"
       style="opacity:1;fill:#ffffff;fill-opacity:1;stroke:none;stroke-width:7.84540129;stroke-miterlimit:4;stroke-dasharray:none;stroke-opacity:1"
       d="m -1262.9274,475.54455 c 22.6614,-0.0184 45.3227,-0.10647 67.984,0.0485 0.036,52.15779 0.1056,104.32526 0.1231,156.49273 -22.6964,-0.0676 -45.3931,-0.0386 -68.0896,-0.01 -0.035,-52.17713 0.011,-104.35428 -0.016,-156.53143 z"
       id="path4878" />
    <path
       style="opacity:1;fill:#ffffff;fill-opacity:1;stroke:none;stroke-width:8.16238213;stroke-miterlimit:4;stroke-dasharray:none;stroke-opacity:1"
       d="m -1191.4963,427.94366 c 49.0877,-0.0184 98.1754,-0.0871 147.263,0.0386 0.057,68.03444 0.1237,136.06888 -0.067,204.10331 -15.5595,-0.0676 -31.1285,-0.0386 -46.6975,-0.01 -0.086,-27.19635 0.076,-54.39272 -0.076,-81.57942 -17.8639,0.0386 -35.7278,0.0582 -53.5823,-0.01 -0.1523,27.19634 0.019,54.4024 -0.086,81.60842 -15.569,-0.0582 -31.1475,-0.0871 -46.707,0.01 -0.181,-68.05378 -0.1238,-136.10756 -0.046,-204.16133"
       id="path4876"
       inkscape:connector-curvature="0" />
    <circle
       style="opacity:1;fill:#ffffff;fill-opacity:1;stroke:#4b4b4b;stroke-width:3.65317774;stroke-linecap:round;stroke-miterlimit:4;stroke-dasharray:none;stroke-dashoffset:0;stroke-opacity:1"
       id="path1985"
       cx="-1117.8715"
       cy="477.76166"
       r="32.043861" />
    <path
       id="path4892-0"
       d="m -1124.8792,458.21184 c -0.056,-1.23515 1.0312,-2.37809 2.2719,-2.35293 3.155,-0.014 6.3127,-0.0168 9.4706,0.005 1.2407,-0.0307 2.3193,1.12057 2.2634,2.35013 0.031,4.17776 -0.01,8.35556 0.014,12.53331 4.1805,0.0112 8.361,-0.005 12.5416,0.005 1.2268,-0.0447 2.3502,1.02836 2.353,2.25512 0.01,3.16057 0.017,6.32395 -0.01,9.48453 0.014,1.23515 -1.1066,2.32496 -2.339,2.27469 -4.1862,0.0224 -8.3695,0 -12.5556,0.008 -0.01,4.18895 0.017,8.37508 -0.01,12.56401 0.047,1.23795 -1.0591,2.3502 -2.2942,2.32503 -3.1326,0.0196 -6.268,0.005 -9.4035,0.005 -1.2407,0.0224 -2.3502,-1.09547 -2.3082,-2.33621 -0.014,-4.18615 0.01,-8.3695 -0.01,-12.55563 -4.189,-0.0196 -8.3779,0.0196 -12.564,-0.014 -1.2017,0.0392 -2.3167,-1.00879 -2.3167,-2.21604 -0.026,-3.16896 -0.014,-6.34067 -0.01,-9.50962 -0.028,-1.23236 1.0926,-2.32503 2.3222,-2.28309 4.1889,-0.008 8.3778,-0.0112 12.5696,0 0,-4.18055 -0.01,-8.36115 0.01,-12.54169 z"
       inkscape:connector-curvature="0"
       style="opacity:1;fill:#ff2a22;fill-opacity:1;stroke-width:0.27944866" />
    <path
       style="opacity:1;fill:#9888b1;fill-opacity:1;stroke-width:0.97900349"
       inkscape:connector-curvature="0"
       d="m -1197.2009,419.22113 c 33.0353,-0.23986 66.0891,-0.0459 99.1432,-0.10709 19.8512,0.0408 39.7024,-0.15317 59.516,0.1684 -0.094,2.32205 -0.094,4.64918 0,6.97632 -52.8489,-0.0108 -105.6788,-0.004 -158.5089,0.0108 -0.018,-2.34755 -0.076,-4.70021 -0.1507,-7.04775 z"
       id="path4912" />
    <rect
       style="opacity:1;fill:#9888b1;fill-opacity:1;stroke:none;stroke-width:6.44698334;stroke-miterlimit:4;stroke-dasharray:none;stroke-opacity:1"
       id="rect4887"
       width="17.57156"
       height="20.726604"
       x="-1249.895"
       y="499.52032" />
    <rect
       y="499.52032"
       x="-1223.5491"
       height="20.726604"
       width="17.57156"
       id="rect4891"
       style="opacity:1;fill:#9888b1;fill-opacity:1;stroke:none;stroke-width:6.44698334;stroke-miterlimit:4;stroke-dasharray:none;stroke-opacity:1" />
    <rect
       y="528.13062"
       x="-1249.895"
       height="20.726604"
       width="17.57156"
       id="rect4900"
       style="opacity:1;fill:#9888b1;fill-opacity:1;stroke:none;stroke-width:6.44698334;stroke-miterlimit:4;stroke-dasharray:none;stroke-opacity:1" />
    <rect
       style="opacity:1;fill:#9888b1;fill-opacity:1;stroke:none;stroke-width:6.44698334;stroke-miterlimit:4;stroke-dasharray:none;stroke-opacity:1"
       id="rect4902"
       width="17.57156"
       height="20.726604"
       x="-1223.5491"
       y="528.13062" />
  </g>
</svg>
