<?xml version="1.0" encoding="UTF-8" standalone="no"?>
<!-- Created with Inkscape (http://www.inkscape.org/) -->

<svg
   xmlns:dc="http://purl.org/dc/elements/1.1/"
   xmlns:cc="http://creativecommons.org/ns#"
   xmlns:rdf="http://www.w3.org/1999/02/22-rdf-syntax-ns#"
   xmlns:svg="http://www.w3.org/2000/svg"
   xmlns="http://www.w3.org/2000/svg"
   xmlns:sodipodi="http://sodipodi.sourceforge.net/DTD/sodipodi-0.dtd"
   xmlns:inkscape="http://www.inkscape.org/namespaces/inkscape"
   width="117.47531mm"
   height="117.47531mm"
   viewBox="0 0 416.25111 416.2511"
   id="svg5530"
   version="1.1"
   inkscape:version="0.92.2 (5c3e80d, 2017-08-06)"
   sodipodi:docname="Dentist.svg">
  <defs
     id="defs5532" />
  <sodipodi:namedview
     id="base"
     pagecolor="#ffffff"
     bordercolor="#666666"
     borderopacity="1.0"
     inkscape:pageopacity="0.0"
     inkscape:pageshadow="2"
     inkscape:zoom="0.35"
     inkscape:cx="-640.21371"
     inkscape:cy="193.35772"
     inkscape:document-units="px"
     inkscape:current-layer="layer1"
     showgrid="false"
     fit-margin-top="0"
     fit-margin-left="0"
     fit-margin-right="0"
     fit-margin-bottom="0"
     inkscape:window-width="1600"
     inkscape:window-height="837"
     inkscape:window-x="-8"
     inkscape:window-y="-8"
     inkscape:window-maximized="1" />
  <metadata
     id="metadata5535">
    <rdf:RDF>
      <cc:Work
         rdf:about="">
        <dc:format>image/svg+xml</dc:format>
        <dc:type
           rdf:resource="http://purl.org/dc/dcmitype/StillImage" />
        <dc:title />
      </cc:Work>
    </rdf:RDF>
  </metadata>
  <g
     inkscape:label="Layer 1"
     inkscape:groupmode="layer"
     id="layer1"
     transform="translate(-68.731598,-314.70093)">
    <path
       inkscape:connector-curvature="0"
       id="path4595"
       d="m 209.62505,363.69702 c 6.4687,-0.79958 13.067,-0.54026 19.4565,0.70594 11.4319,1.82247 21.3294,8.16869 32.1778,11.82084 9.53739,2.93901 19.98959,3.3352 29.46929,-0.0144 11.75601,-4.74707 23.1807,-11.15812 36.0749,-12.23144 24.8879,-4.19961 52.333,9.08354 62.66989,32.47313 7.9887,15.52343 7.5276,33.48162 7.12431,50.43133 -1.2246,14.25561 -4.8768,28.32394 -11.42471,41.07405 -5.6043,10.60346 -13.45609,20.55863 -15.5883,32.6316 -0.8644,19.20439 0.5331,38.49522 -1.28939,57.64198 -1.7648,23.0006 -5.0496,46.05164 -12.2458,68.02934 -5.0569,13.31197 -11.0934,27.35869 -23.0223,35.89477 -4.5165,3.34239 -11.1005,5.453 -16.3158,2.42035 -7.34749,-3.21273 -9.81109,-11.87127 -10.43059,-19.17557 -1.48391,-20.38575 -4.71821,-40.63463 -9.28521,-60.55215 -2.8238,-12.87977 -6.3246,-25.71631 -11.9577,-37.68123 -1.8873,-3.37842 -3.6666,-7.47718 -7.4196,-9.14118 -1.7144,-0.82839 -3.37839,0.45382 -4.71819,1.36866 -3.7674,3.79622 -5.81321,8.89625 -7.80861,13.77299 -11.43899,30.81633 -15.76109,63.72168 -19.05309,96.25964 -1.1669,6.33903 -4.54541,13.23993 -10.9492,15.61708 -2.8526,1.2534 -6.0725,0.97966 -9.098,0.98686 -11.8568,-5.27292 -19.06029,-16.84885 -24.4773,-28.10064 -13.031,-29.89429 -15.7971,-62.9149 -18.0014,-95.06387 -0.2161,-13.69375 0.072,-27.3875 -0.1008,-41.07405 -2.4204,-15.53784 -14.01079,-27.3803 -19.4133,-41.77279 -6.72809,-15.57384 -8.32719,-32.91253 -7.93819,-49.70377 -0.4827,-10.0416 1.6135,-20.09761 5.2369,-29.41887 7.25379,-20.2705 26.8904,-35.26807 48.32789,-37.19859 m 2.88141,15.14884 c -11.2374,0.60509 -21.9921,5.98606 -29.62781,14.15477 -8.1975,9.45092 -11.8641,22.11458 -12.38269,34.42527 -0.29541,14.76706 0.6339,29.94472 5.7267,43.95543 6.03649,16.84886 19.73029,30.61464 21.63199,48.96902 -0.5115,39.51811 0.98681,79.6485 11.8424,117.9132 3.8827,10.56746 7.5925,22.04255 16.4095,29.60616 1.1453,1.10934 2.1466,2.84536 4.0195,2.2763 1.3831,-4.73268 1.3687,-9.72465 2.0674,-14.57257 2.125,-17.07937 4.4085,-34.16595 8.0823,-50.986 3.4432,-15.21368 7.47709,-30.49218 14.7526,-44.37322 4.0916,-6.92251 9.17,-14.09714 17.2235,-16.56792 6.2886,-1.50553 12.84369,0.78517 17.15139,5.46021 6.5695,6.95852 10.6611,15.83317 14.23401,24.62138 10.97799,30.5354 15.53059,62.91489 18.67849,95.08547 -0.2161,3.03266 3.9763,0.37459 4.5166,-0.74194 8.7594,-7.84456 12.7789,-19.4349 16.5103,-30.26889 10.3225,-36.47825 12.2458,-74.71413 11.5327,-112.40977 -0.5259,-12.00813 4.9632,-22.99339 10.9924,-32.96297 9.34289,-16.26538 15.55949,-34.58374 15.6964,-53.47117 0.30969,-13.97469 -1.03011,-28.86421 -8.83151,-40.90117 -7.47709,-11.89289 -21.42299,-18.44083 -35.13119,-19.56456 -6.2814,0.41059 -12.6492,1.08772 -18.7145,2.90299 -6.9225,2.49239 -13.40559,6.05809 -20.3858,8.3776 -14.85349,5.96446 -31.77439,5.44581 -46.5126,-0.66271 -12.50519,-5.2225 -25.54349,-11.85688 -39.48208,-10.26491 z"
       style="fill:none;stroke-width:0" />
    <path
       inkscape:connector-curvature="0"
       id="path4597"
       d="m 208.86866,398.81381 c 4.17079,-1.39747 8.50009,0.52585 10.35859,4.37249 0.1369,2.55002 0.9508,5.74115 -1.0229,7.87337 -2.2835,2.26908 -5.62589,3.67377 -6.6848,6.98734 -2.9894,7.7293 -3.5225,16.35183 -2.17539,24.51333 0.7707,11.98653 5.32329,23.47603 11.97929,33.38076 3.5009,5.66191 -3.7602,13.86665 -9.7391,10.50264 -5.4098,-1.65681 -6.1301,-7.7149 -9.09789,-11.73443 -4.53101,-8.90345 -7.62131,-18.53447 -8.30561,-28.54004 -1.8801,-14.58698 -1.5271,-31.47906 8.8026,-43.14144 1.9449,-1.41188 3.7026,-3.15511 5.88521,-4.21402 z"
       style="fill:none;stroke-width:0" />
    <circle
       r="208.12555"
       cx="276.85715"
       cy="522.82648"
       id="circle4659"
       style="fill:#9f92b3;fill-opacity:1;stroke-width:0.99997854" />
    <path
       d="m 211.51845,486.63725 c -4.7049,-3.19712 -12.71779,-17.61162 -15.2127,-27.3674 -1.8442,-7.21056 -2.6886,-17.68263 -2.4123,-29.91537 0.2747,-12.16474 0.9579,-14.78168 5.7222,-21.91653 5.71631,-8.56022 13.1277,-10.91077 18.4186,-5.84147 3.1821,3.04863 2.3467,6.50946 -3.3725,13.97171 -1.6821,2.19454 -3.3561,5.06258 -3.72009,6.37325 -0.36401,1.31067 -0.66341,7.32485 -0.6654,13.36472 0,13.30371 0.87249,18.16761 4.87869,27.06942 1.5851,3.52193 3.8465,8.54681 5.0252,11.16676 2.9533,6.56296 2.8568,8.22633 -0.6823,11.76575 -3.2629,3.26293 -4.7658,3.51322 -7.98,1.32916 z"
       id="path4139"
       inkscape:connector-curvature="0"
       style="opacity:0.31300001;fill:none;stroke-width:0.99997854" />
    <path
       sodipodi:nodetypes="ccccccscccccc"
       d="m 211.51845,486.63725 c -4.7049,-3.19712 -14.0574,-17.01621 -16.5523,-26.772 -1.84419,-7.21055 -3.284,-18.12918 -3.0077,-30.36192 0.2747,-12.16474 2.8929,-14.93053 7.6572,-22.06538 5.71631,-8.56022 14.46731,-14.48317 19.7582,-9.41387 3.1821,3.04863 4.4306,10.97496 -1.2886,18.43721 -1.6821,2.19454 -4.39799,5.06258 -4.762,6.37325 -0.364,1.31067 1.2716,7.7714 1.2696,13.81127 0,13.30371 -1.2114,15.78601 2.7948,24.68781 1.5851,3.52194 6.6659,7.90472 7.8446,10.52467 2.9533,6.56296 1.1728,13.06795 -2.3663,16.60737 -3.2629,3.26293 -9.4735,3.33265 -12.6877,1.1486 z"
       id="path4145"
       inkscape:connector-curvature="0"
       style="opacity:1;fill:#9888b1;fill-opacity:1;stroke-width:0.99997854" />
    <path
       d="m 222.54085,661.87301 c -12.9598,-16.97965 -20.76959,-55.25882 -22.9096,-112.2576 l -1.43059,-37.99919 -11.3148,-21.99952 c -8.6994,-16.91464 -11.84171,-25.46646 -13.59671,-36.9992 -6.0022,-39.45016 6.4322,-65.6386 34.0793,-71.77447 10.9087,-2.42135 22.5665,-0.36532 40.11109,7.07415 18.86861,8.00083 39.6522,7.94273 58.9988,-0.16479 17.0776,-7.15655 28.9223,-9.1681 39.7771,-6.75555 12.8367,2.85313 22.47639,10.70577 28.70039,23.3795 4.9227,10.02378 5.517,13.41071 5.4828,31.24233 -0.043,22.72451 -2.5989,32.11131 -16.06169,58.99873 l -8.5119,16.99964 -1.2837,34.99925 c -1.5246,41.5651 -5.5419,71.46446 -12.3608,91.99803 -4.7833,14.40269 -13.5537,29.99935 -16.8696,29.99935 -0.8712,0 -2.1627,-5.17489 -2.8699,-11.49976 -2.7938,-24.98546 -9.49549,-58.35974 -15.0517,-74.95439 -11.8137,-35.28624 -24.25539,-46.04901 -41.25009,-35.68624 -13.0097,7.93284 -25.45241,44.38605 -32.0193,93.808 -1.8515,13.9327 -4.0078,26.08343 -4.7918,27.00141 -0.7841,0.91803 -3.8556,-1.51686 -6.8257,-5.41078 z m -2.21,-176.39623 c 4.2622,-4.2623 4.0748,-5.47278 -3.1048,-20.05657 -5.2766,-10.71778 -6.2837,-15.12966 -6.4798,-28.38538 -0.2133,-14.42569 0.219,-16.23165 5.343,-22.32052 6.0323,-7.16895 6.3184,-11.44576 0.9901,-14.80069 -5.97239,-3.76092 -14.11769,0.76952 -19.2566,10.71077 -4.1421,8.01253 -4.5612,11.07977 -3.8273,28.01741 0.6677,15.41366 1.8954,21.40752 6.47531,31.61331 4.99279,11.12576 11.0268,18.3656 15.30569,18.3656 0.7767,0 2.8263,-1.41426 4.5549,-3.14282 z"
       id="path4494"
       inkscape:connector-curvature="0"
       style="fill:#ffffff;stroke-width:0.99997854" />
  </g>
</svg>
