<?xml version="1.0" encoding="UTF-8" standalone="no"?>
<!-- Created with Inkscape (http://www.inkscape.org/) -->

<svg
   xmlns:dc="http://purl.org/dc/elements/1.1/"
   xmlns:cc="http://creativecommons.org/ns#"
   xmlns:rdf="http://www.w3.org/1999/02/22-rdf-syntax-ns#"
   xmlns:svg="http://www.w3.org/2000/svg"
   xmlns="http://www.w3.org/2000/svg"
   xmlns:sodipodi="http://sodipodi.sourceforge.net/DTD/sodipodi-0.dtd"
   xmlns:inkscape="http://www.inkscape.org/namespaces/inkscape"
   width="117.47761mm"
   height="117.47761mm"
   viewBox="0 0 416.25924 416.25923"
   id="svg6642"
   version="1.1"
   inkscape:version="0.92.2 (5c3e80d, 2017-08-06)"
   sodipodi:docname="Ancology.svg">
  <defs
     id="defs6644" />
  <sodipodi:namedview
     id="base"
     pagecolor="#ffffff"
     bordercolor="#666666"
     borderopacity="1.0"
     inkscape:pageopacity="0.0"
     inkscape:pageshadow="2"
     inkscape:zoom="0.49497475"
     inkscape:cx="-644.92785"
     inkscape:cy="225.57605"
     inkscape:document-units="px"
     inkscape:current-layer="layer1"
     showgrid="false"
     fit-margin-top="0"
     fit-margin-left="0"
     fit-margin-right="0"
     fit-margin-bottom="0"
     inkscape:window-width="1600"
     inkscape:window-height="837"
     inkscape:window-x="-8"
     inkscape:window-y="-8"
     inkscape:window-maximized="1" />
  <metadata
     id="metadata6647">
    <rdf:RDF>
      <cc:Work
         rdf:about="">
        <dc:format>image/svg+xml</dc:format>
        <dc:type
           rdf:resource="http://purl.org/dc/dcmitype/StillImage" />
        <dc:title />
      </cc:Work>
    </rdf:RDF>
  </metadata>
  <g
     inkscape:label="Layer 1"
     inkscape:groupmode="layer"
     id="layer1"
     transform="translate(28.415301,-299.87551)">
    <circle
       r="208.12961"
       cy="508.00513"
       cx="179.71431"
       id="circle4436"
       style="opacity:1;fill:#9f92b3;fill-opacity:1;stroke:none;stroke-width:7.67106342;stroke-linecap:round;stroke-miterlimit:4;stroke-dasharray:none;stroke-opacity:1"
       inkscape:export-filename="C:\Users\nacer\Documents\Projects\VS\ShadaDocStandPanel\ShadaDocStandPanel\bin\Debug\Images-color\آنکولوژی.png"
       inkscape:export-xdpi="99.992851"
       inkscape:export-ydpi="99.992851" />
    <path
       style="opacity:1;fill:#8673a2;fill-opacity:1;stroke-width:1.25"
       inkscape:connector-curvature="0"
       d="m 211.6086,408.9739 c 8.425,0.675 17.1125,2.5125 24.625,6.625 4.475,2.375 6.1375,7.525 7.9625,11.9 2.0375,5.2625 -0.7375,10.6375 -2.4,15.575 -1.5125,5.4 -6.3875,8.7 -10.825,11.6 -3.7125,2.2375 -7.525,4.9625 -12.0375,5 -4.7625,0.2875 -9.075,-2.425 -12.35,-5.6375 -5.425,-5.9875 -12.6125,-12.125 -12.0125,-21.0375 1.425,-7.6 6.9375,-13.4625 10.925,-19.825 1.2375,-2.3 3.5,-3.9125 6.1125,-4.2 z"
       id="path4669" />
    <circle
       style="opacity:1;fill:none;fill-opacity:0.85098039;stroke:#ffffff;stroke-width:10;stroke-linecap:square;stroke-miterlimit:4;stroke-dasharray:none;stroke-opacity:1"
       id="path4683"
       cx="202.89522"
       cy="510.86328"
       r="27.7306" />
    <circle
       r="19.928514"
       cy="452.11694"
       cx="137.1628"
       id="circle4685"
       style="opacity:1;fill:none;fill-opacity:0.85098039;stroke:#ffffff;stroke-width:7.18647051;stroke-linecap:square;stroke-miterlimit:4;stroke-dasharray:none;stroke-opacity:1" />
    <circle
       r="27.7306"
       cy="482.91919"
       cx="277.83612"
       id="circle4688"
       style="opacity:1;fill:none;fill-opacity:0.85098039;stroke:#ffffff;stroke-width:10;stroke-linecap:square;stroke-miterlimit:4;stroke-dasharray:none;stroke-opacity:1" />
    <path
       style="opacity:1;fill:#ffffff;fill-opacity:1;stroke-width:0.30094573"
       inkscape:connector-curvature="0"
       d="m 219.4827,366.1605 h -11.4479 c -15.1045,0.8547 -30.0645,4.758 -43.5138,11.7188 -20.1032,10.2803 -36.7876,27.0851 -46.9385,47.2515 -10.6836,21.0602 -14.0722,45.6896 -9.561,68.8654 3.3495,17.5181 11.162,34.1604 22.5348,47.9046 -8.6191,8.6251 -17.2442,17.2442 -25.8693,25.8663 -2.0374,-2.1247 -4.9145,-3.3977 -7.8577,-3.4699 -3.1479,-0.1054 -6.2777,1.2007 -8.4746,3.4458 -16.6514,16.6664 -33.3418,33.2936 -49.9691,49.9841 0.015,0.6079 0.021,1.2218 0.015,1.8357 10.506,10.1359 21.1173,20.1574 31.6203,30.2872 0.7374,-0.4484 1.6221,-0.6771 2.2421,-1.2971 16.1969,-16.2059 32.3998,-32.4088 48.6057,-48.6087 2.1669,-2.2029 3.4278,-5.2937 3.2984,-8.3904 -0.078,-2.9162 -1.3693,-5.7541 -3.4639,-7.7764 7.8547,-7.8698 15.7274,-15.7244 23.5881,-23.5942 0.8186,-0.7975 1.583,-1.6492 2.4558,-2.3865 18.77,15.0684 42.7854,23.4016 66.849,23.3203 23.6122,0.081 47.1643,-7.9269 65.7958,-22.4415 8.4596,-6.5396 15.9261,-14.3581 22.1105,-23.0825 8.5258,-12.0469 14.5086,-25.8754 17.4579,-40.3328 1.0954,-5.2033 1.6883,-10.491 2.0825,-15.7846 v -11.4781 c -0.7373,-13.07 -3.7588,-26.0258 -9.0856,-37.9974 -6.7923,-15.3964 -17.3254,-29.0954 -30.3503,-39.7399 -11.2915,-9.248 -24.497,-16.1638 -38.5452,-20.1242 -7.6801,-2.212 -15.613,-3.4398 -23.5791,-3.9755 m 1.1737,22.8177 c 12.5374,1.0202 24.8341,4.8783 35.6952,11.2223 10.6836,6.2235 19.9647,14.8306 27.031,24.9725 6.702,9.6182 11.3516,20.6508 13.5726,32.162 2.6363,13.5486 1.923,27.7442 -2.0946,40.9527 -3.6023,11.9295 -9.8981,23.0374 -18.2885,32.2494 -7.4965,8.3151 -16.6543,15.1285 -26.7871,19.8865 -12.089,5.6999 -25.5413,8.4565 -38.8973,8.0172 -12.8895,-0.3913 -25.6827,-3.7739 -37.0675,-9.838 -19.1732,-10.1148 -34.1874,-27.8585 -40.8714,-48.4914 -4.3637,-13.2506 -5.3659,-27.5816 -2.9402,-41.3168 1.908,-10.8822 5.9677,-21.3882 11.9054,-30.7085 6.5696,-10.3104 15.3723,-19.2033 25.6466,-25.8332 15.5739,-10.1629 34.5847,-14.8366 53.0958,-13.2747 z"
       id="path4656-8" />
  </g>
</svg>
