<?xml version="1.0" encoding="UTF-8" standalone="no"?>
<!-- Created with Inkscape (http://www.inkscape.org/) -->

<svg
   xmlns:dc="http://purl.org/dc/elements/1.1/"
   xmlns:cc="http://creativecommons.org/ns#"
   xmlns:rdf="http://www.w3.org/1999/02/22-rdf-syntax-ns#"
   xmlns:svg="http://www.w3.org/2000/svg"
   xmlns="http://www.w3.org/2000/svg"
   xmlns:sodipodi="http://sodipodi.sourceforge.net/DTD/sodipodi-0.dtd"
   xmlns:inkscape="http://www.inkscape.org/namespaces/inkscape"
   width="117.47761mm"
   height="117.47761mm"
   viewBox="0 0 416.25924 416.25923"
   id="svg4251"
   version="1.1"
   inkscape:version="0.92.2 (5c3e80d, 2017-08-06)"
   sodipodi:docname="Gynecologist.svg">
  <defs
     id="defs4253" />
  <sodipodi:namedview
     id="base"
     pagecolor="#ffffff"
     bordercolor="#666666"
     borderopacity="1.0"
     inkscape:pageopacity="0.0"
     inkscape:pageshadow="2"
     inkscape:zoom="0.49497475"
     inkscape:cx="278.04997"
     inkscape:cy="192.39987"
     inkscape:document-units="px"
     inkscape:current-layer="layer1"
     showgrid="false"
     fit-margin-top="0"
     fit-margin-left="0"
     fit-margin-right="0"
     fit-margin-bottom="0"
     inkscape:window-width="1600"
     inkscape:window-height="837"
     inkscape:window-x="-8"
     inkscape:window-y="-8"
     inkscape:window-maximized="1" />
  <metadata
     id="metadata4256">
    <rdf:RDF>
      <cc:Work
         rdf:about="">
        <dc:format>image/svg+xml</dc:format>
        <dc:type
           rdf:resource="http://purl.org/dc/dcmitype/StillImage" />
        <dc:title />
      </cc:Work>
    </rdf:RDF>
  </metadata>
  <g
     inkscape:label="Layer 1"
     inkscape:groupmode="layer"
     id="layer1"
     transform="translate(546.98671,-85.41119)">
    <circle
       style="opacity:1;fill:#9f92b3;fill-opacity:1;stroke:none;stroke-width:7.67106342;stroke-linecap:round;stroke-miterlimit:4;stroke-dasharray:none;stroke-opacity:1"
       id="circle4661"
       cx="-338.85712"
       cy="293.5408"
       r="208.12961"
       inkscape:export-xdpi="101.84"
       inkscape:export-ydpi="101.84"
       inkscape:export-filename="C:\Users\Nacer\Desktop\Mono\Gynecologist.png" />
    <path
       id="path4144"
       d="m -334.5554,110.87854 h 2.8986 c 8.1663,0.4307 16.2277,3.8823 21.8562,9.8717 4.1559,4.1675 6.7402,9.6504 8.1837,15.3022 1.9324,9.5224 -0.6519,19.8655 -7.0778,27.1936 -4.8369,5.7565 -11.8739,9.406 -19.2369,10.6691 -5.1861,0.454 -10.6109,0.5937 -15.5409,-1.3446 -12.066,-3.6785 -21.0297,-15.372 -21.6815,-27.927 -0.7043,-9.5457 3.3293,-19.3067 10.5119,-25.622 5.4422,-5.0057 12.7586,-7.7123 20.0867,-8.143 z"
       inkscape:connector-curvature="0"
       style="opacity:1;fill:#ffffff"
       inkscape:export-filename="C:\Users\Nacer\Desktop\Mono\Gynecologist.png"
       inkscape:export-xdpi="101.84"
       inkscape:export-ydpi="101.84" />
    <path
       id="path4146"
       d="m -370.2063,183.29204 c 3.7659,-0.8847 7.5842,-1.7869 11.4723,-1.7636 6.6064,-0.064 13.2127,-0.2561 19.819,-0.3725 8.7308,-0.2503 17.4558,0.192 26.1867,0.2968 3.1605,0.099 6.3444,-0.041 9.4875,0.3492 -2.1245,0.3435 -4.284,0.3027 -6.4259,0.3202 l -0.01,0.1513 c 2.6658,0.1455 5.3258,-0.4831 7.9916,-0.1397 7.8752,1.3329 16.2859,2.2293 22.9446,7.0662 4.4178,3.1023 6.8392,8.0498 9.5865,12.5258 15.0927,24.7897 23.7071,53.2406 26.5708,82.0349 0.3958,4.2664 0.1863,9.1499 -3.0849,12.3395 -3.0674,3.6321 -8.0556,4.738 -12.6189,4.4295 -5.9952,-0.029 -11.8798,-3.4574 -14.726,-8.7541 -2.4971,-4.703 -2.4272,-10.1394 -3.2305,-15.2732 -0.355,-4.3828 -1.816,-8.562 -2.5785,-12.875 -0.3958,-2.305 -0.9254,-4.5924 -1.7461,-6.7926 -1.3504,-3.5971 -1.9616,-7.4387 -3.5855,-10.9426 -1.4493,-3.149 -2.0721,-6.7053 -4.0802,-9.5749 -3.405,0.07 -6.8741,0.9546 -9.7087,2.8754 -1.8451,1.2863 -2.2292,3.9056 -1.1874,5.8205 1.7404,3.8824 5.1861,6.5307 8.207,9.3711 3.2362,2.8346 4.9126,6.9207 6.6587,10.7448 3.3177,8.1138 5.3666,16.6875 7.008,25.2786 1.7054,7.0313 2.3165,14.2546 3.5621,21.3673 1.3562,11.7808 2.7881,23.5558 3.7485,35.3715 0.9837,10.0754 1.3445,20.209 2.1361,30.296 -0.052,4.2897 0.7916,8.5271 0.6577,12.8168 -0.087,5.1629 0.5006,10.2908 0.6636,15.4361 -8.3234,0.023 -16.641,-0.023 -24.9644,0.029 -0.093,17.5548 0,35.1096 -0.047,52.6644 0.01,2.8404 -0.5646,5.7158 -2.0197,8.1837 -2.5028,4.8893 -7.6773,8.0557 -13.0671,8.6726 h -2.433 c -4.7263,-0.4423 -9.2664,-2.951 -12.0311,-6.8333 -2.6367,-3.5273 -3.8183,-8.0091 -3.7194,-12.3803 0.035,-16.7457 -0.035,-33.4915 0.035,-50.2372 -5.582,-0.1455 -11.1639,-0.163 -16.74,0.012 0.07,16.932 0.012,33.864 0.029,50.8018 0.058,5.9661 -2.561,12.0951 -7.5027,15.6049 -2.4737,1.6123 -5.285,2.8055 -8.2535,3.0325 h -2.4388 c -5.8206,-0.6519 -11.3152,-4.3305 -13.6201,-9.8018 -1.7287,-3.4516 -1.4435,-7.4095 -1.461,-11.1463 0.012,-16.2045 0.01,-32.4089 0.01,-48.6133 -8.2128,0.047 -16.4314,0.012 -24.6442,0.017 -0.1164,-4.9766 0.7218,-9.895 0.7858,-14.8657 0.5006,-5.0173 0.6402,-10.0638 1.135,-15.0811 0.5995,-12.3687 2.3049,-24.6384 3.3235,-36.9721 0.7974,-8.4515 2.1944,-16.8273 3.0907,-25.2612 0.4832,-5.1221 1.7462,-10.1278 2.4621,-15.215 0.8557,-5.0522 1.2631,-10.1859 2.6717,-15.1334 1.4027,-6.8915 3.1547,-13.7307 5.739,-20.2788 1.9848,-4.7205 5.1629,-8.7658 7.916,-13.0322 1.5133,-2.9394 3.2537,-6.7111 1.3329,-9.8542 -1.525,-2.497 -4.5459,-3.3294 -7.2466,-3.795 -1.6996,3.6727 -2.9859,7.5085 -4.5575,11.2278 -1.1699,2.887 -1.6705,5.9894 -2.7706,8.8996 -1.5948,4.2898 -2.0488,8.8706 -3.2595,13.2651 -1.6647,6.0941 -1.4377,12.52 -2.9976,18.6316 -1.7054,6.4026 -7.5492,11.4374 -14.1381,12.1475 -4.3887,0.4714 -9.2721,0.2619 -12.875,-2.6018 -3.3119,-2.3806 -5.2153,-6.4434 -5.0057,-10.5119 0.3201,-10.023 2.3107,-19.9005 4.377,-29.6907 4.6099,-20.3079 12.3687,-39.9464 23.3928,-57.6351 1.2631,-1.9906 2.3748,-4.1384 4.1443,-5.7565 5.8904,-5.7274 13.6666,-9.179 21.6292,-10.8961 m 32.176,59.7189 c -16.1521,1.7287 -30.9596,12.7412 -37.0129,27.8513 -3.6612,8.1954 -3.958,17.5141 -2.6193,26.274 3.213,16.6817 16.5886,31.0585 33.1713,35.0223 6.9614,1.9615 14.5165,2.0604 21.5303,0.3143 14.6678,-3.1489 27.2926,-14.3069 32.3681,-28.3985 2.5086,-5.8206 2.9277,-12.3046 2.7007,-18.5676 -0.3027,-10.2791 -4.7321,-20.2264 -11.6178,-27.7931 -9.5224,-10.6283 -24.3125,-16.3616 -38.5204,-14.7027 z"
       inkscape:connector-curvature="0"
       style="opacity:1;fill:#ffffff"
       inkscape:export-filename="C:\Users\Nacer\Desktop\Mono\Gynecologist.png"
       inkscape:export-xdpi="101.84"
       inkscape:export-ydpi="101.84" />
    <path
       id="path4148"
       d="m -321.2263,254.97214 c 2.9859,-0.8265 6.2396,-0.809 9.2023,0.1164 3.8066,1.4784 7.1418,4.5168 8.4572,8.4456 1.4493,3.9347 1.0419,8.4457 -0.9371,12.1243 -2.1885,3.8648 -6.2629,6.3851 -10.605,7.0836 -4.2316,0.5005 -8.6901,-1.135 -11.6761,-4.1501 -5.5702,-5.0755 -5.5411,-14.9006 -0.1222,-20.0692 1.6239,-1.5367 3.5505,-2.8405 5.6809,-3.5506 z"
       inkscape:connector-curvature="0"
       style="opacity:1;fill:#c5b4e0;fill-opacity:1"
       inkscape:export-filename="C:\Users\Nacer\Desktop\Mono\Gynecologist.png"
       inkscape:export-xdpi="101.84"
       inkscape:export-ydpi="101.84" />
    <path
       id="path4150"
       d="m -334.9279,280.25084 c 2.5843,-0.7858 5.8322,-0.4598 7.6482,1.7403 2.6018,2.8114 4.93,6.001 8.3408,7.9043 1.2398,0.3725 1.4028,-1.4376 2.1478,-2.0721 2.3282,-2.5668 5.7798,-4.2897 9.3071,-4.0278 3.2188,-0.1281 6.1581,1.6006 8.434,3.731 2.8229,3.2944 3.8823,8.1662 2.27,12.2522 -2.4097,6.3328 -5.9253,12.328 -10.7564,17.1125 -4.9999,4.6389 -11.711,7.6249 -18.5908,7.5143 -6.8508,0.1979 -13.4513,-2.3515 -19.365,-5.5994 -3.3818,-1.49 -6.4317,-3.6669 -8.6028,-6.682 -3.504,0.3434 -6.6936,2.5669 -10.2907,2.0314 -2.823,-0.7043 -5.3724,-2.9801 -5.6576,-5.9952 -0.6345,-2.9859 0.9837,-6.1581 3.6553,-7.5609 1.6123,-1.0011 3.5214,-1.2339 5.3083,-1.7752 4.0861,-1.0652 8.0033,-2.823 12.2348,-3.2712 2.2642,-0.3609 4.5226,-1.2922 6.8508,-0.7799 4.0977,0.5238 7.3863,3.1954 11.1406,4.6739 -2.9569,-2.8114 -5.9661,-5.6751 -8.0615,-9.2082 -1.9848,-3.696 0.076,-8.6435 3.9871,-9.988 z"
       inkscape:connector-curvature="0"
       style="opacity:1;fill:#c5b4e0;fill-opacity:1"
       inkscape:export-filename="C:\Users\Nacer\Desktop\Mono\Gynecologist.png"
       inkscape:export-xdpi="101.84"
       inkscape:export-ydpi="101.84" />
  </g>
</svg>
