<?xml version="1.0" encoding="UTF-8" standalone="no"?>
<!-- Created with Inkscape (http://www.inkscape.org/) -->

<svg
   xmlns:dc="http://purl.org/dc/elements/1.1/"
   xmlns:cc="http://creativecommons.org/ns#"
   xmlns:rdf="http://www.w3.org/1999/02/22-rdf-syntax-ns#"
   xmlns:svg="http://www.w3.org/2000/svg"
   xmlns="http://www.w3.org/2000/svg"
   xmlns:sodipodi="http://sodipodi.sourceforge.net/DTD/sodipodi-0.dtd"
   xmlns:inkscape="http://www.inkscape.org/namespaces/inkscape"
   width="117.47532mm"
   height="117.47532mm"
   viewBox="0 0 416.25113 416.25112"
   id="svg4639"
   version="1.1"
   inkscape:version="0.92.2 (5c3e80d, 2017-08-06)"
   sodipodi:docname="Orthopaedics.svg">
  <defs
     id="defs4641" />
  <sodipodi:namedview
     id="base"
     pagecolor="#ffffff"
     bordercolor="#666666"
     borderopacity="1.0"
     inkscape:pageopacity="0.0"
     inkscape:pageshadow="2"
     inkscape:zoom="0.49497475"
     inkscape:cx="636.80995"
     inkscape:cy="-47.371308"
     inkscape:document-units="px"
     inkscape:current-layer="layer1"
     showgrid="false"
     fit-margin-top="0"
     fit-margin-left="0"
     fit-margin-right="0"
     fit-margin-bottom="0"
     inkscape:window-width="1600"
     inkscape:window-height="837"
     inkscape:window-x="-8"
     inkscape:window-y="-8"
     inkscape:window-maximized="1" />
  <metadata
     id="metadata4644">
    <rdf:RDF>
      <cc:Work
         rdf:about="">
        <dc:format>image/svg+xml</dc:format>
        <dc:type
           rdf:resource="http://purl.org/dc/dcmitype/StillImage" />
        <dc:title />
      </cc:Work>
    </rdf:RDF>
  </metadata>
  <g
     inkscape:label="Layer 1"
     inkscape:groupmode="layer"
     id="layer1"
     transform="translate(1091.0898,82.977683)">
    <circle
       style="fill:#9f92b3;fill-opacity:1;stroke-width:0.99997866"
       id="circle4530"
       cx="-882.96423"
       cy="125.14788"
       r="208.12556" />
    <path
       style="fill:#ffffff;stroke-width:0.99997866"
       inkscape:connector-curvature="0"
       id="path4536"
       d="m -934.1029,-39.2486 c 1.2043,-6.1037 7.3489,-9.9211 13.3507,-9.819 12.2077,-0.5308 24.4355,0.041 36.6422,-0.245 5.9608,0.1838 12.7587,-0.347 17.6166,3.7766 5.3076,4.2665 6.1446,11.5137 7.2265,17.7806 2.3679,15.9636 4.9197,32.2333 12.0647,46.89 9.4107,20.1485 27.4564,34.7032 36.9082,54.8108 6.5733,16.3307 3.3071,34.9893 -2.8987,50.9529 -6.8182,17.4536 -34.0503,19.7406 -44.5841,4.6952 -6.7365,-10.7988 -6.6548,-24.5985 -14.1667,-35.0092 -4.736,-6.2671 -15.4536,-6.0017 -19.8625,0.5103 -6.8999,10.1248 -7.1857,23.1085 -13.2277,33.6623 -9.8394,15.5757 -37.1733,14.1057 -44.7261,-2.9191 -6.4508,-15.6167 -9.5128,-33.7233 -4.1031,-50.075 6.7569,-17.7806 25.3745,-26.7214 34.6013,-42.8481 11.8607,-19.5355 12.9627,-43.502 9.6149,-65.5686 -1.6944,18.8216 -3.0213,38.7862 -13.6778,55.0969 -1.8168,-13.1258 -3.2049,-26.3335 -7.0019,-39.0922 -1.5719,-7.4306 -4.8585,-14.8617 -3.7765,-22.5975 z" />
    <path
       style="fill:#8673a2;fill-opacity:1;stroke-width:0.99997866"
       inkscape:connector-curvature="0"
       id="path4538"
       d="m -894.7038,134.1477 c 8.6146,-0.7553 17.2497,-0.7553 25.8435,-0.1225 9.5128,14.7587 28.6404,20.0876 45.053,15.0447 4.2256,4.7156 8.2676,10.4108 6.9611,17.1476 -2.266,19.8426 -12.3708,38.8272 -27.5384,51.8509 -8.7984,8.0635 -16.1677,18.1476 -19.1886,29.8454 -2.7763,9.2066 -2.0414,18.9236 -1.3065,28.3544 2.4496,-13.1057 4.8177,-27.2114 14.4327,-37.2342 0.2858,12.4317 -0.592,24.8234 -0.7757,37.2552 -0.3879,5.5321 0.2858,12.2887 -4.4706,16.2496 -4.3685,4.0216 -10.7578,3.0213 -16.1877,3.3071 -9.5332,-0.2654 -19.0866,0.3674 -28.5994,-0.3471 -5.3484,-0.1837 -10.2068,-4.5114 -10.9008,-9.819 -1.8576,-15.6576 -0.082,-31.5803 -2.6946,-47.156 -4.3277,-20.1485 -20.8835,-34.3972 -27.7834,-53.4638 -4.5523,-11.4928 -8.3288,-26.4975 2.1639,-35.9693 16.3516,4.9197 35.5812,-0.102 44.992,-14.9426 z" />
  </g>
</svg>
