<?xml version="1.0" encoding="UTF-8" standalone="no"?>
<!-- Created with Inkscape (http://www.inkscape.org/) -->

<svg
   xmlns:dc="http://purl.org/dc/elements/1.1/"
   xmlns:cc="http://creativecommons.org/ns#"
   xmlns:rdf="http://www.w3.org/1999/02/22-rdf-syntax-ns#"
   xmlns:svg="http://www.w3.org/2000/svg"
   xmlns="http://www.w3.org/2000/svg"
   xmlns:sodipodi="http://sodipodi.sourceforge.net/DTD/sodipodi-0.dtd"
   xmlns:inkscape="http://www.inkscape.org/namespaces/inkscape"
   width="117.47532mm"
   height="117.47532mm"
   viewBox="0 0 416.25113 416.25112"
   id="svg4748"
   version="1.1"
   inkscape:version="0.92.2 (5c3e80d, 2017-08-06)"
   sodipodi:docname="Pediatrician.svg">
  <defs
     id="defs4750" />
  <sodipodi:namedview
     id="base"
     pagecolor="#ffffff"
     bordercolor="#666666"
     borderopacity="1.0"
     inkscape:pageopacity="0.0"
     inkscape:pageshadow="2"
     inkscape:zoom="0.35"
     inkscape:cx="869.78634"
     inkscape:cy="-286.64224"
     inkscape:document-units="px"
     inkscape:current-layer="layer1"
     showgrid="false"
     fit-margin-top="0"
     fit-margin-left="0"
     fit-margin-right="0"
     fit-margin-bottom="0"
     inkscape:window-width="1600"
     inkscape:window-height="837"
     inkscape:window-x="-8"
     inkscape:window-y="-8"
     inkscape:window-maximized="1" />
  <metadata
     id="metadata4753">
    <rdf:RDF>
      <cc:Work
         rdf:about="">
        <dc:format>image/svg+xml</dc:format>
        <dc:type
           rdf:resource="http://purl.org/dc/dcmitype/StillImage" />
        <dc:title />
      </cc:Work>
    </rdf:RDF>
  </metadata>
  <g
     inkscape:label="Layer 1"
     inkscape:groupmode="layer"
     id="layer1"
     transform="translate(924.83987,149.76334)">
    <circle
       style="fill:#9f92b3;fill-opacity:1;stroke-width:0.99997866"
       id="circle4663"
       cx="-716.71429"
       cy="58.362225"
       r="208.12556" />
    <path
       style="fill:#ffffff;stroke-width:3.14043307"
       inkscape:connector-curvature="0"
       id="path4621"
       d="m -736.0346,-104.58346 c 18.2145,-5.30734 41.9248,-4.55363 54.8948,11.49398 17.6806,18.99962 15.2939,52.72787 -5.5586,68.49285 -15.8592,13.72369 -41.4851,14.32037 -57.8782,1.16196 -17.4294,-12.09067 -23.302,-36.334815 -15.8592,-55.742691 4.8049,-11.02292 13.3469,-20.44422 24.4012,-25.406099 z" />
    <path
       style="fill:#ffffff;stroke-width:3.14043307"
       inkscape:connector-curvature="0"
       id="path4623"
       d="m -762.7911,-0.13266 c 5.7156,-6.06104 14.6972,-6.40648 22.4855,-6.5007 15.7022,0.0628 31.4357,0.0628 47.1379,0 8.6362,-0.0628 18.4344,0.81652 24.4326,7.81968 21.6062,21.41776 42.9611,43.08674 64.3475,64.75573 8.2907,6.59491 7.3486,22.79955 -3.5487,26.25402 -7.0346,4.14537 -15.7336,0.50247 -20.7583,-5.0875 -12.6559,-12.96999 -25.6259,-25.59453 -38.1877,-38.65873 -0.031,12.24769 0.031,24.49538 0,36.74307 h -99.6145 c -0.031,-12.15348 0.031,-24.33836 0,-36.52324 -13.5981,13.7865 -26.9449,27.88705 -40.9198,41.26529 -9.2643,8.19653 -26.945,2.22971 -26.945,-10.80309 -0.8165,-7.66266 5.7156,-12.68735 10.2379,-17.80625 20.5384,-20.38142 40.6686,-41.20249 61.3326,-61.45828 z" />
    <path
       style="fill:#ffffff;stroke-width:3.14043307"
       inkscape:connector-curvature="0"
       id="path4625"
       d="m -801.4498,140.05627 c 10.9287,-12.75015 23.3648,-24.18133 35.2356,-36.08357 12.1221,12.84437 25.0607,24.87223 37.1514,37.7166 -8.8561,9.54692 -18.403,18.40294 -27.3532,27.85564 10.7089,11.5882 23.459,21.48056 32.7233,34.32493 7.3172,14.10055 -10.8659,29.11182 -23.8987,20.85248 -16.8641,-15.54514 -31.9696,-32.97455 -48.0486,-49.36761 -9.4213,-8.66759 -11.9965,-24.18133 -5.8098,-35.29847 z" />
    <path
       style="fill:#ffffff;stroke-width:3.14043307"
       inkscape:connector-curvature="0"
       id="path4627"
       d="m -667.3219,103.90989 c 11.8394,12.02786 24.4954,23.36482 35.4555,36.20919 5.9354,11.02292 3.4858,26.37964 -5.8098,34.98443 -16.0791,16.42446 -31.1531,33.91667 -47.9859,49.52463 -12.9699,8.41636 -31.3101,-6.40649 -24.1185,-20.60124 9.2329,-12.93859 22.0773,-22.83095 32.8175,-34.48196 -8.9502,-9.48411 -18.5599,-18.30872 -27.5101,-27.82424 12.0906,-12.87577 25.092,-24.90363 37.1513,-37.81081 z" />
    <path
       style="fill:#8673a2;fill-opacity:1;fill-rule:evenodd;stroke-width:0.99997866"
       inkscape:connector-curvature="0"
       id="path4482"
       d="m -766.2432,85.45164 0.1882,18.99959 37.4522,37.8112 24.4035,-0.125 37.3902,-37.74919 0.1882,-18.8116 z" />
  </g>
</svg>
