<?xml version="1.0" encoding="UTF-8" standalone="no"?>
<!-- Creator: CorelDRAW 2017 -->

<svg
   xmlns:dc="http://purl.org/dc/elements/1.1/"
   xmlns:cc="http://creativecommons.org/ns#"
   xmlns:rdf="http://www.w3.org/1999/02/22-rdf-syntax-ns#"
   xmlns:svg="http://www.w3.org/2000/svg"
   xmlns="http://www.w3.org/2000/svg"
   xmlns:sodipodi="http://sodipodi.sourceforge.net/DTD/sodipodi-0.dtd"
   xmlns:inkscape="http://www.inkscape.org/namespaces/inkscape"
   xml:space="preserve"
   width="4.6251in"
   height="4.6251in"
   version="1.1"
   style="shape-rendering:geometricPrecision; text-rendering:geometricPrecision; image-rendering:optimizeQuality; fill-rule:evenodd; clip-rule:evenodd"
   viewBox="0 0 3538 3538"
   id="svg50"
   sodipodi:docname="center.svg"
   inkscape:version="0.92.3 (2405546, 2018-03-11)"><metadata
   id="metadata54"><rdf:RDF><cc:Work
       rdf:about=""><dc:format>image/svg+xml</dc:format><dc:type
         rdf:resource="http://purl.org/dc/dcmitype/StillImage" /></cc:Work></rdf:RDF></metadata><sodipodi:namedview
   pagecolor="#ffffff"
   bordercolor="#666666"
   borderopacity="1"
   objecttolerance="10"
   gridtolerance="10"
   guidetolerance="10"
   inkscape:pageopacity="0"
   inkscape:pageshadow="2"
   inkscape:window-width="1600"
   inkscape:window-height="837"
   id="namedview52"
   showgrid="false"
   inkscape:zoom="0.53152003"
   inkscape:cx="-61.002296"
   inkscape:cy="209.97768"
   inkscape:window-x="-8"
   inkscape:window-y="-8"
   inkscape:window-maximized="1"
   inkscape:current-layer="svg50" />
 <defs
   id="defs4">
  <style
   type="text/css"
   id="style2">
   <![CDATA[
    .fil0 {fill:#5D4485}
    .fil3 {fill:#9888B1}
    .fil2 {fill:#9888B1}
    .fil4 {fill:#FF2A22}
    .fil1 {fill:white}
   ]]>
  </style>
 
  
  
  
  
  
  
  
  
  
  
  
  
  
  
  
  
  
 <style
   id="style2-9"
   type="text/css">
   <![CDATA[
    .fil0 {fill:#5D4485}
    .fil3 {fill:#9888B1}
    .fil2 {fill:#9888B1}
    .fil4 {fill:#FF2A22}
    .fil1 {fill:white}
   ]]>
  </style></defs>
 <path
   style="fill:#5d4485"
   d="M 3538,1769 A 1769,1769 0 0 1 1769,3538 1769,1769 0 0 1 0,1769 1769,1769 0 0 1 1769,0 1769,1769 0 0 1 3538,1769 Z"
   id="circle1595" />
<g
   style="clip-rule:evenodd;fill-rule:evenodd;image-rendering:optimizeQuality;shape-rendering:geometricPrecision;text-rendering:geometricPrecision"
   id="g4862"
   transform="matrix(1.2045891,0,0,1.2045891,-312.04672,-351.43707)"><g
     id="g10"><path
       class="fil1"
       d="m 1180,1076 h 1095 c 8,1 15,5 21,10 148,119 295,239 443,358 8,6 11,18 6,27 -4,7 -12,12 -20,11 -665,0 -1330,0 -1996,0 -10,0 -18,-7 -21,-17 v -9 c 2,-10 11,-15 19,-21 144,-117 289,-233 433,-350 6,-5 13,-8 20,-9 z m 504,67 c 0,27 0,54 0,81 -27,0 -53,0 -80,0 0,29 0,58 0,87 27,1 53,1 80,1 0,27 0,53 0,80 29,0 58,0 87,0 0,-27 0,-53 0,-80 27,0 53,0 80,0 0,-29 0,-58 0,-87 -27,0 -53,0 -80,0 0,-27 0,-53 0,-80 -29,0 -58,1 -87,-1 z"
       id="path8"
       inkscape:connector-curvature="0"
       style="fill:#ffffff" /></g><g
     id="g14"><path
       class="fil1"
       d="m 802,1510 c 6,-1 12,0 18,-1 610,0 1220,0 1831,0 6,0 13,4 13,11 0,21 0,41 0,62 0,6 -5,10 -11,10 -25,0 -49,0 -74,0 0,259 0,517 0,776 25,0 49,0 74,0 6,0 11,5 11,11 0,20 0,41 0,61 0,4 -3,7 -6,10 H 801 c -4,-2 -8,-6 -7,-11 0,-20 0,-40 0,-60 0,-6 6,-11 12,-11 24,0 49,0 73,0 0,-259 0,-517 0,-776 -24,0 -49,0 -73,0 -7,1 -13,-6 -12,-12 0,-19 0,-38 0,-58 0,-6 3,-11 9,-12 v 0 z m 174,234 c -5,1 -6,6 -6,11 0,59 0,119 0,178 0,4 2,9 7,9 61,0 123,0 184,0 5,0 9,-5 8,-9 0,-60 0,-120 0,-180 1,-5 -4,-10 -9,-9 -61,0 -122,0 -183,0 v 0 z m 262,0 c -5,1 -7,6 -6,11 0,60 0,119 0,179 0,4 3,9 8,9 61,0 123,0 184,0 5,0 8,-5 7,-9 0,-59 0,-119 0,-178 0,-3 0,-8 -3,-10 -3,-2 -6,-1 -10,-1 -60,0 -120,0 -180,0 v 0 z m 260,0 c 0,179 0,358 0,538 69,0 139,0 208,0 0,-179 0,-358 0,-538 -69,0 -139,0 -208,0 z m 252,0 c 0,179 0,358 0,538 69,0 139,0 208,0 0,-179 0,-358 0,-538 -69,0 -139,0 -208,0 z m 282,0 c -4,1 -7,5 -6,9 0,61 0,122 0,183 0,4 4,7 8,7 61,0 122,0 182,0 5,1 9,-4 8,-9 0,-61 0,-121 0,-182 0,-4 -4,-8 -8,-7 -61,0 -122,0 -184,0 v 0 z m 261,0 c -3,1 -5,4 -5,7 0,61 0,123 0,184 0,4 4,8 8,7 61,0 122,0 182,0 5,1 9,-4 8,-9 0,-60 0,-120 0,-180 1,-5 -3,-10 -8,-9 -39,0 -78,0 -117,0 -23,0 -46,-1 -68,0 z M 974,2081 c -4,2 -4,7 -4,11 0,59 0,118 0,177 -1,5 3,11 9,10 60,0 120,0 180,0 5,1 10,-3 10,-8 0,-61 0,-122 0,-182 0,-5 -5,-9 -9,-8 -59,0 -118,0 -176,0 -3,0 -6,0 -9,1 v 0 z m 262,0 c -4,2 -5,7 -4,11 0,55 0,110 0,165 0,5 0,11 0,16 1,4 5,7 9,6 60,0 120,0 180,0 5,1 10,-3 9,-8 0,-61 0,-121 0,-182 0,-5 -4,-9 -9,-8 -59,0 -118,0 -176,0 -3,0 -6,0 -9,1 v 0 z m 793,0 c -3,2 -5,4 -4,7 0,61 0,122 0,182 -1,5 5,9 9,9 60,0 120,0 180,0 5,0 9,-3 9,-8 0,-61 0,-121 0,-182 0,-5 -4,-9 -9,-8 -59,0 -118,0 -176,0 -3,0 -6,0 -9,1 v 0 z m 261,1 c -2,2 -3,4 -3,7 0,61 0,121 0,182 -1,6 5,9 10,9 60,0 120,0 180,0 5,0 9,-4 8,-9 0,-61 0,-121 0,-182 0,-4 -3,-8 -8,-8 -59,0 -119,0 -178,0 -3,0 -7,0 -9,2 z"
       id="path12"
       inkscape:connector-curvature="0"
       style="fill:#ffffff" /></g><path
     class="fil2"
     d="m 976,1744 c 61,-1 122,0 183,0 5,-1 10,4 9,9 0,60 0,120 0,180 1,5 -3,9 -8,9 -61,0 -123,0 -184,0 -5,0 -7,-5 -7,-9 0,-59 0,-119 0,-178 0,-4 1,-10 6,-11 z"
     id="path16"
     inkscape:connector-curvature="0"
     style="fill:#9888b1" /><path
     class="fil2"
     d="m 1238,1744 c 60,-1 120,0 180,0 3,0 7,0 10,1 3,2 3,6 3,10 0,59 0,119 0,178 1,4 -3,9 -7,9 -61,0 -123,0 -184,0 -5,0 -8,-4 -8,-9 0,-60 0,-119 0,-179 0,-4 1,-10 6,-11 z"
     id="path18"
     inkscape:connector-curvature="0"
     style="fill:#9888b1" /><path
     class="fil3"
     d="m 2032,1744 c 61,0 122,0 184,0 4,0 9,3 8,7 0,61 0,121 0,182 1,5 -3,10 -8,9 -61,0 -122,0 -182,0 -4,1 -8,-3 -8,-7 0,-61 0,-122 0,-183 -1,-4 2,-8 6,-9 z"
     id="path20"
     inkscape:connector-curvature="0"
     style="fill:#9888b1" /><path
     class="fil3"
     d="m 2293,1744 c 23,-1 46,0 68,0 39,0 78,0 117,0 5,0 9,4 8,9 0,60 0,120 0,180 1,5 -3,10 -8,9 -61,0 -122,0 -182,0 -4,1 -9,-3 -8,-7 0,-61 0,-123 0,-184 0,-3 2,-6 5,-7 z"
     id="path22"
     inkscape:connector-curvature="0"
     style="fill:#9888b1" /><path
     class="fil2"
     d="m 974,2081 c 3,-1 6,-1 9,-1 59,0 118,0 176,0 5,-1 10,3 9,8 0,61 0,122 0,182 0,5 -5,9 -10,8 -60,0 -120,0 -180,0 -6,1 -10,-5 -9,-10 0,-59 0,-118 0,-177 0,-4 0,-8 4,-11 z"
     id="path24"
     inkscape:connector-curvature="0"
     style="fill:#9888b1" /><path
     class="fil2"
     d="m 1236,2081 c 3,-1 6,-1 9,-1 59,0 118,0 176,0 5,-1 9,3 9,8 0,61 0,121 0,182 0,5 -4,9 -9,8 -60,0 -120,0 -180,0 -4,0 -9,-2 -9,-6 -1,-5 0,-11 0,-16 0,-55 0,-110 0,-165 0,-4 0,-9 4,-11 z"
     id="path26"
     inkscape:connector-curvature="0"
     style="fill:#9888b1" /><path
     class="fil3"
     d="m 2030,2081 c 3,-1 6,-1 9,-1 59,0 118,0 176,0 5,0 9,4 9,8 0,61 0,121 0,182 1,5 -4,9 -9,8 -60,0 -120,0 -180,0 -5,1 -10,-3 -9,-9 0,-61 0,-122 0,-182 0,-3 2,-6 4,-7 z"
     id="path28"
     inkscape:connector-curvature="0"
     style="fill:#9888b1" /><path
     class="fil3"
     d="m 2291,2082 c 3,-2 6,-1 9,-2 59,0 119,0 178,0 4,0 8,4 8,8 0,61 0,121 0,182 1,5 -4,9 -8,9 -60,0 -120,0 -180,0 -5,1 -11,-3 -10,-9 0,-61 0,-121 0,-182 0,-3 1,-5 3,-7 z"
     id="path30"
     inkscape:connector-curvature="0"
     style="fill:#9888b1" /><g
     id="__x0023_7da5d7ff"><g
       id="g37"><path
         class="fil2"
         d="m 1498,1744 c 69,0 139,0 208,0 0,179 0,358 0,538 -69,0 -139,0 -208,0 0,-179 0,-358 0,-538 z m 166,270 c -7,3 -12,11 -12,19 -1,11 10,22 21,21 12,0 23,-13 20,-25 -2,-13 -17,-20 -29,-15 z"
         id="path35"
         inkscape:connector-curvature="0"
         style="fill:#9888b1" /></g><g
       id="g41"><path
         class="fil2"
         d="m 1749,1744 c 69,0 139,0 208,0 0,179 0,358 0,538 -69,0 -139,0 -208,0 0,-179 0,-358 0,-538 z m 25,270 c -15,6 -16,29 -2,37 13,8 32,-3 31,-18 1,-15 -16,-25 -29,-18 z"
         id="path39"
         inkscape:connector-curvature="0"
         style="fill:#9888b1" /></g></g><path
     id="path1597"
     class="fil3"
     d="m 761,2363 c 314,-1 629,0 943,0 328,0 657,0 985,0 18,-1 35,10 34,22 1,21 0,43 0,64 1,12 -16,23 -34,22 -640,0 -1280,0 -1921,0 -17,1 -33,-8 -34,-19 -1,-22 0,-44 0,-66 -1,-11 11,-21 27,-22 v 0 z"
     inkscape:connector-curvature="0"
     inkscape:export-filename="E:\01 Personal\04 Current Projects\01 AftabeShafa\ShafaDoc\Logos and Icons\Icons\PNG\Color\Drugstore.png"
     inkscape:export-xdpi="99.992851"
     inkscape:export-ydpi="99.992851"
     style="fill:#9888b1" /><path
     id="circle45"
     d="m 1696,2031 a 30,30 0 0 1 -30,30 30,30 0 0 1 -30,-30 30,30 0 0 1 30,-30 30,30 0 0 1 30,30 z"
     style="fill:#ffffff"
     inkscape:connector-curvature="0" /><path
     id="circle47"
     d="m 1814,2031 a 30,30 0 0 1 -30,30 30,30 0 0 1 -30,-30 30,30 0 0 1 30,-30 30,30 0 0 1 30,30 z"
     style="fill:#ffffff"
     inkscape:connector-curvature="0" /><path
     inkscape:connector-curvature="0"
     d="m 2275,1091.9366 472.197,377.241 M 1180,1091.9366 h 1095 m -1567.00001,380 472.00001,-380"
     style="fill:none;stroke:#9888b1;stroke-width:39.84148026;stroke-linecap:round;stroke-linejoin:miter;stroke-miterlimit:4;stroke-dasharray:none;stroke-opacity:1;paint-order:stroke fill markers"
     id="path4827" /><path
     id="rect4831"
     d="m 1378.0792,1136.962 h 683.7393 v 302.1174 h -683.7393 z"
     style="opacity:1;fill:#ffffff;fill-opacity:1;stroke:none;stroke-width:39.84148026;stroke-linecap:round;stroke-miterlimit:4;stroke-dasharray:none;stroke-opacity:1;paint-order:stroke fill markers"
     inkscape:connector-curvature="0" /><g
     transform="translate(8.9347424,-47.809776)"
     id="g4902"><path
       id="path4985-0"
       d="m 1953.433,1185.3121 a 233.44548,233.44548 0 0 1 -233.4455,233.4455 233.44548,233.44548 0 0 1 -233.4454,-233.4455 233.44548,233.44548 0 0 1 233.4454,-233.44545 233.44548,233.44548 0 0 1 233.4455,233.44545 z"
       style="opacity:1;fill:#ffffff;fill-opacity:1;stroke:#9888b1;stroke-width:21.91033363;stroke-linecap:round;stroke-miterlimit:4;stroke-dasharray:none;stroke-opacity:1"
       inkscape:connector-curvature="0" /><g
       style="clip-rule:evenodd;fill-rule:evenodd;image-rendering:optimizeQuality;shape-rendering:geometricPrecision;text-rendering:geometricPrecision"
       id="__x0023_f28126ff"
       transform="matrix(0.85350298,0,0,0.85350298,244.70739,103.49708)"><path
         style="fill:#ff2a22"
         inkscape:connector-curvature="0"
         id="path32"
         d="m 1682,1114 c 31,1 62,0 93,0 0,36 0,71 0,107 36,0 71,0 107,0 0,31 0,62 0,93 -36,0 -71,0 -107,0 0,36 0,71 0,107 -31,0 -62,0 -93,0 0,-36 0,-71 0,-107 -36,0 -71,1 -107,-1 0,-31 0,-61 0,-92 36,0 71,0 107,0 0,-36 0,-71 0,-107 z"
         class="fil4" /></g></g></g></svg>