<?xml version="1.0" encoding="UTF-8" standalone="no"?>
<!-- Created with Inkscape (http://www.inkscape.org/) -->

<svg
   xmlns:dc="http://purl.org/dc/elements/1.1/"
   xmlns:cc="http://creativecommons.org/ns#"
   xmlns:rdf="http://www.w3.org/1999/02/22-rdf-syntax-ns#"
   xmlns:svg="http://www.w3.org/2000/svg"
   xmlns="http://www.w3.org/2000/svg"
   xmlns:sodipodi="http://sodipodi.sourceforge.net/DTD/sodipodi-0.dtd"
   xmlns:inkscape="http://www.inkscape.org/namespaces/inkscape"
   width="117.48023mm"
   height="117.48023mm"
   viewBox="0 0 117.48024 117.48024"
   version="1.1"
   id="svg939"
   inkscape:version="0.92.2 (5c3e80d, 2017-08-06)"
   sodipodi:docname="Clinic.svg">
  <defs
     id="defs933" />
  <sodipodi:namedview
     id="base"
     pagecolor="#ffffff"
     bordercolor="#666666"
     borderopacity="1.0"
     inkscape:pageopacity="0.0"
     inkscape:pageshadow="2"
     inkscape:zoom="0.49497475"
     inkscape:cx="376.86499"
     inkscape:cy="406.16579"
     inkscape:document-units="mm"
     inkscape:current-layer="layer1"
     showgrid="false"
     fit-margin-top="0"
     fit-margin-left="0"
     fit-margin-right="0"
     fit-margin-bottom="0"
     inkscape:window-width="1600"
     inkscape:window-height="837"
     inkscape:window-x="-8"
     inkscape:window-y="-8"
     inkscape:window-maximized="1" />
  <metadata
     id="metadata936">
    <rdf:RDF>
      <cc:Work
         rdf:about="">
        <dc:format>image/svg+xml</dc:format>
        <dc:type
           rdf:resource="http://purl.org/dc/dcmitype/StillImage" />
        <dc:title></dc:title>
      </cc:Work>
    </rdf:RDF>
  </metadata>
  <g
     inkscape:label="Layer 1"
     inkscape:groupmode="layer"
     id="layer1"
     transform="translate(104.23577,-43.980114)">
    <circle
       inkscape:export-ydpi="99.992851"
       inkscape:export-xdpi="99.992851"
       inkscape:export-filename="E:\01 Personal\04 Current Projects\01 AftabeShafa\ShafaDoc\Logos and Icons\Icons\PNG\Color\Clinic.png"
       id="circle4266-7"
       cy="102.72023"
       cx="-45.495655"
       r="58.740116"
       style="fill:#5d4485;fill-opacity:1;stroke:none;stroke-width:2.64583302;stroke-miterlimit:4;stroke-dasharray:none;stroke-opacity:1" />
    <path
       inkscape:connector-curvature="0"
       id="path4175-3"
       d="m -79.647542,93.364385 33.53336,-20.913569"
       style="fill:#5ebeef;fill-opacity:1;fill-rule:evenodd;stroke:#9888b1;stroke-width:3.86291647;stroke-linecap:square;stroke-linejoin:miter;stroke-miterlimit:4;stroke-dasharray:none;stroke-opacity:1" />
    <path
       style="fill:#5ebeef;fill-opacity:1;fill-rule:evenodd;stroke:#9888b1;stroke-width:3.86299992;stroke-linecap:square;stroke-linejoin:miter;stroke-miterlimit:4;stroke-dasharray:none;stroke-opacity:1"
       d="M -11.343827,93.364385 -44.877157,72.450816"
       id="path4187-3"
       inkscape:connector-curvature="0" />
    <path
       inkscape:export-ydpi="99.992851"
       inkscape:export-xdpi="99.992851"
       inkscape:export-filename="E:\01 Personal\04 Current Projects\01 AftabeShafa\ShafaDoc\Logos and Icons\Icons\PNG\Color\Clinic.png"
       id="path2315"
       d="m -80.494684,131.40537 c 11.365315,-0.0331 22.732125,-0.003 34.098934,-0.0158 11.869108,0.006 23.738217,0 35.608797,0.004 0.64854,-0.0411 1.25871,0.34978 1.2262,0.79372 0.0192,0.76967 -0.005,1.53938 0.005,2.30903 0.0458,0.45099 -0.58208,0.84286 -1.23799,0.80075 -23.147306,0.003 -46.294548,0.003 -69.441822,0 -0.598339,0.0331 -1.189284,-0.29063 -1.21587,-0.70454 -0.03104,-0.79773 -0.01044,-1.59645 -0.0087,-2.3942 -0.03545,-0.38081 0.407754,-0.74564 0.966187,-0.79274 z"
       inkscape:connector-curvature="0"
       style="opacity:1;fill:#9888b1;fill-opacity:1;stroke:#4b4b4b;stroke-width:0.2331765;stroke-opacity:1" />
    <path
       style="fill:#ffffff;fill-opacity:1;stroke:none;stroke-width:0.26458332px;stroke-linecap:butt;stroke-linejoin:miter;stroke-opacity:1"
       d="m -45.475787,75.863566 -31.12765,19.536775 -0.0189,35.249299 h 62.19263 l -0.0189,-35.249299 z"
       id="path846"
       inkscape:connector-curvature="0" />
    <circle
       inkscape:export-ydpi="99.992851"
       inkscape:export-xdpi="99.992851"
       inkscape:export-filename="E:\01 Personal\04 Current Projects\01 AftabeShafa\ShafaDoc\Logos and Icons\Icons\PNG\Color\Clinic.png"
       r="14.139437"
       cy="104.84411"
       cx="-45.526024"
       id="path4985-0"
       style="opacity:1;fill:#ffffff;fill-opacity:1;stroke:#9888b1;stroke-width:1.32707548;stroke-linecap:round;stroke-miterlimit:4;stroke-dasharray:none;stroke-opacity:1" />
    <path
       id="path5004-1"
       d="m -48.187122,97.421737 c -0.02117,-0.468969 0.391499,-0.902941 0.862611,-0.893374 1.197922,-0.0054 2.396887,-0.0065 3.595851,0 0.471112,-0.01156 0.880674,0.425477 0.859452,0.892329 0.01156,1.586259 -0.0028,3.172518 0.0054,4.758778 1.587331,0.004 3.174635,-0.003 4.761963,0.003 0.46578,-0.0169 0.892331,0.39048 0.893376,0.85626 0.0028,1.20004 0.0065,2.40114 -0.0028,3.60118 0.0054,0.46897 -0.420172,0.88276 -0.888098,0.86369 -1.589418,0.008 -3.177791,0 -4.76724,0.003 0,1.59049 0.0065,3.1799 -0.0031,4.77042 0.01807,0.47004 -0.402138,0.89233 -0.871105,0.88276 -1.189427,0.007 -2.379925,0.003 -3.570395,0.003 -0.471114,0.008 -0.892331,-0.41594 -0.876413,-0.88705 -0.0054,-1.58942 0.0028,-3.17779 -0.0031,-4.76723 -1.590518,-0.007 -3.18101,0.007 -4.770429,-0.005 -0.456269,0.0149 -0.879602,-0.38304 -0.879602,-0.84139 -0.0096,-1.20323 -0.0054,-2.40753 -0.0028,-3.61073 -0.01072,-0.46792 0.414867,-0.88279 0.881748,-0.86687 1.59049,-0.003 3.180982,-0.004 4.772546,0 0,-1.58733 -0.0028,-3.174631 0,-4.761962 z"
       inkscape:connector-curvature="0"
       style="opacity:1;fill:#ff2a22;fill-opacity:1;stroke:#ff2a22;stroke-width:0.10610398;stroke-opacity:1" />
  </g>
</svg>
